<?xml version="1.0" standalone="no"?>
<!DOCTYPE svg PUBLIC "-//W3C//DTD SVG 20010904//EN"
 "http://www.w3.org/TR/2001/REC-SVG-20010904/DTD/svg10.dtd">
<svg version="1.0" xmlns="http://www.w3.org/2000/svg"
 width="360.000000pt" height="360.000000pt" viewBox="0 0 360.000000 360.000000"
 preserveAspectRatio="xMidYMid meet">

<g transform="translate(0.000000,360.000000) scale(0.100000,-0.100000)"
fill="#000000" stroke="none">
<path d="M2275 3309 c-141 -17 -301 -56 -428 -103 -236 -89 -484 -262 -642
-448 -54 -62 -62 -68 -148 -99 -50 -18 -147 -61 -215 -95 -264 -135 -468 -309
-671 -571 l-32 -43 31 -62 c90 -177 277 -371 471 -488 l64 -38 7 126 c19 333
69 542 188 790 32 67 61 122 65 122 3 0 -2 -17 -11 -37 -102 -242 -136 -455
-115 -730 31 -399 144 -685 356 -899 292 -295 722 -386 1225 -259 52 13 108
29 125 35 28 11 31 9 59 -27 90 -115 235 -219 385 -274 96 -35 246 -69 305
-69 l39 0 -6 148 c-10 236 -45 365 -121 450 l-34 37 24 30 c14 17 34 62 47
100 19 60 22 92 22 230 0 88 -4 186 -8 218 l-9 58 -36 -7 c-161 -29 -363 -148
-557 -327 l-90 -83 -104 8 c-432 32 -681 255 -658 588 12 174 118 312 334 436
l74 42 -66 37 c-271 151 -339 440 -189 798 20 48 38 86 40 84 2 -2 -2 -37 -10
-78 -48 -256 -12 -454 104 -570 99 -100 276 -151 446 -131 100 13 262 65 426
137 302 134 472 291 494 456 6 42 4 48 -16 59 -13 7 -52 13 -86 13 -104 0
-236 -73 -391 -218 -40 -37 -73 -65 -73 -63 0 3 7 29 16 59 25 86 84 189 141
245 57 57 185 127 253 139 49 8 55 19 41 73 -31 115 -151 169 -441 197 -156
16 -511 18 -625 4z m303 -225 c48 -13 19 -125 -50 -190 -37 -36 -137 -89 -146
-79 -13 13 -7 170 7 204 25 59 106 87 189 65z m-1004 -1410 c-33 -157 -104
-325 -166 -391 -49 -52 -146 -7 -229 106 -26 36 -46 67 -45 69 2 1 45 -5 96
-14 l92 -17 55 54 c56 55 171 196 192 237 19 35 20 27 5 -44z"/>
<path d="M2002 1746 c-50 -57 -73 -135 -70 -235 l3 -86 108 -3 c128 -3 129 -1
104 97 -18 67 -93 248 -107 256 -4 3 -21 -10 -38 -29z"/>
</g>
</svg>
