<?xml version="1.0" standalone="no"?>
<!DOCTYPE svg PUBLIC "-//W3C//DTD SVG 20010904//EN"
 "http://www.w3.org/TR/2001/REC-SVG-20010904/DTD/svg10.dtd">
<svg version="1.0" xmlns="http://www.w3.org/2000/svg"
 width="4167.000000pt" height="4167.000000pt" viewBox="0 0 4167.000000 4167.000000"
 preserveAspectRatio="xMidYMid meet">

<g transform="translate(0.000000,4167.000000) scale(0.100000,-0.100000)"
fill="#FFFFFF" stroke="none">
<path d="M21335 31814 c-269 -21 -484 -56 -801 -129 -482 -112 -728 -197 -949
-330 l-80 -48 -225 17 c-968 70 -1920 51 -2695 -54 -1167 -160 -1960 -317
-3005 -596 -736 -197 -1546 -449 -2275 -709 -242 -86 -579 -206 -750 -267
-170 -60 -443 -160 -605 -220 -275 -103 -405 -155 -1050 -416 -252 -103 -549
-216 -1340 -511 -632 -236 -898 -343 -1730 -698 -399 -171 -774 -329 -835
-353 -60 -24 -126 -54 -146 -66 -87 -54 -294 -150 -495 -229 -119 -48 -373
-154 -563 -237 -597 -260 -939 -393 -1060 -413 -102 -17 -297 -122 -416 -223
-189 -162 -299 -378 -335 -652 -35 -273 62 -608 288 -985 33 -55 59 -101 58
-102 -1 -2 -58 8 -127 22 -234 45 -367 42 -476 -11 -178 -86 -237 -333 -145
-609 34 -102 178 -390 262 -523 36 -56 107 -148 158 -205 71 -77 102 -121 130
-181 108 -231 232 -470 323 -621 194 -325 265 -421 514 -705 71 -80 188 -220
262 -313 73 -92 180 -220 238 -285 171 -193 921 -941 1050 -1048 66 -54 178
-149 250 -209 336 -285 679 -546 991 -755 224 -151 903 -561 1184 -715 763
-419 1531 -728 2244 -905 l170 -42 100 -95 c335 -318 1052 -845 1586 -1165
941 -564 2267 -1179 3475 -1613 307 -110 840 -285 941 -309 132 -32 158 -54
268 -228 499 -786 1197 -1614 2088 -2476 573 -555 936 -842 1813 -1434 593
-401 969 -617 1695 -977 391 -194 577 -278 818 -368 413 -155 801 -227 901
-168 56 33 76 68 75 133 0 33 -7 70 -17 89 -9 18 -74 103 -143 190 -205 256
-337 469 -529 853 -48 96 -125 258 -170 360 -169 378 -243 520 -344 659 -25
36 -49 70 -54 77 -4 7 52 -12 123 -42 605 -250 1902 -666 2580 -827 739 -176
1140 -239 1625 -254 225 -6 319 3 394 42 124 62 149 168 78 315 -34 69 -82
122 -422 470 -386 394 -596 659 -980 1239 -261 394 -469 758 -740 1300 -52
105 -55 113 -33 107 139 -40 440 -112 588 -141 169 -33 526 -86 1110 -165 302
-41 437 -64 644 -109 l175 -39 148 -119 c217 -174 747 -531 1173 -787 663
-401 1599 -880 2350 -1203 198 -85 908 -343 1300 -471 618 -203 1066 -302
1605 -357 491 -49 1096 -49 1640 1 592 53 1358 191 1721 308 99 32 116 41 152
80 54 58 64 115 32 181 -26 53 -69 92 -210 187 -278 189 -388 287 -518 460
-197 263 -354 561 -538 1020 -160 399 -292 855 -528 1827 -58 236 -122 473
-142 528 -82 219 -197 414 -322 545 -48 50 -70 79 -61 82 8 2 55 12 104 21 50
9 166 36 258 61 l168 45 47 -27 c135 -79 309 -309 455 -603 112 -224 157 -343
352 -920 425 -1262 563 -1577 1011 -2303 161 -261 332 -466 444 -530 97 -56
204 -72 268 -39 72 37 106 92 123 203 17 107 6 242 -50 619 -83 551 -120 939
-142 1459 -13 312 -6 1663 10 2050 29 660 42 833 92 1235 125 996 226 1516
394 2035 35 107 109 341 165 520 367 1176 443 1385 710 1945 335 703 629 1366
758 1711 116 311 178 569 188 789 6 117 4 136 -15 185 -43 114 -149 217 -295
290 -110 54 -186 70 -351 77 -331 12 -604 -85 -895 -320 -239 -193 -504 -448
-683 -656 -200 -234 -350 -445 -525 -741 -203 -345 -306 -592 -402 -969 -22
-85 -42 -156 -45 -159 -3 -3 -48 16 -100 42 -184 91 -332 223 -589 527 l-148
174 6 95 c29 438 124 872 272 1240 95 238 416 838 628 1175 297 472 736 995
1131 1348 93 84 310 280 480 437 474 434 701 631 895 773 134 99 200 164 200
199 0 70 -60 145 -145 184 -99 45 -464 93 -1140 149 -452 38 -646 60 -885 100
-80 13 -437 70 -794 125 -1372 212 -1639 265 -2691 530 -664 168 -1094 290
-1660 475 -176 57 -464 147 -640 200 -293 88 -411 126 -880 289 -88 30 -299
96 -470 145 -375 108 -442 131 -800 276 -322 129 -500 191 -775 269 -192 53
-436 137 -855 292 -115 42 -365 128 -555 190 -190 62 -581 191 -870 288 -289
96 -595 197 -680 224 -85 27 -306 106 -490 174 -406 152 -468 172 -875 288
-567 162 -888 237 -1175 275 -69 9 -222 32 -340 50 -546 87 -757 106 -1230
110 -212 1 -407 1 -435 -1z m646 -209 c350 -25 506 -46 992 -134 150 -28 355
-64 457 -81 212 -37 423 -87 695 -166 105 -31 291 -85 415 -120 300 -87 378
-114 764 -265 181 -72 469 -177 640 -235 171 -57 374 -128 451 -157 l140 -52
-160 -6 c-170 -7 -298 -28 -476 -78 -191 -54 -528 -186 -512 -201 4 -5 51 -22
104 -38 l96 -31 144 60 c305 128 803 278 872 264 81 -18 251 -81 370 -137 80
-38 142 -61 159 -60 15 1 45 -8 65 -21 21 -13 70 -29 108 -36 87 -15 290 -82
364 -120 31 -15 101 -40 156 -53 55 -14 181 -56 280 -93 99 -37 421 -148 715
-245 356 -118 635 -217 835 -298 354 -142 456 -178 670 -238 209 -58 315 -93
700 -231 176 -63 408 -141 515 -173 774 -231 1133 -349 1192 -393 20 -15 51
-22 115 -27 63 -6 108 -16 158 -37 39 -17 94 -33 124 -37 30 -4 266 -59 525
-122 1173 -287 1429 -343 1981 -439 294 -51 606 -101 870 -140 213 -32 576
-102 588 -114 4 -4 -7 -14 -24 -22 l-33 -13 70 -18 c162 -42 319 -69 388 -67
165 6 259 -1 401 -26 139 -25 179 -28 555 -35 371 -8 413 -10 500 -31 52 -13
123 -23 158 -22 34 0 62 -3 62 -7 0 -9 -154 -157 -265 -255 -94 -83 -259 -216
-520 -420 -273 -213 -416 -337 -614 -530 -376 -368 -673 -746 -1038 -1320 -18
-27 -55 -79 -83 -115 -64 -84 -112 -176 -140 -270 -13 -43 -97 -222 -200 -425
-327 -647 -420 -943 -458 -1463 l-7 -93 -255 278 c-140 153 -342 372 -449 488
-310 337 -1526 1542 -1726 1710 -93 79 -208 187 -255 239 -100 113 -316 315
-595 557 -110 95 -249 218 -310 274 -199 182 -342 290 -762 578 -425 292 -819
544 -1126 721 -93 53 -257 150 -365 215 -108 64 -251 148 -317 186 -66 38
-203 126 -305 194 -102 69 -261 171 -354 228 -95 57 -163 105 -155 107 8 3
145 36 304 75 434 104 515 125 515 132 0 10 -152 77 -199 88 -37 8 -62 5 -155
-19 -223 -58 -383 -122 -542 -215 l-30 -18 -185 95 c-197 100 -351 189 -344
197 3 2 119 40 258 83 138 43 298 92 355 110 56 17 102 34 102 37 0 4 -45 26
-100 49 l-100 44 -162 -47 c-191 -56 -393 -125 -481 -164 l-62 -29 -237 121
c-131 67 -234 124 -230 128 4 3 63 25 132 49 175 61 469 168 488 179 14 8 9
13 -28 29 -25 11 -65 29 -89 40 l-44 20 -144 -49 c-80 -27 -224 -81 -321 -119
l-177 -69 -63 14 c-76 18 -206 71 -293 119 l-64 36 34 12 c18 7 160 63 315
124 l281 112 -75 36 c-48 23 -89 36 -115 36 -73 0 -312 -90 -496 -188 l-107
-56 -68 29 c-85 35 -332 158 -359 178 -18 14 -11 18 100 51 270 83 465 160
465 184 0 14 -64 40 -128 52 -132 26 -304 -34 -526 -183 -33 -22 -65 -40 -71
-40 -24 0 -383 160 -453 202 -70 43 -99 71 -72 71 11 0 348 132 435 170 l50
22 -85 30 c-155 53 -167 53 -299 9 -64 -21 -165 -62 -225 -90 -60 -28 -121
-51 -135 -51 -55 0 -441 149 -441 170 0 8 107 56 318 145 63 26 110 51 105 55
-23 21 -153 63 -193 63 -46 0 -177 -50 -376 -143 l-90 -42 -297 118 c-163 65
-297 120 -297 123 0 4 46 23 103 44 165 61 331 134 320 140 -22 14 -143 55
-178 61 -47 8 -111 -11 -297 -89 -70 -30 -150 -61 -178 -69 l-52 -15 -239 79
c-132 44 -250 85 -262 92 -21 11 -21 11 -2 20 11 4 223 97 470 206 248 109
521 227 608 262 86 36 157 67 157 70 0 3 -4 11 -9 18 -7 11 -32 8 -137 -17
-294 -72 -558 -164 -1077 -375 -169 -69 -309 -126 -312 -126 -3 0 -31 17 -62
37 -90 57 -177 89 -308 113 -65 11 -121 23 -123 25 -13 12 714 356 1110 526
155 66 191 85 168 87 -145 16 -769 -202 -1298 -453 l-163 -78 -53 11 c-29 6
-128 38 -220 71 -92 34 -174 61 -181 61 -39 0 -14 20 68 55 51 21 198 88 327
148 129 60 327 152 439 203 210 96 296 142 287 151 -9 10 -259 -59 -444 -122
-257 -88 -713 -270 -738 -294 -11 -11 -26 -38 -33 -61 -9 -32 -16 -41 -29 -37
-9 3 -107 31 -217 62 -110 32 -202 59 -204 61 -10 9 50 42 339 187 289 145
447 233 436 244 -7 7 -202 -59 -366 -122 -143 -55 -384 -162 -500 -220 -93
-47 -130 -46 -394 10 -118 25 -217 45 -220 45 -3 0 -6 4 -6 9 0 11 97 62 205
106 124 51 211 96 270 140 28 21 43 35 35 32 -126 -41 -650 -222 -664 -229
-32 -17 -131 -11 -336 21 -107 16 -257 38 -333 47 -75 10 -134 21 -130 25 9 8
307 106 418 138 372 106 775 178 1155 204 131 10 473 5 661 -8z m-3011 -1346
c102 -5 223 -14 270 -19 47 -5 175 -14 285 -20 559 -29 1134 -97 1724 -201
204 -36 949 -187 1181 -239 1382 -309 2922 -823 4590 -1532 535 -228 1196
-563 1840 -933 987 -567 2787 -1705 3615 -2284 411 -288 1292 -969 1540 -1190
169 -151 651 -627 863 -854 163 -173 198 -222 189 -259 -3 -11 14 -45 47 -90
l53 -72 -13 -44 c-37 -123 -51 -268 -74 -777 -6 -126 -17 -288 -25 -360 -8
-71 -17 -155 -20 -185 -12 -114 -15 -113 -56 15 -60 183 -89 296 -89 343 0 32
12 63 50 131 28 49 50 91 50 95 0 15 -71 40 -128 45 l-64 6 -25 60 c-37 87
-88 163 -156 228 -32 31 -63 57 -67 57 -5 0 5 -51 22 -112 115 -429 111 -380
39 -475 -32 -43 -127 -148 -210 -233 -171 -176 -169 -175 -190 -56 -22 124
-10 216 64 490 24 93 48 190 51 216 5 40 17 60 76 128 l69 82 -25 70 c-28 76
-31 126 -16 230 16 115 39 392 41 490 2 176 24 142 -193 304 -240 177 -405
294 -675 474 l-210 140 -6 -91 c-4 -51 -9 -198 -12 -327 -5 -230 -11 -380 -20
-490 -9 -108 -26 -296 -30 -340 -3 -25 -12 -110 -20 -189 -8 -79 -15 -147 -15
-152 0 -9 -78 -35 -83 -28 -2 2 -18 54 -36 114 -18 61 -77 252 -132 426 -54
174 -99 331 -99 348 0 43 29 97 92 172 133 157 149 190 111 231 -37 41 -81 20
-206 -101 -44 -43 -81 -71 -85 -65 -16 18 -160 420 -186 518 -15 54 -34 112
-42 130 -35 69 -98 138 -211 231 -65 54 -126 106 -137 114 -18 16 -18 15 -1
-24 63 -147 115 -286 121 -323 l7 -44 -89 -87 c-75 -73 -353 -311 -391 -334
-7 -5 -20 16 -37 60 l-26 68 29 125 c16 69 50 208 75 310 69 285 130 571 123
576 -84 53 -623 384 -781 479 -122 72 -280 168 -352 212 l-131 81 -11 -177
c-7 -97 -17 -196 -24 -220 -12 -49 -94 -141 -239 -272 l-77 -69 -80 153 c-79
152 -179 369 -201 439 -12 35 -10 40 20 85 18 26 82 98 142 160 l109 111 -38
24 c-22 14 -53 33 -71 43 l-31 18 -122 -98 -122 -99 -19 24 c-34 45 -116 203
-169 327 l-53 122 -102 61 c-56 33 -113 60 -128 60 -15 0 -27 -2 -27 -5 0 -16
71 -177 145 -331 112 -231 175 -379 175 -413 0 -14 -7 -38 -16 -51 -21 -32
-546 -560 -557 -560 -4 0 -16 19 -26 43 -10 23 -73 157 -139 297 -124 265
-193 421 -232 527 l-22 62 33 53 c52 81 135 182 294 359 l146 162 -67 39 c-37
21 -70 37 -73 36 -10 -5 -170 -176 -285 -305 -60 -68 -111 -123 -114 -123 -7
0 6 186 29 407 10 106 19 201 19 210 0 11 -20 29 -53 47 -28 16 -135 76 -237
133 -102 56 -190 103 -197 103 -6 0 -16 -12 -21 -27 -9 -28 -9 -28 -16 13 -7
39 -10 42 -124 104 -325 179 -583 307 -633 313 l-36 5 4 -556 4 -557 -61 115
c-34 63 -81 149 -104 190 -59 101 -151 287 -176 352 l-20 52 25 42 c14 23 42
57 62 74 41 34 205 120 232 121 21 1 -118 69 -141 69 -28 0 -121 -45 -198 -94
-39 -25 -74 -46 -78 -46 -9 0 -208 360 -285 516 l-55 111 -74 33 c-40 18 -78
34 -83 36 -6 3 -44 -34 -84 -80 -83 -97 -192 -195 -440 -395 l-175 -141 -39
67 c-21 38 -53 95 -69 127 l-30 59 16 111 c8 61 18 136 21 166 3 30 7 71 10
90 2 19 6 98 10 176 l7 140 -183 72 c-101 39 -251 96 -334 126 -82 29 -242 88
-355 129 -432 158 -737 258 -774 255 l-36 -3 70 -122 c39 -68 70 -127 70 -132
0 -11 -430 -431 -442 -431 -13 0 -380 499 -394 535 -3 7 63 73 155 155 89 78
161 145 161 149 0 4 -21 12 -46 19 -42 11 -50 10 -107 -15 -34 -15 -105 -60
-159 -100 -53 -40 -100 -73 -105 -73 -18 0 -183 218 -244 322 -24 40 -33 46
-86 61 -64 18 -133 22 -133 8 0 -11 76 -128 200 -306 53 -77 107 -156 119
-177 l22 -36 -163 -141 c-89 -78 -165 -140 -169 -139 -9 3 -287 392 -391 546
l-69 103 111 115 c62 64 110 118 107 120 -3 3 -38 13 -78 22 l-73 17 -74 -77
c-41 -43 -78 -78 -82 -78 -5 0 -47 53 -95 118 l-87 117 -123 26 -123 26 50
-71 c93 -131 231 -340 232 -350 1 -12 -249 -256 -262 -256 -5 0 -14 129 -22
288 -7 158 -15 312 -19 342 l-6 55 -55 12 c-115 27 -752 154 -915 182 -350 62
-675 104 -1090 142 -320 28 -344 28 -437 -10 l-77 -30 -56 24 c-41 18 -185 65
-201 65 0 0 26 -52 58 -116 59 -115 59 -115 42 -142 -39 -59 -471 -482 -493
-482 -9 0 -215 317 -242 372 l-22 47 45 53 c25 29 94 105 152 168 l107 115
-67 3 -68 3 -70 -78 c-39 -43 -92 -100 -119 -128 l-48 -50 -16 22 c-8 13 -50
69 -92 125 l-76 103 -59 -2 c-32 -1 -61 -4 -63 -7 -3 -3 26 -56 65 -119 39
-63 82 -136 95 -164 l25 -49 -26 -35 c-65 -85 -154 -177 -291 -303 l-148 -135
-92 129 c-50 71 -110 160 -132 199 l-41 70 23 38 c13 21 92 108 176 194 84 86
153 161 153 167 0 14 -33 32 -58 32 -32 0 -105 -56 -241 -186 -150 -144 -131
-142 -198 -19 -51 94 -126 171 -176 180 -21 4 -41 5 -44 1 -4 -3 30 -81 76
-172 45 -91 85 -181 88 -199 5 -34 0 -40 -247 -290 -140 -140 -258 -255 -263
-255 -5 0 -30 23 -55 52 -85 94 -302 353 -302 360 0 4 102 104 228 222 125
118 233 224 240 236 12 19 10 20 -40 22 -87 3 -102 0 -121 -24 -72 -90 -184
-210 -271 -292 l-104 -96 -63 26 c-35 15 -86 35 -113 45 l-48 20 35 -48 c19
-27 48 -67 64 -90 l31 -43 -77 -74 c-113 -109 -313 -286 -324 -286 -5 0 -41
29 -81 64 -64 57 -205 167 -265 206 -23 15 -22 16 66 95 137 125 262 246 295
287 l29 37 -25 7 c-15 3 -56 -3 -100 -16 -70 -21 -76 -25 -112 -77 -20 -29
-104 -120 -186 -201 -149 -147 -255 -267 -284 -323 -15 -29 -13 -28 68 22 46
28 104 65 129 80 25 16 50 29 54 29 4 0 38 -20 74 -45 115 -76 244 -234 225
-275 -5 -11 -55 -66 -111 -123 l-103 -102 23 -28 22 -27 85 75 c47 42 102 88
124 103 l39 27 76 -81 c42 -44 122 -145 178 -224 l102 -143 -83 -87 c-46 -48
-97 -106 -114 -129 -27 -37 -29 -45 -19 -71 14 -37 16 -36 169 92 92 78 122
98 129 87 4 -8 53 -75 108 -149 55 -74 117 -167 138 -207 l38 -71 -30 -35
c-17 -20 -61 -71 -98 -114 -38 -43 -80 -100 -93 -126 -24 -45 -24 -48 -5 -37
18 9 154 117 253 200 l36 30 29 -37 c41 -52 152 -214 203 -296 l42 -67 -52
-72 c-28 -39 -54 -76 -56 -83 -3 -6 11 -20 30 -30 l34 -19 64 42 c34 23 66 38
70 34 18 -18 448 -677 448 -686 0 -6 -14 -31 -30 -56 -16 -25 -30 -48 -30 -52
0 -5 33 -8 73 -8 l72 0 127 -193 c178 -271 198 -307 198 -359 -1 -24 -9 -83
-20 -133 -10 -49 -17 -91 -15 -93 2 -2 31 15 64 37 33 23 67 44 74 47 16 6
130 -164 304 -450 l103 -169 -94 -97 c-79 -81 -97 -106 -110 -150 -17 -58 -20
-89 -8 -106 4 -8 56 30 146 107 76 65 141 119 145 119 7 0 243 -393 347 -576
l54 -95 -230 -238 -229 -238 10 -94 c21 -196 41 -249 177 -474 l90 -149 -41
-48 c-84 -96 -145 -172 -162 -201 l-17 -29 28 15 c16 8 74 49 128 91 55 41
103 73 107 71 12 -8 163 -255 217 -355 28 -52 67 -132 86 -178 l36 -84 -32
-46 c-17 -26 -110 -127 -206 -224 l-175 -177 -77 127 c-126 209 -118 198 -126
178 -13 -33 5 -241 29 -345 l24 -104 -63 -129 c-35 -70 -62 -128 -59 -128 2 0
49 36 104 80 56 44 103 80 105 80 3 0 35 -57 72 -127 69 -132 227 -414 249
-446 11 -16 16 -13 50 34 l37 52 -22 56 c-13 31 -70 148 -126 260 -57 112
-111 226 -120 253 l-16 49 57 69 c31 38 112 120 178 182 67 61 138 127 158
146 l36 34 131 -254 c71 -140 146 -279 165 -309 64 -100 93 -229 82 -364 -9
-119 -32 -255 -51 -305 -12 -32 -19 -94 -24 -215 -4 -93 -17 -238 -29 -320
-22 -149 -22 -150 -3 -199 l19 -49 38 64 c21 35 120 185 219 334 100 148 204
315 233 370 29 55 111 215 183 355 72 140 138 265 148 278 l18 23 99 -172 100
-172 84 -39 c46 -21 86 -37 88 -35 4 5 -38 106 -125 297 -38 85 -84 195 -101
244 l-31 88 49 67 c44 59 125 142 274 281 41 38 49 42 61 30 23 -24 238 -417
348 -637 l102 -202 -120 -123 c-126 -130 -194 -209 -194 -225 0 -5 16 -17 36
-26 l36 -18 42 34 c23 19 87 76 144 126 56 51 107 89 112 86 6 -3 17 -21 26
-38 41 -79 128 -220 131 -211 2 5 -19 79 -47 163 -39 121 -47 157 -38 168 41
50 331 304 341 300 29 -11 475 -1025 454 -1032 -7 -2 -50 -6 -97 -10 -114 -8
-470 -59 -633 -91 -313 -60 -705 -178 -982 -296 -239 -102 -417 -204 -595
-343 -58 -45 -119 -92 -137 -104 l-32 -22 -123 88 c-207 148 -336 200 -473
190 -38 -2 -90 -12 -114 -22 l-43 -18 7 -81 c4 -45 8 -82 9 -83 1 -1 33 7 71
18 l69 21 45 -22 c78 -37 232 -144 316 -218 134 -117 280 -300 392 -489 115
-197 193 -428 245 -729 18 -104 22 -169 22 -334 0 -195 -2 -215 -37 -399 -20
-107 -35 -196 -33 -198 3 -4 77 94 126 165 15 21 19 18 245 -179 578 -506 886
-749 1255 -992 376 -247 852 -464 1220 -557 492 -125 1157 -128 1890 -10 368
60 797 155 1144 255 241 69 1461 469 1916 627 1211 423 1446 499 1827 592 98
24 212 53 253 64 115 33 242 50 525 72 143 11 323 29 400 39 77 11 219 22 316
26 l177 5 5 -22 c3 -13 16 -73 31 -134 22 -94 106 -552 106 -578 0 -12 37 -1
107 31 l61 28 -54 320 c-29 176 -69 418 -88 538 l-35 218 272 317 c287 334
476 538 487 525 4 -4 15 -53 25 -108 10 -55 38 -188 62 -295 52 -231 84 -420
86 -511 1 -79 19 -51 -283 -429 -248 -308 -429 -554 -418 -566 4 -4 143 -34
158 -34 5 0 75 84 157 187 217 275 430 523 449 523 9 0 37 -121 89 -384 30
-154 56 -281 58 -282 1 -2 45 -6 96 -10 l94 -7 -7 77 c-7 73 -15 124 -85 511
-17 94 -34 208 -39 253 l-8 84 44 66 c64 96 158 208 438 520 l30 35 42 -214
c23 -118 62 -337 87 -488 46 -274 50 -291 89 -345 18 -23 171 -153 213 -179 8
-5 55 49 147 170 173 229 287 366 296 356 13 -13 87 -485 115 -724 15 -123 30
-235 33 -249 7 -22 14 -25 60 -28 49 -3 52 -2 52 20 0 49 -41 492 -61 667
l-21 183 34 37 c19 20 112 128 206 241 204 246 278 327 287 319 9 -9 70 -271
94 -407 11 -61 23 -162 27 -225 l7 -115 -50 -94 c-28 -51 -103 -178 -168 -282
-119 -191 -200 -334 -194 -340 2 -2 35 -12 72 -24 l68 -20 42 67 c75 120 257
390 266 396 5 3 12 -3 15 -12 11 -39 56 -287 78 -431 12 -83 25 -152 28 -152
3 0 28 17 55 38 l50 38 3 91 c2 64 -5 143 -24 255 -14 90 -28 224 -31 298 l-5
136 32 64 c80 159 410 658 421 638 15 -28 68 -309 114 -606 43 -281 47 -314
43 -458 l-3 -154 35 -5 c19 -3 45 -7 57 -9 20 -3 41 28 170 253 177 310 320
540 390 631 15 18 41 -140 78 -470 26 -236 47 -364 61 -387 11 -18 106 -63
133 -63 13 0 97 134 222 356 117 207 200 346 242 402 l25 33 6 -33 c3 -18 19
-193 36 -388 45 -537 43 -512 51 -465 19 98 21 330 5 591 -20 337 -20 420 -1
474 8 23 57 115 109 204 52 88 128 229 169 311 73 145 106 201 107 180 0 -6
11 -60 25 -120 13 -61 42 -238 65 -394 22 -157 47 -310 55 -340 25 -98 12 338
-19 604 -13 121 -30 283 -36 360 -11 140 -23 231 -80 615 -17 113 -33 257 -37
320 l-6 116 83 159 c45 88 93 190 106 227 l23 68 -42 -22 c-23 -11 -85 -63
-136 -114 -52 -51 -96 -92 -98 -91 -1 2 -12 64 -23 138 -29 182 -57 289 -83
317 -28 30 -106 76 -114 68 -9 -9 21 -213 63 -421 45 -229 47 -296 9 -362 -83
-143 -325 -477 -336 -466 -4 5 -51 204 -104 443 -136 613 -179 783 -272 1064
-35 107 -54 148 -80 177 -32 35 -121 94 -130 86 -2 -3 23 -98 56 -213 72 -251
161 -597 161 -624 0 -34 -367 -567 -381 -552 -4 4 -42 160 -84 347 -42 187
-101 443 -131 569 l-54 230 24 100 c44 180 63 355 72 641 4 116 7 211 9 213 1
1 51 -53 111 -120 228 -255 346 -355 530 -448 308 -157 759 -226 1074 -163
105 21 229 71 409 164 260 135 400 228 559 368 84 74 224 239 241 284 12 31
13 122 3 150 -8 19 -42 -7 -185 -141 -32 -30 -60 -52 -63 -49 -3 3 4 24 16 48
61 119 180 462 166 477 -8 7 -185 -119 -211 -150 -14 -16 -49 -78 -79 -138
-55 -110 -117 -212 -124 -205 -2 2 1 41 7 86 6 45 9 84 7 86 -2 2 -26 -14 -54
-37 -90 -71 -158 -177 -203 -319 l-24 -74 -15 67 -15 68 -54 -69 c-142 -178
-184 -223 -209 -223 -68 0 -79 66 -31 172 l32 68 -43 95 c-42 94 -146 265
-169 279 -8 5 -10 0 -7 -16 3 -12 8 -45 11 -73 4 -27 26 -142 51 -255 25 -112
51 -242 58 -287 l13 -83 -36 -10 c-80 -22 -113 -14 -197 47 -201 145 -350 240
-361 230 -7 -7 64 -107 151 -213 35 -43 63 -80 61 -82 -5 -5 -203 27 -268 43
-143 36 -207 58 -207 72 0 26 289 588 388 753 232 390 406 621 732 975 493
533 804 758 1150 831 113 24 301 24 389 1 75 -20 183 -75 230 -118 l34 -31 -7
-101 c-15 -228 -69 -419 -259 -907 -164 -423 -215 -535 -557 -1215 -184 -367
-330 -673 -368 -768 -81 -205 -187 -518 -324 -957 -60 -195 -117 -368 -126
-385 -8 -16 -34 -102 -57 -190 -23 -88 -75 -272 -114 -409 -169 -583 -231
-933 -336 -1896 -19 -179 -44 -399 -55 -490 -51 -432 -90 -1413 -90 -2300 0
-805 13 -1084 80 -1680 26 -232 123 -965 134 -1012 2 -10 -3 -23 -11 -30 -11
-9 -14 -27 -11 -70 l4 -58 -36 0 c-32 0 -43 8 -111 83 -41 45 -97 109 -124
142 -53 65 -155 219 -155 234 0 5 -31 57 -70 115 -78 119 -109 177 -144 268
-13 35 -33 88 -45 118 -13 34 -36 69 -62 93 -31 29 -62 81 -134 230 -148 305
-219 489 -425 1102 -277 823 -381 1094 -517 1340 -112 202 -231 362 -371 498
l-81 78 57 25 c103 45 128 49 227 30 50 -9 138 -20 198 -23 l107 -6 26 -86
c15 -47 28 -88 30 -90 6 -7 184 41 184 50 0 4 -11 43 -25 86 -13 43 -21 81
-17 84 12 11 113 41 118 36 3 -3 14 -40 25 -83 11 -43 20 -79 22 -80 3 -3 165
60 172 67 3 4 -1 44 -9 89 -18 93 -21 86 57 130 l37 21 20 -46 c11 -26 23 -58
26 -71 3 -13 10 -27 15 -30 7 -4 103 43 128 62 2 2 -11 44 -29 95 -37 101 -35
109 29 109 25 0 42 -9 71 -37 20 -21 39 -45 42 -53 4 -12 14 -10 61 12 l57 28
-52 81 -51 80 54 57 c30 31 64 68 74 81 l20 24 -53 -27 c-29 -15 -125 -70
-215 -123 -364 -216 -539 -273 -832 -273 l-130 0 79 73 c79 72 206 213 206
228 0 5 -60 -23 -132 -61 -351 -183 -601 -266 -1128 -375 -124 -25 -285 -66
-359 -91 -150 -49 -171 -52 -215 -25 -29 18 -188 52 -306 67 -51 6 -53 5 -40
-11 7 -9 66 -51 129 -92 64 -42 141 -92 171 -112 96 -63 247 -189 303 -254
149 -170 212 -337 372 -982 281 -1129 422 -1580 656 -2097 212 -468 350 -711
535 -943 83 -103 148 -165 342 -324 62 -52 112 -95 110 -97 -2 -1 -93 -21
-203 -43 -1408 -282 -2715 -280 -3840 5 -496 127 -1227 368 -1770 585 -552
220 -953 406 -1760 813 -757 383 -1019 526 -1160 633 -56 42 -92 61 -175 92
-30 12 -113 55 -185 96 -71 41 -135 75 -142 75 -28 0 -21 21 17 46 l41 27 -21
22 -21 23 176 -4 c251 -5 274 -13 405 -140 95 -92 236 -211 282 -239 l31 -18
-23 42 c-13 22 -73 104 -133 182 -60 77 -108 141 -106 143 2 2 48 1 101 -2
l97 -4 103 -116 c128 -143 505 -505 620 -595 47 -37 116 -85 153 -108 72 -44
213 -104 223 -95 6 7 -107 125 -418 436 -198 199 -418 440 -429 472 -3 8 13 9
50 5 30 -4 92 -7 139 -7 l85 -1 42 -57 c155 -212 727 -745 992 -923 118 -79
251 -151 251 -134 0 7 -77 95 -239 270 -209 228 -230 248 -287 275 -27 13 -50
24 -52 26 -2 1 1 12 8 24 10 19 -5 38 -167 208 -337 353 -308 320 -282 326 13
3 128 12 256 21 315 21 517 57 638 112 40 18 38 18 -300 24 -911 18 -1877 98
-3250 270 -647 81 -1577 206 -1775 239 -102 17 -222 30 -269 30 l-86 0 -104
137 c-218 287 -580 697 -644 729 -18 10 -104 63 -192 119 -215 138 -390 232
-585 316 -354 153 -816 281 -1245 343 -162 24 -672 39 -1060 32 -1002 -18
-1415 -59 -1829 -182 -182 -54 -304 -106 -503 -214 -279 -153 -358 -182 -598
-220 -71 -11 -195 -38 -275 -60 -282 -76 -331 -80 -678 -65 l-162 7 -48 56
c-91 107 -326 302 -364 302 -18 0 -98 -34 -98 -41 0 -15 122 -191 180 -260 35
-40 147 -158 249 -261 102 -104 183 -188 180 -188 -12 0 -310 103 -439 153
-343 131 -1493 606 -2141 885 -1286 554 -2212 1012 -3014 1490 -350 209 -1209
755 -1196 760 5 1 116 -11 247 -27 970 -122 1400 -141 2164 -96 135 7 308 17
385 20 77 3 153 9 168 12 26 5 27 6 12 22 -14 16 -46 19 -283 25 -1098 28
-1914 111 -2753 281 -631 128 -1200 322 -1880 640 -703 329 -1795 971 -2315
1361 -126 95 -670 537 -859 699 -197 169 -353 317 -651 617 -304 307 -430 442
-669 723 -65 77 -162 185 -215 240 -186 195 -383 458 -588 785 -210 335 -296
503 -338 660 -27 102 -70 133 -130 94 -31 -21 -28 -24 -117 141 -91 170 -182
369 -203 445 -26 93 -26 281 0 332 42 85 139 105 341 69 251 -45 542 -134 850
-259 571 -233 711 -295 1115 -500 382 -193 453 -234 1030 -585 162 -99 383
-232 490 -295 107 -63 254 -153 326 -198 72 -46 134 -84 138 -84 4 0 -13 26
-37 58 -75 96 -243 250 -442 402 -286 218 -441 380 -581 607 -46 74 -386 562
-584 838 -408 569 -781 1003 -1140 1324 -281 253 -516 369 -813 403 l-98 11
28 29 c40 42 150 122 208 150 177 88 444 125 605 84 132 -33 285 -127 435
-267 95 -89 304 -334 447 -524 67 -88 231 -326 366 -530 367 -555 895 -1324
963 -1406 33 -40 102 -129 151 -198 50 -69 118 -158 151 -198 57 -68 147 -152
147 -137 0 4 -37 66 -81 137 -45 72 -98 165 -118 206 -19 42 -63 114 -97 161
-68 96 -190 287 -314 495 -94 157 -193 318 -315 510 -45 72 -97 159 -115 195
-48 94 -89 305 -97 490 l-6 145 38 100 c103 278 221 376 710 591 110 48 403
190 650 314 248 124 518 258 600 297 83 39 317 152 520 251 204 99 465 221
580 272 116 51 395 178 620 283 480 222 766 349 1001 441 93 37 295 119 449
181 705 286 1392 541 2300 855 204 71 539 187 745 258 1079 373 1366 447 2755
707 839 157 1010 183 1335 204 172 10 1752 3 1980 -10z m475 -1094 c123 -154
138 -177 160 -249 14 -43 28 -104 31 -135 l5 -56 -76 -65 c-42 -36 -146 -138
-232 -227 -85 -90 -158 -163 -162 -163 -7 0 -242 325 -293 406 -14 22 -40 67
-56 101 l-31 60 68 79 c87 102 434 435 443 426 4 -4 68 -84 143 -177z m-1031
-56 c52 -81 109 -174 127 -208 31 -59 31 -61 14 -88 -9 -15 -108 -117 -219
-226 l-201 -199 -28 34 c-15 18 -81 112 -146 208 l-118 175 136 142 c140 146
321 315 333 310 4 -1 50 -68 102 -148z m-920 -67 c53 -84 110 -180 127 -213
l30 -61 -78 -86 c-141 -158 -370 -382 -391 -382 -22 0 -92 83 -221 259 -63 86
-81 119 -77 136 6 24 492 508 506 503 5 -2 52 -72 104 -156z m-1034 -77 c124
-149 212 -282 200 -304 -22 -40 -179 -208 -263 -282 l-92 -80 -54 58 c-96 104
-204 236 -253 312 -44 67 -47 76 -35 95 8 11 94 93 193 182 167 152 180 161
196 146 9 -10 58 -66 108 -127z m5997 -400 c107 -157 252 -379 289 -443 l18
-32 -174 -175 c-96 -96 -179 -175 -185 -175 -13 0 -78 86 -237 313 -65 92
-141 198 -168 234 -43 56 -50 72 -45 97 4 23 50 74 183 203 166 163 177 172
193 155 9 -9 66 -89 126 -177z m-3735 58 c66 -93 118 -172 232 -357 l87 -139
-24 -26 c-13 -14 -83 -92 -155 -173 -122 -135 -248 -256 -256 -247 -25 27
-400 600 -394 602 2 1 98 96 215 210 117 114 219 207 226 207 8 0 39 -35 69
-77z m-875 -138 c61 -93 118 -185 127 -202 l16 -33 -78 -87 c-144 -160 -387
-383 -401 -367 -22 26 -201 285 -224 325 -15 25 -27 57 -27 71 0 51 446 498
470 471 4 -4 57 -84 117 -178z m-1042 20 c141 -184 171 -226 201 -290 19 -38
34 -75 34 -82 0 -14 -338 -363 -351 -363 -11 0 -182 229 -264 352 -31 48 -54
92 -50 98 13 21 370 350 377 348 4 -2 28 -30 53 -63z m2899 -160 c14 -82 28
-179 32 -215 4 -36 8 -67 9 -70 1 -3 5 -39 9 -80 4 -41 9 -86 11 -100 2 -14 9
-83 15 -153 13 -145 15 -139 -62 -188 -42 -27 -52 -30 -58 -18 -5 8 -68 99
-140 203 -73 103 -161 235 -196 293 l-63 106 32 46 c17 25 108 122 202 215
197 196 170 201 209 -39z m3696 -23 c218 -293 310 -446 295 -492 -8 -25 -154
-175 -252 -258 l-62 -53 -67 103 c-156 240 -304 483 -302 495 3 14 305 293
316 293 4 -1 36 -40 72 -88z m1091 -177 c22 -51 28 -132 35 -500 l6 -300 -70
-69 -70 -68 -73 98 c-103 140 -248 355 -304 451 -47 82 -47 82 -29 105 71 90
128 148 268 275 l159 145 30 -48 c17 -27 38 -67 48 -89z m-6315 -170 c231
-356 274 -426 274 -447 0 -34 -20 -60 -197 -249 -201 -217 -231 -246 -242
-233 -4 5 -100 148 -211 319 l-203 309 232 229 c128 125 237 227 241 225 5 -2
52 -70 106 -153z m3863 -29 c103 -144 164 -246 188 -310 l16 -44 -36 -48 c-39
-54 -169 -183 -289 -288 l-78 -68 0 33 c0 19 4 63 10 99 5 36 11 88 14 115 3
28 10 88 15 135 6 47 13 112 16 145 3 33 8 74 10 90 2 17 7 75 11 130 6 89 8
117 13 150 2 13 6 7 110 -139z m-4898 91 c69 -95 249 -367 249 -376 0 -14
-327 -343 -357 -359 -20 -11 -28 -3 -117 122 -52 74 -111 160 -130 191 -39 66
-41 59 36 160 33 44 285 284 298 284 3 0 12 -10 21 -22z m2170 -319 c100 -150
191 -292 201 -316 l19 -43 -47 -57 c-56 -66 -278 -287 -342 -340 -37 -30 -45
-33 -56 -21 -20 22 -278 425 -331 516 l-48 83 25 37 c36 55 135 162 272 295
67 64 122 117 123 118 1 0 84 -123 184 -272z m3694 -1 c73 -120 151 -252 172
-293 l38 -76 -153 -148 c-84 -82 -165 -158 -181 -169 l-28 -20 -73 117 c-41
64 -125 195 -187 290 -62 95 -113 177 -113 181 0 14 188 201 285 284 63 54 92
73 98 64 4 -6 68 -110 142 -230z m944 -222 c60 -93 144 -230 187 -304 l78
-134 -70 -66 c-39 -36 -121 -112 -182 -169 l-110 -103 -79 128 c-96 154 -205
340 -261 444 l-41 77 56 62 c32 34 109 110 172 167 107 98 116 104 128 87 8
-11 63 -95 122 -189z m2877 -222 l174 -341 -292 -296 c-161 -163 -299 -296
-305 -296 -7 0 -22 19 -34 43 -12 23 -98 176 -190 339 -93 163 -169 301 -169
307 0 13 623 591 633 588 5 -1 87 -156 183 -344z m-9178 11 c225 -344 254
-395 238 -414 -38 -45 -256 -298 -286 -331 -19 -22 -38 -39 -42 -39 -5 0 -238
336 -418 604 l-53 79 114 112 c174 169 270 248 284 233 7 -7 80 -117 163 -244z
m4844 -42 c75 -119 155 -251 177 -293 l41 -77 -38 -48 c-55 -69 -120 -136
-254 -258 l-117 -107 -34 53 c-18 29 -73 118 -121 197 -48 79 -117 191 -153
248 l-65 104 82 87 c134 140 322 313 339 311 4 0 68 -98 143 -217z m-3930 116
c19 -16 82 -116 250 -393 l126 -209 -118 -126 c-152 -161 -328 -335 -333 -329
-15 19 -268 417 -322 506 l-68 112 119 133 c139 156 301 318 318 318 7 0 19
-6 28 -12z m1126 -220 c141 -197 142 -200 142 -469 l0 -216 -28 -39 c-16 -21
-79 -85 -140 -142 l-110 -102 -45 72 c-123 199 -327 540 -327 547 0 11 425
431 437 431 7 0 38 -37 71 -82z m3769 -185 c78 -137 157 -281 177 -320 l36
-73 -72 -68 c-140 -132 -246 -222 -260 -222 -18 0 -274 402 -343 540 l-34 68
47 53 c49 54 289 269 301 269 4 0 70 -111 148 -247z m2363 152 c11 -33 2 -77
-19 -89 -15 -10 -61 15 -61 33 0 15 15 77 26 110 7 20 41 -13 54 -54z m-1270
-27 c0 -53 -28 -118 -50 -118 -17 0 -52 89 -46 115 9 35 34 55 67 55 28 0 29
-1 29 -52z m-172 -296 c44 -70 91 -151 106 -180 l27 -54 -16 -231 c-29 -430
-33 -461 -52 -524 -9 -29 -20 -53 -25 -53 -14 0 -114 152 -200 304 -147 260
-289 528 -286 537 6 16 353 337 360 333 4 -3 43 -62 86 -132z m1572 61 c24
-43 80 -143 125 -223 93 -163 156 -286 186 -362 19 -48 19 -52 3 -76 -29 -44
-105 -121 -172 -174 -71 -57 -64 -58 -109 27 -14 28 -78 142 -141 255 -114
202 -192 357 -192 379 0 26 90 129 165 188 44 35 83 63 86 63 4 0 26 -35 49
-77z m-4036 -136 c52 -84 126 -208 164 -277 l70 -125 -105 -110 c-123 -128
-262 -255 -280 -255 -7 0 -31 23 -53 51 -42 53 -47 77 -30 139 21 78 120 683
120 735 0 19 29 -22 114 -158z m-3881 -28 c80 -116 309 -487 311 -502 0 -8
-48 -71 -107 -141 -75 -88 -128 -140 -169 -167 -33 -21 -64 -36 -68 -34 -22
14 -370 549 -370 569 0 22 319 368 334 363 6 -2 37 -41 69 -88z m9099 -1 c23
-40 114 -216 201 -392 149 -299 157 -320 147 -350 -17 -52 -539 -592 -554
-575 -2 2 -14 24 -26 49 -12 25 -78 144 -145 265 -140 251 -165 300 -211 406
l-32 77 130 148 c138 157 421 444 437 444 6 0 29 -33 53 -72z m-4292 0 c13
-24 63 -106 110 -183 85 -137 184 -313 207 -367 12 -26 8 -30 -203 -219 -120
-107 -219 -188 -224 -183 -9 9 -244 411 -313 535 l-37 66 128 124 c120 118
290 269 303 269 3 0 16 -19 29 -42z m-3682 -290 c175 -293 216 -372 207 -406
-6 -25 -403 -432 -421 -432 -9 0 -366 593 -372 618 -4 13 423 452 439 452 4 0
70 -105 147 -232z m4643 -55 c60 -103 259 -466 347 -635 l60 -117 -76 -73
c-65 -61 -165 -149 -233 -205 -14 -12 -40 28 -221 349 -113 200 -217 385 -232
413 l-27 50 103 95 c57 52 130 121 163 152 33 32 61 58 62 58 1 0 25 -39 54
-87z m-3966 -233 c18 -120 31 -393 21 -435 -7 -26 -11 -22 -68 76 -66 113
-148 276 -148 294 0 18 162 187 171 178 4 -4 15 -55 24 -113z m5885 -39 c45
-79 95 -176 110 -215 33 -81 34 -76 -49 -175 -44 -52 -322 -313 -328 -308 -1
2 4 30 12 62 7 33 32 157 54 276 38 200 94 465 106 498 3 8 7 12 9 10 2 -2 41
-69 86 -148z m-3460 57 c13 -24 64 -110 113 -192 84 -139 187 -338 187 -361 0
-6 -21 -32 -47 -57 -71 -69 -346 -308 -354 -308 -19 0 -292 502 -313 576 -5
17 6 36 46 84 57 66 316 299 334 300 6 0 21 -19 34 -42z m-3810 -97 c0 -5 65
-117 144 -249 80 -132 158 -267 175 -300 l30 -60 -31 -48 c-50 -79 -95 -129
-184 -205 l-85 -72 -25 24 c-14 13 -60 78 -102 144 -41 66 -110 172 -153 235
-108 162 -124 196 -108 228 8 13 81 89 162 168 134 129 177 162 177 135z
m7995 -103 c33 -51 128 -230 212 -398 l152 -305 -129 -130 c-71 -71 -131 -127
-133 -125 -14 17 -407 801 -407 812 0 15 221 238 236 238 5 0 36 -42 69 -92z
m-3136 -35 c22 -43 94 -175 161 -293 123 -218 214 -396 225 -443 6 -22 -2 -36
-51 -88 -64 -67 -363 -333 -369 -327 -10 10 -87 151 -200 363 -70 132 -138
256 -150 275 -43 68 -85 160 -85 185 0 15 15 41 36 65 60 66 374 340 390 340
2 0 21 -35 43 -77z m-3772 -155 c39 -68 122 -215 184 -328 61 -113 117 -213
123 -222 8 -14 -7 -35 -93 -125 -168 -176 -323 -315 -335 -302 -24 26 -263
429 -393 661 -5 10 417 438 432 438 6 0 43 -55 82 -122z m8048 -122 c-10 -282
-35 -820 -44 -931 -10 -124 -25 -159 -89 -214 l-51 -42 -196 390 c-107 215
-195 393 -195 397 0 20 560 595 572 588 6 -4 7 -75 3 -188z m-5843 -116 c39
-69 108 -199 155 -288 l86 -164 -104 -105 c-136 -137 -279 -265 -352 -315 -56
-38 -59 -39 -78 -23 -36 34 -69 115 -69 173 0 57 154 712 185 785 16 38 62 69
94 64 8 -1 45 -58 83 -127z m4401 -235 c154 -306 217 -447 217 -485 0 -12 -84
-105 -212 -238 -117 -120 -216 -220 -220 -223 -9 -4 -13 5 -239 480 -88 183
-159 338 -159 343 0 14 270 296 359 375 47 40 88 70 92 66 4 -5 77 -147 162
-318z m2740 98 c143 -295 272 -620 265 -664 -5 -27 -189 -227 -399 -434 l-192
-189 -18 41 c-10 23 -25 69 -34 102 l-17 60 61 203 c124 415 190 710 213 946
7 72 15 132 18 132 4 0 50 -89 103 -197z m-4549 5 c29 -46 53 -92 53 -103 2
-100 -51 -614 -73 -719 -6 -26 -14 -14 -96 130 -92 162 -188 348 -228 441
l-22 53 42 50 c33 39 254 229 268 230 1 0 26 -37 56 -82z m-1601 -85 c119
-204 185 -326 279 -513 85 -170 87 -175 71 -200 -37 -57 -104 -127 -198 -208
-55 -47 -124 -108 -153 -136 l-54 -51 -16 24 c-39 55 -411 808 -412 831 0 18
18 43 63 86 123 120 330 303 337 299 5 -3 42 -62 83 -132z m-3807 -55 c15 -29
80 -141 144 -248 65 -108 138 -236 163 -285 l45 -89 -31 -44 c-36 -50 -252
-262 -267 -262 -5 0 -16 10 -23 23 -91 149 -341 563 -361 598 l-26 46 92 98
c73 78 223 214 235 215 2 0 15 -24 29 -52z m11104 11 c0 -5 40 -99 90 -209 49
-110 105 -244 125 -297 l37 -96 -149 -150 c-206 -208 -466 -449 -474 -440 -11
13 -156 363 -203 493 l-46 123 203 206 c111 113 247 247 301 298 90 84 116
100 116 72z m-3002 -447 c71 -141 153 -310 181 -374 l52 -117 -22 -43 c-20
-40 -223 -258 -241 -258 -11 0 -53 86 -180 369 -167 372 -188 420 -188 439 0
26 60 97 157 189 74 69 90 80 99 68 6 -9 70 -131 142 -273z m-7159 -162 c-9
-409 -16 -559 -28 -578 -8 -13 -130 178 -271 425 l-92 162 56 62 c77 86 335
324 341 317 2 -2 -1 -176 -6 -388z m3995 236 c32 -54 117 -214 191 -355 73
-141 146 -280 162 -309 l28 -53 -146 -142 c-140 -137 -309 -287 -323 -287 -4
0 -18 24 -31 53 -49 111 -257 538 -330 677 l-76 145 143 141 c79 77 178 168
222 202 91 73 72 81 160 -72z m1622 -190 c162 -334 247 -532 238 -559 -7 -22
-350 -374 -358 -366 -17 17 -169 329 -191 391 l-27 77 17 73 c46 190 180 638
191 638 3 0 61 -114 130 -254z m-3336 39 c207 -403 249 -487 293 -588 l47
-109 -29 -36 c-59 -75 -430 -417 -452 -417 -6 0 -84 143 -175 318 -91 175
-192 367 -224 425 l-59 107 22 24 c58 62 486 445 492 439 2 -2 40 -75 85 -163z
m8603 80 c5 -31 -4 -110 -28 -246 -19 -111 -36 -203 -38 -206 -8 -8 -107 171
-124 223 -23 75 -14 97 84 192 47 45 88 82 93 82 4 0 10 -20 13 -45z m-4178
-442 c70 -153 152 -340 182 -415 l55 -137 -48 -63 c-57 -75 -404 -430 -416
-426 -5 2 -59 125 -122 273 -62 149 -135 322 -163 385 -28 63 -56 134 -63 158
-11 41 -10 45 20 80 45 53 413 422 421 422 3 0 64 -125 134 -277z m-7148 17
c220 -372 254 -433 248 -451 -6 -17 -292 -299 -304 -299 -3 0 -13 12 -22 28
-131 221 -190 322 -250 432 l-71 132 68 70 c81 82 244 231 249 226 1 -2 38
-64 82 -138z m9843 70 c7 -19 40 -95 72 -167 66 -153 122 -308 133 -372 l7
-44 -193 -191 c-190 -188 -388 -366 -406 -366 -10 0 -153 333 -207 482 l-35
97 83 93 c113 127 518 520 526 511 4 -5 13 -24 20 -43z m1137 -87 c24 -59 69
-167 99 -240 30 -73 63 -171 75 -218 21 -91 29 -249 13 -277 -13 -23 -378
-372 -479 -458 -47 -40 -89 -69 -94 -64 -4 5 -25 56 -46 114 -30 84 -233 613
-251 656 -7 16 622 611 634 599 2 -2 24 -52 49 -112z m-7034 -290 c100 -203
196 -401 211 -441 l30 -73 -85 -85 c-102 -104 -344 -324 -356 -324 -15 0 -438
893 -431 909 2 4 72 71 157 150 151 139 263 231 282 231 5 0 92 -165 192 -367z
m-1827 -70 c76 -142 176 -334 223 -427 l85 -170 -141 -136 c-198 -192 -443
-420 -452 -420 -7 0 -265 529 -298 611 -15 36 -14 41 35 170 27 74 68 194 91
267 51 166 91 224 214 306 45 30 87 55 93 55 7 1 74 -115 150 -256z m5853 27
c20 -50 31 -98 31 -129 0 -56 -33 -252 -83 -501 l-33 -165 -21 40 c-22 44
-168 395 -203 488 l-22 58 48 57 c71 84 222 232 238 232 9 0 27 -32 45 -80z
m-8434 -93 c89 -135 234 -410 235 -443 0 -27 -105 -150 -206 -239 -96 -85
-195 -169 -210 -178 -8 -4 -42 45 -94 136 -45 78 -123 204 -172 279 l-90 138
70 77 c117 131 357 353 380 353 4 0 43 -55 87 -123z m6852 26 c3 -10 60 -141
125 -292 119 -272 188 -447 209 -523 10 -38 8 -42 -28 -86 -49 -62 -304 -322
-315 -322 -4 0 -8 4 -8 9 0 6 -65 153 -144 328 -78 175 -162 366 -186 425
l-43 107 27 35 c67 89 323 335 349 336 4 0 10 -8 14 -17z m-3090 -398 c157
-315 263 -547 263 -577 0 -8 -26 -43 -57 -77 -64 -71 -412 -386 -419 -379 -17
18 -375 760 -398 826 l-29 84 59 60 c66 68 416 389 420 385 1 -1 74 -146 161
-322z m9839 120 c41 -110 89 -246 105 -303 l31 -102 -25 -43 c-43 -72 -154
-203 -296 -349 l-136 -140 -89 233 c-87 227 -137 372 -150 435 -6 28 0 37 81
120 48 50 152 145 230 212 78 67 145 127 148 133 4 5 11 9 17 7 5 -2 43 -93
84 -203z m-7427 16 l60 -116 -50 -57 c-27 -31 -84 -84 -125 -118 -74 -59 -174
-118 -174 -103 0 9 46 163 120 402 l54 173 27 -32 c15 -18 54 -85 88 -149z
m-969 -22 c-16 -96 -38 -221 -49 -279 -12 -58 -26 -134 -32 -170 -17 -99 -18
-100 -45 -55 -100 164 -176 355 -155 393 19 34 300 297 308 288 1 -1 -11 -81
-27 -177z m-4382 98 c17 -29 34 -66 38 -83 8 -42 -68 -680 -85 -711 -8 -15
-178 266 -257 426 l-56 112 28 42 c15 23 53 65 83 94 58 54 202 171 211 172 3
1 20 -23 38 -52z m8769 -249 c80 -198 133 -355 133 -391 0 -32 -75 -112 -285
-307 l-184 -171 -55 108 c-29 59 -63 139 -75 178 -27 86 -22 114 56 335 69
198 111 263 234 365 50 42 94 74 96 71 3 -3 39 -88 80 -188z m1036 100 c59
-138 257 -677 257 -700 0 -20 -219 -246 -410 -423 -95 -88 -178 -163 -185
-167 -25 -15 -295 708 -295 790 0 22 27 54 128 153 157 156 452 429 462 429 4
0 24 -37 43 -82z m-2667 -75 c20 -43 89 -208 154 -368 65 -159 127 -311 138
-336 19 -43 19 -51 6 -114 l-14 -68 -213 -216 c-116 -119 -214 -215 -217 -214
-14 5 -278 663 -320 800 l-31 103 47 62 c39 52 401 428 411 428 2 0 20 -35 39
-77z m-1601 -260 c54 -110 282 -608 318 -695 9 -22 7 -31 -15 -60 -52 -68
-222 -253 -232 -253 -16 0 -164 300 -304 615 l-122 275 138 132 c75 72 140
128 144 125 4 -4 37 -66 73 -139z m-5911 -148 c72 -132 145 -263 161 -291 l29
-52 -51 -58 c-69 -79 -381 -389 -386 -384 -2 3 -54 95 -116 205 -144 257 -214
400 -206 424 10 32 146 168 285 286 74 62 139 113 143 111 5 -1 68 -109 141
-241z m4301 223 c4 -13 68 -147 143 -298 109 -221 135 -282 133 -311 -1 -20
-19 -131 -40 -247 -27 -148 -45 -221 -60 -246 -23 -37 -211 -220 -218 -212 -2
2 -40 80 -83 173 -43 92 -113 245 -157 338 -87 186 -163 373 -163 402 0 10 26
47 57 82 57 64 362 341 375 341 4 0 10 -10 13 -22z m6821 -40 c-3 -18 -13 -82
-21 -143 -31 -216 -166 -821 -195 -874 -10 -19 -160 363 -199 508 l-31 115 24
30 c47 61 123 136 258 256 76 66 140 125 143 131 14 22 27 7 21 -23z m1343
-143 c18 -49 57 -157 87 -238 30 -81 68 -200 84 -264 l30 -116 -56 -76 c-72
-95 -130 -164 -269 -316 -60 -66 -131 -145 -158 -174 -26 -30 -49 -52 -50 -50
-11 14 -167 478 -167 495 0 11 23 76 50 145 28 68 83 210 121 314 80 213 97
251 129 280 34 31 154 103 161 96 3 -3 20 -46 38 -96z m-9951 58 c18 -15 349
-666 417 -819 l22 -50 -309 -290 c-170 -159 -313 -290 -317 -292 -4 -1 -19 23
-33 55 -31 70 -301 667 -351 776 l-36 78 137 141 c148 152 429 418 442 418 4
0 17 -8 28 -17z m-1004 -168 c85 -149 137 -258 160 -333 l14 -50 -52 -64 c-76
-92 -278 -279 -291 -268 -5 5 -37 63 -70 129 l-60 122 16 42 c115 315 204 557
205 557 1 0 36 -61 78 -135z m11926 -240 c82 -256 143 -472 167 -595 15 -81
15 -89 0 -111 -39 -55 -218 -246 -322 -343 l-113 -106 -26 77 c-38 117 -228
735 -233 758 -3 14 16 44 58 95 105 125 392 451 395 448 1 -2 35 -102 74 -223z
m-8009 78 c37 -47 189 -360 335 -688 l53 -120 -33 -35 c-18 -19 -105 -114
-193 -210 -89 -96 -188 -202 -222 -234 -53 -52 -61 -57 -67 -40 -12 35 -101
247 -167 399 -35 83 -79 192 -96 243 l-31 92 29 73 c65 164 181 406 256 535
l48 83 24 -23 c13 -12 42 -46 64 -75z m3936 20 c179 -442 287 -745 278 -780
-9 -38 -405 -434 -432 -433 -5 0 -28 46 -52 103 -177 409 -213 494 -246 590
l-38 108 69 71 c80 81 394 368 403 368 4 0 12 -12 18 -27z m-2413 -279 c125
-303 227 -574 229 -610 2 -15 -45 -71 -162 -193 -90 -95 -167 -169 -172 -164
-17 18 -369 854 -369 877 0 25 106 150 220 260 67 64 124 116 129 116 4 0 60
-129 125 -286z m-3167 -71 c61 -126 156 -331 213 -456 l103 -228 -15 -33 c-17
-36 -350 -390 -417 -444 l-41 -33 -30 47 c-16 26 -64 128 -106 228 -42 99
-123 280 -179 401 -146 313 -139 281 -76 353 47 54 124 125 351 326 41 36 78
66 81 66 3 0 55 -102 116 -227z m6788 -29 c36 -104 92 -274 125 -378 l60 -189
-125 -132 c-146 -155 -472 -475 -483 -475 -4 1 -67 181 -140 401 l-133 401
223 217 c310 302 390 374 400 357 4 -7 37 -98 73 -202z m-1986 141 c11 -14 32
-57 46 -95 l27 -70 -31 -39 c-55 -69 -277 -268 -287 -258 -4 4 101 291 136
372 12 28 28 65 35 83 17 39 46 42 74 7z m-8309 -138 c-33 -204 -42 -267 -64
-442 -14 -104 -27 -221 -31 -260 -9 -91 -30 -173 -62 -243 l-26 -57 -17 70
c-23 95 -76 224 -176 428 l-84 171 63 65 c98 102 256 252 332 316 80 68 83 66
65 -48z m1638 -314 c83 -170 179 -371 212 -448 l61 -140 -165 -162 c-91 -90
-170 -163 -175 -163 -12 0 -85 143 -146 285 -26 61 -90 196 -142 300 -89 178
-133 280 -133 311 0 19 118 143 230 241 52 45 98 83 101 83 3 0 73 -138 157
-307z m-704 87 c32 -50 57 -92 55 -94 -2 -1 -55 -47 -117 -100 -63 -54 -116
-95 -119 -93 -15 16 97 377 117 377 3 0 32 -41 64 -90z m5253 -260 c77 -173
159 -366 183 -428 l44 -114 -20 -36 c-28 -53 -250 -279 -262 -267 -12 13 -228
525 -305 725 l-60 155 23 40 c13 22 37 57 54 79 43 53 188 178 197 169 4 -5
70 -150 146 -323z m1269 244 c-9 -44 -27 -142 -41 -219 -42 -228 -86 -450 -91
-454 -6 -6 -110 215 -134 284 -11 33 -23 85 -26 115 -6 54 -5 56 41 110 47 55
257 251 263 245 2 -1 -4 -38 -12 -81z m1094 -171 c101 -223 180 -416 215 -521
l17 -53 -28 -37 c-52 -69 -379 -382 -388 -371 -3 4 -105 299 -222 642 -35 104
-64 197 -64 207 0 10 30 50 68 91 69 74 280 269 292 269 3 0 53 -102 110 -227z
m3984 5 c101 -317 176 -591 176 -645 0 -28 -118 -170 -333 -402 -89 -96 -167
-181 -174 -190 -8 -11 -15 -13 -21 -6 -16 16 -163 487 -221 705 -35 131 -42
108 69 246 61 76 431 494 437 494 1 0 32 -91 67 -202z m-9637 -215 c138 -282
277 -581 303 -655 13 -35 12 -39 -15 -78 -16 -23 -112 -130 -213 -238 -102
-108 -232 -250 -290 -314 -58 -65 -108 -118 -112 -118 -11 0 -100 195 -155
343 -30 81 -112 286 -181 455 l-127 307 104 99 c141 134 531 486 539 486 4 0
70 -129 147 -287z m1788 0 c118 -255 195 -436 202 -476 4 -29 -3 -43 -59 -117
-63 -84 -372 -410 -380 -400 -11 13 -251 607 -251 620 -1 26 374 560 392 560
5 0 47 -84 96 -187z m6924 -8 c16 -49 34 -114 39 -143 l10 -54 -57 -76 c-76
-102 -183 -229 -321 -382 -62 -69 -142 -160 -178 -202 -36 -43 -69 -75 -73
-72 -19 11 -7 44 62 174 104 195 356 723 434 905 l17 40 19 -50 c11 -27 32
-90 48 -140z m-2179 82 c0 -2 23 -66 51 -142 88 -244 137 -387 172 -505 54
-181 55 -158 -15 -246 -75 -96 -296 -324 -313 -324 -6 0 -19 8 -28 18 -13 14
-137 317 -285 697 l-32 80 218 212 c189 185 232 224 232 210z m-5295 -27 c22
-69 -60 -150 -97 -96 -15 21 -8 55 18 85 30 36 69 41 79 11z m1527 -147 c101
-218 329 -765 325 -777 -14 -35 -511 -615 -536 -624 -4 -1 -22 44 -40 100 -61
188 -160 466 -231 648 -70 180 -80 223 -58 263 16 31 316 354 395 427 36 33
74 60 83 60 12 0 31 -30 62 -97z m7788 2 c39 -123 39 -193 1 -356 -16 -68 -44
-203 -62 -299 l-33 -175 -108 -109 c-60 -60 -111 -107 -113 -104 -10 9 -114
377 -139 492 -35 154 -34 162 20 237 45 62 381 409 396 409 4 0 21 -43 38 -95z
m-6466 39 c4 -14 33 -90 65 -168 60 -142 103 -270 115 -338 6 -36 5 -38 -107
-150 -106 -107 -223 -206 -231 -197 -8 8 -206 519 -206 531 0 14 335 348 349
348 5 0 12 -12 15 -26z m995 -229 c43 -116 113 -311 155 -435 l76 -225 -246
-245 -246 -244 -35 84 c-73 181 -133 349 -154 433 -19 76 -20 94 -10 130 14
46 301 630 340 690 13 21 28 34 32 30 5 -5 44 -103 88 -218z m-4024 -35 c57
-144 77 -185 214 -454 39 -76 89 -185 111 -242 l40 -104 -24 -47 c-13 -27 -61
-90 -107 -141 l-82 -92 -214 2 -214 3 -58 145 c-32 80 -83 206 -114 280 -30
74 -67 174 -82 222 l-27 88 58 71 c74 91 425 432 434 422 4 -5 33 -73 65 -153z
m6480 -151 c-110 -455 -189 -724 -256 -874 l-22 -50 -28 60 c-67 151 -134 355
-166 510 l-17 83 44 58 c58 78 193 217 360 373 124 115 135 123 138 99 2 -14
-22 -131 -53 -259z m1383 -211 c96 -298 105 -331 137 -479 l24 -114 -41 -55
c-163 -218 -605 -747 -623 -743 -22 4 -225 811 -225 896 0 42 155 229 484 585
83 89 153 162 156 162 4 0 43 -114 88 -252z m3338 -151 c80 -293 100 -378 93
-401 -5 -16 -48 -67 -101 -120 -52 -50 -151 -152 -223 -226 l-129 -135 -9 45
c-6 25 -36 151 -68 280 -66 269 -96 451 -81 484 29 60 397 464 411 451 3 -4
52 -174 107 -378z m-6227 150 c120 -273 196 -461 221 -551 l21 -77 -37 -47
c-82 -101 -227 -262 -328 -361 l-105 -105 -11 28 c-5 15 -10 30 -10 34 0 4
-41 133 -90 287 -138 428 -175 562 -158 583 58 75 134 154 257 268 79 74 147
134 150 134 3 0 44 -87 90 -193z m-2374 -36 c75 -170 125 -307 125 -340 0 -27
-99 -139 -194 -221 -103 -88 -115 -96 -121 -78 -2 7 -47 130 -99 272 l-95 259
27 35 c41 54 265 263 273 254 4 -4 42 -85 84 -181z m-1488 -156 c120 -282 248
-604 242 -609 -3 -3 -81 3 -174 14 -94 11 -251 26 -349 35 -99 9 -181 17 -182
18 -10 11 -67 213 -71 252 -5 47 -3 53 37 105 61 79 393 411 401 402 4 -4 47
-101 96 -217z m7757 62 c51 -179 105 -403 112 -464 6 -49 5 -53 -39 -110 -86
-113 -480 -524 -491 -512 -2 2 -18 56 -34 119 -17 63 -54 202 -82 308 l-52
193 19 34 c40 75 509 584 524 568 4 -5 23 -65 43 -136z m-5599 51 c-2 -13 -25
-111 -49 -218 -47 -208 -76 -352 -76 -379 0 -19 1 -19 145 172 57 76 106 134
108 130 12 -20 112 -277 137 -350 16 -45 34 -107 40 -137 11 -54 10 -57 -18
-98 -76 -111 -267 -290 -300 -282 -14 4 -31 42 -72 162 -29 86 -93 261 -141
389 -72 188 -89 241 -89 286 0 53 1 55 73 131 71 76 225 214 240 215 4 1 5 -9
2 -21z m-3862 -240 c107 -237 167 -376 167 -387 0 -5 -89 -11 -197 -15 -109
-3 -290 -11 -403 -17 -223 -12 -270 -6 -251 29 22 41 178 209 371 399 113 112
208 203 211 203 3 0 49 -96 102 -212z m6521 -270 c63 -190 120 -377 126 -413
14 -85 3 -165 -49 -368 -30 -120 -47 -166 -76 -212 -38 -60 -120 -143 -131
-132 -3 3 -54 144 -114 314 -59 169 -144 409 -189 532 -79 218 -80 224 -63
247 39 52 368 390 374 385 4 -3 59 -162 122 -353z m-3798 182 c25 -58 73 -172
106 -254 l60 -150 -28 -58 c-16 -33 -34 -64 -40 -69 -9 -7 -62 0 -171 21 -87
17 -216 40 -288 51 -71 11 -130 21 -131 22 -1 1 -9 17 -18 35 l-17 32 117 128
c180 195 348 362 356 354 4 -4 28 -54 54 -112z m2205 -77 c17 -54 63 -186 101
-293 71 -199 158 -486 158 -519 0 -10 -18 -45 -40 -78 -43 -65 -224 -266 -243
-271 -7 -1 -77 26 -157 61 l-145 63 -73 205 c-70 195 -112 336 -127 426 l-7
42 154 154 c148 149 322 307 338 307 5 0 23 -44 41 -97z m6240 -227 c38 -153
76 -329 85 -391 l17 -113 -56 -79 c-52 -72 -151 -185 -334 -382 l-68 -73 -43
184 c-91 391 -92 422 -8 676 69 209 111 276 236 387 47 41 89 73 94 72 4 -2
39 -128 77 -281z m-7652 -105 c67 -161 124 -303 127 -315 5 -21 3 -22 -48 -16
-51 6 -447 113 -478 129 -18 10 -43 133 -35 176 3 17 27 56 54 87 48 56 250
243 256 236 1 -2 57 -135 124 -297z m6367 144 c-17 -80 -34 -145 -38 -145 -3
0 -12 31 -19 70 -10 55 -10 79 0 110 11 37 64 110 80 110 4 0 -7 -65 -23 -145z
m-8832 41 c46 -103 50 -96 -53 -96 -50 0 -93 4 -96 10 -5 8 109 140 122 140 2
0 14 -24 27 -54z m6506 -131 c22 -61 192 -725 205 -802 3 -22 2 -57 -3 -77
-12 -43 -355 -499 -504 -670 l-35 -40 -42 170 c-23 93 -85 326 -137 517 l-95
348 33 38 c18 22 84 97 147 167 63 71 143 167 178 214 61 82 211 216 224 202
4 -4 17 -34 29 -67z m-1612 -167 c76 -179 295 -745 316 -817 9 -30 16 -66 16
-79 0 -39 -89 -156 -276 -361 -11 -12 -46 4 -223 100 l-210 114 -26 105 c-14
58 -55 208 -91 334 l-65 229 29 31 c15 17 73 81 127 141 119 132 326 345 336
345 3 0 34 -64 67 -142z m2800 -73 c50 -172 92 -360 92 -409 0 -36 -145 -204
-475 -553 -83 -87 -168 -179 -191 -205 l-40 -46 -47 186 c-26 103 -54 222 -62
265 -28 146 -34 130 136 343 83 104 176 218 207 254 211 245 316 360 322 353
4 -4 30 -89 58 -188z m946 -50 c73 -302 81 -448 30 -545 -23 -43 -436 -489
-461 -497 -6 -2 -14 11 -18 29 -4 18 -33 141 -66 272 -32 132 -64 274 -70 317
l-12 78 58 76 c123 161 471 501 485 474 4 -8 28 -99 54 -204z m-9324 115 c58
-5 242 -16 410 -25 168 -9 357 -20 420 -26 63 -5 207 -14 320 -19 394 -18 582
-51 1245 -218 622 -157 954 -275 2030 -719 472 -195 532 -221 731 -325 84 -43
205 -102 270 -132 171 -76 335 -177 894 -550 399 -266 684 -467 826 -582 22
-17 17 -24 -18 -24 -56 0 -296 -29 -458 -56 -452 -75 -937 -215 -1515 -439
-688 -266 -997 -378 -1768 -641 -681 -232 -952 -315 -1302 -403 -935 -233
-1852 -288 -2495 -149 -269 58 -564 175 -913 364 -249 136 -624 371 -679 427
-13 13 -68 59 -123 103 -55 43 -219 177 -365 299 -323 268 -547 443 -689 535
-21 14 -22 18 -12 57 6 22 18 44 27 47 27 10 44 7 44 -10 0 -26 31 -70 62 -89
16 -9 67 -32 114 -50 99 -39 88 -52 104 125 6 63 13 130 16 148 l5 32 -166 0
-165 0 0 55 0 55 149 0 c118 0 151 3 161 15 8 10 10 36 5 91 l-8 76 -66 -6
c-36 -3 -110 -9 -164 -12 l-98 -7 3 79 3 79 155 3 156 2 -7 68 c-5 37 -8 75
-8 85 -1 12 -9 17 -33 17 -29 0 -148 -17 -260 -36 -34 -6 -38 -4 -38 14 0 22
21 28 222 68 75 14 87 20 90 38 3 20 -26 153 -35 162 -2 3 -65 -8 -138 -25
-210 -45 -195 -44 -218 -12 -11 15 -29 51 -40 79 l-20 51 27 -5 c16 -3 77 9
150 30 68 20 132 36 143 36 21 0 23 16 13 94 l-7 46 -36 -6 c-20 -3 -96 -19
-168 -35 -73 -16 -139 -29 -147 -29 -8 0 -24 16 -35 36 -12 20 -25 34 -28 30
-6 -6 -73 100 -73 115 0 4 28 10 63 13 84 10 270 46 279 54 3 4 3 26 -1 50
-11 54 -73 115 -109 106 -13 -2 -90 -33 -170 -68 -133 -57 -149 -62 -164 -48
-28 24 -80 182 -60 182 4 0 35 26 68 58 68 66 152 117 269 161 689 261 1074
368 1565 435 496 68 885 115 1070 129 105 8 593 6 690 -3z m11356 -396 c-52
-214 -97 -405 -101 -424 -4 -19 -10 -39 -13 -44 -6 -11 -53 167 -82 312 -29
150 -27 176 19 246 36 55 262 308 269 301 2 -1 -40 -178 -92 -391z m-7462 234
c26 -69 89 -309 83 -315 -5 -5 -360 128 -372 139 -7 7 35 53 120 133 71 68
133 121 137 117 3 -4 18 -37 32 -74z m8610 -348 c59 -253 89 -405 105 -538
l10 -77 -44 -82 c-53 -101 -133 -220 -268 -400 -56 -76 -110 -149 -119 -162
-10 -14 -20 -23 -23 -20 -2 3 -23 106 -45 230 -22 123 -52 283 -65 356 l-25
132 105 246 c148 346 236 526 270 553 16 13 31 19 35 15 4 -4 32 -118 64 -253z
m-2237 -392 c5 -100 4 -108 -17 -140 -36 -51 -143 -180 -260 -313 -58 -66
-113 -131 -123 -145 -21 -30 -29 -23 -56 59 -33 101 -29 126 36 243 75 136
172 343 315 668 l20 45 39 -155 c28 -109 41 -186 46 -262z m2967 350 c4 -24
36 -169 71 -323 56 -245 91 -421 108 -546 5 -31 -4 -53 -53 -141 -32 -57 -132
-214 -222 -348 -143 -216 -163 -241 -166 -215 -7 76 -66 491 -98 683 -18 117
-34 232 -34 255 0 46 9 63 136 272 43 72 115 192 159 268 44 75 83 137 86 137
4 0 9 -19 13 -42z m-8305 -85 c37 -131 74 -284 68 -289 -3 -4 -336 153 -347
163 -6 6 227 233 239 233 5 0 22 -48 40 -107z m1549 -58 c48 -139 201 -643
231 -759 25 -96 26 -127 5 -169 -15 -30 -116 -181 -135 -201 -4 -5 -72 33
-153 85 l-144 94 -17 75 c-10 41 -44 158 -77 260 -33 102 -68 222 -79 267 -19
82 -19 83 0 120 25 50 56 88 197 244 77 84 120 125 125 117 4 -7 25 -67 47
-133z m4506 102 c3 -13 35 -161 71 -330 85 -398 85 -447 10 -759 -13 -53 -29
-107 -36 -120 -33 -63 -123 -186 -228 -312 l-115 -139 -9 39 c-4 21 -30 176
-57 344 -27 168 -63 381 -79 474 -17 93 -31 201 -31 241 0 71 1 75 47 136 25
35 69 91 96 124 58 69 308 325 318 325 4 0 9 -10 13 -23z m-2388 -333 c34
-137 72 -299 84 -361 l22 -111 -113 -129 c-63 -71 -215 -247 -339 -392 -124
-144 -239 -278 -256 -298 -38 -43 -28 -65 -88 203 -57 252 -85 406 -92 509
l-6 80 145 161 c236 261 558 595 570 591 7 -2 39 -116 73 -253z m-1096 -146
c23 -90 51 -211 62 -270 l21 -107 -49 -68 c-108 -151 -499 -573 -514 -556 -4
5 -23 69 -43 143 -32 120 -46 184 -61 285 -2 19 5 47 19 76 22 43 164 228 394
513 53 65 100 125 106 132 5 8 13 14 16 14 3 0 25 -73 49 -162z m6515 -163
c19 -93 39 -218 46 -277 l12 -106 -73 -139 c-111 -210 -305 -532 -315 -521 -1
2 -10 71 -19 153 -9 83 -30 232 -46 333 -32 198 -36 246 -20 288 23 59 236
384 314 478 l41 49 12 -44 c8 -24 29 -120 48 -214z m-4779 128 c-4 -27 -9 -68
-12 -93 -9 -67 -49 -222 -109 -425 -30 -99 -58 -196 -63 -215 l-9 -35 -11 40
c-46 169 -82 345 -82 402 0 54 69 149 229 316 30 31 57 57 59 57 2 0 1 -21 -2
-47z m-3208 -54 c18 -46 55 -149 82 -229 67 -195 70 -195 -179 -49 -105 61
-191 115 -189 120 8 21 232 249 242 246 6 -2 26 -41 44 -88z m4341 -271 c40
-185 69 -344 127 -718 l47 -305 -128 -175 c-117 -159 -224 -297 -304 -390
l-29 -35 -6 25 c-4 14 -38 232 -76 485 -39 253 -82 524 -96 603 -13 78 -21
148 -17 155 31 53 427 497 443 497 4 0 21 -64 39 -142z m1565 -30 c54 -274 86
-464 86 -513 0 -54 -25 -119 -67 -174 -45 -58 -185 -275 -238 -367 -60 -106
-140 -196 -154 -175 -9 14 -112 629 -111 669 0 34 29 85 112 197 40 56 131
190 202 298 71 108 132 197 136 197 4 0 19 -60 34 -132z m759 5 c3 -21 38
-227 77 -458 84 -496 85 -462 -22 -641 -39 -65 -129 -220 -201 -344 -71 -124
-146 -250 -165 -280 -34 -53 -35 -54 -43 -30 -4 14 -22 153 -38 310 -17 157
-45 390 -63 519 -36 267 -34 310 24 391 18 25 88 128 156 229 137 205 249 354
261 346 5 -2 11 -21 14 -42z m-3044 -290 c-9 -29 -53 -84 -370 -460 -118 -140
-127 -149 -152 -140 -24 8 -25 10 -14 42 7 19 40 67 74 108 34 40 121 156 194
258 72 101 161 222 198 269 l66 85 7 -65 c4 -36 2 -79 -3 -97z m-1970 -138
c57 -250 101 -480 101 -531 0 -42 -19 -82 -70 -146 l-37 -47 -274 206 c-151
113 -275 209 -277 212 -3 9 266 316 391 446 63 66 99 97 106 90 5 -5 32 -109
60 -230z m-850 17 c11 -52 21 -95 21 -98 0 -2 -15 -4 -33 -4 -26 0 -107 39
-136 66 -5 4 17 37 69 103 50 63 49 64 79 -67z m6660 69 c16 -75 68 -383 87
-511 21 -150 14 -182 -78 -342 -39 -67 -123 -218 -187 -333 -134 -240 -208
-356 -215 -334 -8 24 -70 771 -70 839 0 82 23 134 131 296 44 65 108 168 144
228 59 101 145 206 168 206 5 0 14 -22 20 -49z m-2649 -565 c0 -2 -9 -33 -20
-68 -21 -70 -66 -140 -101 -159 -22 -11 -22 -10 -16 35 4 25 14 61 23 79 24
48 114 137 114 113z m-13520 -2916 c625 -35 1105 -114 1605 -265 412 -125 914
-383 1184 -610 113 -95 242 -239 436 -485 249 -317 311 -418 586 -952 203
-396 235 -451 485 -830 419 -636 604 -877 998 -1297 165 -176 290 -317 311
-351 6 -10 -21 -12 -136 -6 -307 15 -558 52 -1059 157 -595 123 -896 206
-1860 511 -857 271 -1790 635 -2810 1095 -146 66 -348 157 -450 203 -633 284
-1001 478 -1545 815 -512 317 -826 537 -1080 756 -67 57 -197 163 -290 236
-193 149 -344 274 -425 350 l-55 52 125 1 126 0 109 -76 c202 -140 279 -162
450 -129 50 10 96 21 104 25 17 9 -52 56 -159 110 -90 45 -180 100 -180 110 0
5 22 13 50 19 77 17 139 0 295 -79 77 -39 148 -70 157 -70 27 0 188 60 263 97
l69 35 -44 24 c-25 12 -89 40 -142 60 -54 21 -98 40 -98 44 0 4 36 21 79 38
l79 31 95 -34 c52 -19 117 -37 144 -40 60 -7 97 13 272 149 68 53 132 96 143
96 24 0 42 44 28 69 -12 23 -50 31 -149 32 -194 1 204 74 549 100 368 27 1312
32 1740 9z m-4595 -900 c184 -43 205 -51 205 -77 0 -25 51 -145 93 -218 195
-338 917 -1053 1697 -1680 310 -250 875 -662 1005 -735 24 -14 116 -73 202
-131 415 -278 968 -568 1291 -676 209 -70 191 -56 -413 315 -1004 615 -1864
1243 -2507 1828 -47 44 -149 136 -226 207 -139 126 -202 193 -238 253 -11 18
-44 51 -74 75 -30 24 -95 82 -145 128 -49 47 -104 98 -120 113 l-31 28 -57
-35 c-32 -19 -60 -35 -63 -35 -2 0 -4 11 -4 25 0 20 11 32 45 53 24 15 43 30
42 34 -1 3 -83 101 -181 217 -99 116 -184 217 -188 225 -9 16 11 15 120 -6 62
-11 72 -19 309 -237 300 -276 625 -541 901 -734 276 -193 820 -532 1149 -715
321 -179 454 -243 1488 -714 321 -146 806 -356 953 -413 40 -16 90 -43 111
-62 46 -39 188 -257 271 -417 32 -61 107 -219 166 -351 106 -239 230 -491 344
-700 33 -60 73 -153 90 -205 33 -108 69 -170 126 -219 63 -54 121 -130 165
-214 34 -65 38 -78 23 -74 -11 3 -46 11 -79 18 -107 21 -294 89 -555 201
l-255 110 -68 -12 c-43 -8 -72 -9 -78 -3 -5 5 -22 34 -37 64 -26 50 -35 58
-112 97 -862 443 -1301 706 -2028 1210 -489 340 -882 651 -1292 1021 -168 153
-566 548 -682 679 -59 66 -110 115 -125 118 -16 5 -39 28 -65 68 -22 35 -138
162 -271 296 -325 329 -711 773 -942 1085 -65 87 -140 183 -168 212 l-50 53
39 -13 c21 -8 120 -33 219 -57z m11238 -1189 c48 -10 90 -20 92 -23 3 -2 -17
-12 -44 -22 l-49 -17 -57 40 c-66 46 -64 47 58 22z"/>
<path d="M25260 30634 c-107 -16 -342 -78 -476 -125 -133 -46 -256 -101 -247
-109 18 -17 151 -53 193 -54 33 0 90 18 210 66 91 36 215 83 275 103 116 38
329 85 386 85 52 0 22 18 -57 35 -84 18 -159 18 -284 -1z"/>
<path d="M24491 30626 c-9 -11 -10 -20 -1 -35 20 -37 74 -21 68 20 -4 29 -48
38 -67 15z"/>
<path d="M27000 30064 c-14 -2 -65 -9 -115 -15 -137 -17 -401 -74 -600 -130
-99 -27 -181 -52 -183 -54 -12 -11 189 -85 232 -85 18 0 110 27 206 61 271 94
498 157 705 194 l40 8 -35 12 c-32 12 -188 18 -250 9z"/>
<path d="M27905 29773 c-102 -8 -301 -37 -410 -59 -179 -36 -575 -140 -575
-150 0 -3 35 -21 78 -41 119 -56 134 -54 477 60 275 91 441 137 548 152 38 5
47 10 47 26 0 17 -7 19 -62 17 -35 -1 -81 -3 -103 -5z"/>
<path d="M28474 29550 c-67 -10 -172 -31 -235 -45 -108 -26 -441 -125 -594
-178 l-70 -24 82 -42 c46 -22 88 -41 94 -41 7 0 84 29 173 64 89 35 287 108
441 162 154 53 294 103 310 110 29 13 29 13 -25 13 -30 -1 -109 -9 -176 -19z"/>
<path d="M28945 29185 c-152 -17 -348 -55 -540 -105 -217 -56 -209 -51 -135
-83 117 -51 119 -51 354 8 339 86 650 145 768 145 55 0 40 15 -37 34 -72 19
-239 19 -410 1z"/>
<path d="M29850 28894 c-14 -2 -65 -9 -115 -15 -147 -17 -371 -66 -577 -125
-106 -30 -194 -57 -196 -59 -6 -6 52 -33 127 -58 84 -28 51 -34 481 82 146 39
333 84 415 101 178 36 255 57 255 70 0 9 -330 12 -390 4z"/>
<path d="M30875 28563 c-94 -5 -370 -36 -388 -42 -15 -6 -3 -15 50 -39 115
-53 127 -53 423 -5 146 24 272 46 280 50 10 4 6 8 -14 14 -34 9 -239 30 -276
27 -14 -1 -47 -3 -75 -5z"/>
<path d="M30055 28444 c-62 -12 -305 -69 -345 -81 -23 -7 138 -91 188 -99 72
-11 487 87 524 124 13 13 -32 37 -109 57 -69 18 -164 18 -258 -1z"/>
<path d="M31925 28250 c-140 -9 -303 -29 -485 -61 -167 -29 -162 -26 -99 -65
118 -74 164 -77 360 -26 64 17 201 42 305 56 104 15 241 36 304 48 129 24 125
32 -23 43 -164 11 -235 12 -362 5z"/>
<path d="M30840 28075 c-80 -18 -199 -47 -265 -63 l-120 -29 122 -61 122 -62
243 59 c134 33 258 62 277 66 l34 7 -29 24 c-51 42 -164 94 -203 93 -20 0
-101 -15 -181 -34z"/>
<path d="M30050 27870 c-243 -71 -480 -160 -480 -179 0 -4 39 -24 86 -45 l85
-39 172 43 c232 58 397 105 486 137 l74 26 -104 53 c-57 29 -115 53 -129 53
-14 -1 -99 -22 -190 -49z"/>
<path d="M32725 27821 l-60 -6 74 -37 c80 -41 95 -43 216 -28 44 5 123 14 175
19 111 12 182 33 159 46 -17 11 -477 16 -564 6z"/>
<path d="M32445 27793 c-141 -16 -343 -47 -353 -53 -9 -4 7 -20 50 -48 100
-64 105 -66 198 -53 74 10 309 60 319 68 3 2 -15 24 -39 48 -41 42 -47 45 -95
44 -27 -1 -63 -4 -80 -6z"/>
<path d="M31660 27670 c-95 -18 -402 -89 -408 -95 -8 -7 154 -99 197 -112 47
-13 57 -12 208 22 305 68 358 82 356 89 -3 12 -133 91 -172 104 -43 15 -64 14
-181 -8z"/>
<path d="M34939 27606 c-2 -2 -89 -6 -194 -10 -199 -6 -452 -30 -765 -72 -247
-33 -503 -75 -513 -84 -14 -12 156 -90 209 -96 37 -4 125 10 349 55 420 84
781 136 1065 153 l45 3 -77 28 c-71 25 -109 33 -119 23z"/>
<path d="M30834 27475 c-154 -39 -456 -134 -491 -154 -22 -12 26 -64 94 -100
l56 -31 66 20 c36 10 149 40 251 65 220 55 430 115 430 124 0 9 -149 88 -197
105 -38 13 -49 12 -209 -29z"/>
<path d="M33105 27375 c-90 -16 -305 -66 -305 -70 0 -9 130 -96 162 -110 32
-13 46 -12 155 10 126 26 324 72 329 78 2 1 -38 26 -89 55 -102 58 -123 61
-252 37z"/>
<path d="M35787 27269 c-385 -19 -834 -78 -1412 -185 -104 -19 -191 -37 -193
-39 -8 -8 147 -116 186 -129 37 -13 53 -14 120 -2 229 42 372 71 372 78 0 5
-12 27 -26 49 -14 23 -23 43 -21 46 3 2 48 -9 101 -26 53 -17 112 -31 131 -31
19 0 112 16 207 35 294 59 679 123 895 150 65 8 143 22 173 32 l55 17 -70 7
c-93 9 -322 8 -518 -2z"/>
<path d="M32465 27239 c-27 -5 -135 -30 -238 -56 -218 -52 -212 -42 -70 -135
l82 -54 233 58 c128 32 241 58 251 58 9 0 17 4 17 10 0 14 -99 90 -145 111
-44 20 -56 21 -130 8z"/>
<path d="M31665 27045 c-133 -31 -283 -80 -363 -118 -83 -40 -101 -83 -58
-142 11 -15 24 -19 60 -17 60 2 262 48 510 115 l200 54 -65 48 c-71 53 -134
85 -164 84 -11 0 -65 -11 -120 -24z"/>
<path d="M37115 27044 c-581 -69 -1121 -159 -1617 -270 -43 -9 -78 -20 -78
-24 0 -16 140 -140 165 -146 21 -5 112 13 319 64 259 64 723 172 1433 333 136
31 228 56 220 61 -23 15 -242 6 -442 -18z"/>
<path d="M33830 26979 c-47 -10 -154 -35 -238 -55 -177 -41 -174 -31 -39 -135
82 -63 89 -67 120 -58 17 5 131 32 252 59 121 28 228 54 239 58 15 6 -2 21
-91 80 -65 43 -119 72 -133 71 -14 0 -63 -9 -110 -20z"/>
<path d="M33080 26801 c-161 -38 -360 -96 -357 -106 2 -5 46 -39 97 -73 111
-76 86 -76 392 0 239 60 232 49 94 143 -91 62 -104 64 -226 36z"/>
<path d="M37761 26769 c-68 -10 -160 -26 -205 -34 -504 -101 -1696 -400 -1696
-426 0 -8 148 -179 154 -179 10 0 427 122 616 180 250 77 815 266 1070 358
151 54 218 83 260 111 23 16 -55 12 -199 -10z"/>
<path d="M35115 26694 c-55 -13 -151 -36 -212 -50 -62 -14 -113 -29 -112 -32
0 -12 188 -167 201 -167 22 0 448 109 447 115 0 3 -38 39 -85 80 -57 51 -93
76 -112 77 -15 1 -72 -10 -127 -23z"/>
<path d="M32480 26638 c-14 -5 -92 -27 -175 -49 -162 -42 -273 -90 -318 -137
l-29 -30 65 -11 c124 -22 257 -8 487 48 63 16 128 32 143 35 15 4 25 11 22 16
-5 8 -118 101 -160 130 -5 4 -21 3 -35 -2z"/>
<path d="M34310 26499 c-129 -33 -239 -64 -243 -68 -23 -23 20 -73 130 -152
l49 -35 100 27 c54 15 180 48 279 74 99 26 182 49 185 52 6 6 -97 99 -149 133
-29 20 -57 30 -80 30 -20 -1 -142 -28 -271 -61z"/>
<path d="M33750 26350 c-84 -17 -399 -106 -407 -114 -6 -6 134 -125 162 -138
34 -15 162 5 358 56 93 25 171 47 173 49 6 5 -84 82 -151 129 l-50 36 -85 -18z"/>
<path d="M35515 26233 c-110 -30 -203 -58 -207 -62 -4 -3 34 -49 86 -100 l93
-93 201 57 202 58 -30 36 c-16 20 -55 64 -87 97 l-58 62 -200 -55z"/>
<path d="M32995 26151 c-71 -21 -152 -47 -180 -58 -46 -19 -50 -24 -53 -56 -3
-29 2 -39 23 -53 22 -14 40 -16 123 -10 86 7 381 52 389 60 5 5 -157 156 -165
155 -4 0 -65 -17 -137 -38z"/>
<path d="M34850 26060 c-151 -38 -283 -73 -294 -78 -16 -7 -8 -19 64 -97 46
-50 89 -91 96 -93 21 -5 530 114 613 144 18 6 -166 194 -189 194 -8 -1 -139
-32 -290 -70z"/>
<path d="M37200 26029 c-203 -24 -523 -98 -788 -184 -100 -32 -140 -50 -135
-58 4 -7 26 -42 50 -80 l43 -67 38 16 c84 36 268 106 447 169 230 82 449 166
501 194 l39 20 -60 -1 c-33 0 -94 -4 -135 -9z"/>
<path d="M34230 25899 c-41 -11 -146 -40 -233 -66 l-158 -46 58 -59 c99 -101
95 -100 204 -83 95 14 427 90 436 99 10 9 -102 128 -143 152 -48 28 -64 29
-164 3z"/>
<path d="M36035 25721 c-71 -26 -147 -56 -168 -67 l-39 -20 49 -64 c78 -104
72 -104 256 -30 102 41 154 66 150 74 -13 21 -114 156 -116 155 -1 -1 -60 -22
-132 -48z"/>
<path d="M33495 25700 c-196 -50 -266 -79 -278 -115 -15 -45 0 -50 156 -50
104 0 178 7 280 24 l137 24 -16 26 c-31 47 -106 131 -118 130 -6 0 -78 -18
-161 -39z"/>
<path d="M35415 25484 c-148 -58 -274 -109 -278 -114 -8 -7 116 -158 142 -174
8 -5 557 218 573 233 10 9 -131 161 -150 161 -10 -1 -138 -48 -287 -106z"/>
<path d="M34840 25254 c-74 -30 -182 -77 -238 -104 l-104 -50 48 -56 c26 -31
64 -69 82 -84 l35 -29 56 21 c65 24 424 177 430 183 6 7 -150 175 -163 175 -6
-1 -72 -26 -146 -56z"/>
<path d="M36525 25225 c-163 -41 -247 -68 -271 -87 -16 -12 4 -78 23 -78 26 0
219 82 298 126 71 40 138 85 125 83 -3 0 -81 -20 -175 -44z"/>
<path d="M36095 25091 c-6 -4 -44 -21 -85 -36 -84 -32 -330 -140 -409 -179
l-51 -26 46 -70 c26 -39 50 -70 53 -70 4 0 103 52 221 116 118 64 247 132 285
151 39 19 72 37 74 39 3 3 -13 22 -34 44 -38 39 -78 52 -100 31z"/>
<path d="M34175 24952 c-160 -83 -252 -141 -299 -190 -27 -29 -28 -34 -22 -86
4 -31 9 -56 12 -56 21 0 620 232 633 246 7 6 -151 164 -164 164 -5 0 -77 -35
-160 -78z"/>
<path d="M35343 24751 c-126 -62 -344 -180 -360 -195 -9 -8 1 -27 44 -78 30
-38 61 -68 67 -68 21 0 158 70 318 162 l157 90 -56 69 c-32 38 -60 69 -63 69
-4 0 -52 -22 -107 -49z"/>
<path d="M36200 24585 c-89 -24 -164 -51 -291 -104 l-75 -31 6 -50 c4 -27 9
-52 12 -55 8 -8 256 125 338 181 83 56 105 73 99 78 -2 2 -42 -7 -89 -19z"/>
<path d="M34685 24389 c-82 -50 -192 -122 -242 -161 -111 -83 -116 -100 -51
-160 23 -21 45 -38 50 -38 4 0 68 35 141 78 73 42 187 106 255 142 67 36 121
69 119 73 -4 13 -112 157 -117 157 -3 0 -72 -41 -155 -91z"/>
<path d="M35625 24337 c-185 -96 -325 -178 -325 -189 0 -6 16 -37 36 -70 l36
-59 38 23 c176 106 409 255 410 261 0 11 -61 97 -69 97 -3 0 -60 -29 -126 -63z"/>
<path d="M35027 23988 c-158 -100 -347 -235 -347 -249 0 -14 71 -109 81 -109
23 0 519 316 518 330 0 3 -23 31 -52 63 l-52 57 -148 -92z"/>
<path d="M35933 23955 c-98 -18 -194 -50 -284 -97 -123 -63 -118 -53 -73 -136
21 -40 42 -72 45 -72 3 0 73 45 155 101 146 99 272 197 273 212 1 10 -30 8
-116 -8z"/>
<path d="M35354 23684 c-170 -113 -263 -198 -295 -268 -17 -36 -4 -71 31 -86
27 -11 35 -9 97 25 37 21 137 84 221 142 l152 104 -22 32 c-12 18 -36 51 -54
74 l-31 42 -99 -65z"/>
<path d="M35955 23524 c-94 -26 -163 -60 -206 -104 -20 -20 -32 -24 -48 -18
-17 6 -42 -7 -127 -68 -117 -85 -156 -132 -158 -193 0 -22 2 -43 6 -46 14 -14
83 32 190 127 62 55 183 146 270 204 129 86 186 128 166 123 -2 0 -43 -12 -93
-25z"/>
<path d="M9930 27142 c0 -15 74 -79 117 -100 21 -11 117 -45 214 -76 214 -69
315 -125 437 -240 95 -92 147 -165 227 -325 75 -150 141 -319 231 -585 41
-121 77 -222 80 -225 11 -10 -7 189 -27 309 -60 346 -176 680 -294 846 -124
175 -324 304 -575 371 -76 20 -127 26 -252 30 -104 4 -158 2 -158 -5z"/>
<path d="M9538 26675 c-274 -52 -529 -186 -723 -380 -158 -157 -235 -280 -300
-480 -147 -447 -35 -911 299 -1250 120 -122 233 -204 381 -276 192 -94 390
-139 607 -139 471 0 945 297 1163 730 46 92 88 212 111 322 23 109 23 313 0
423 -71 330 -253 619 -512 811 -145 108 -273 165 -483 215 -109 27 -149 31
-296 35 -121 2 -192 -1 -247 -11z m459 -171 c364 -75 677 -309 832 -620 80
-160 106 -296 98 -508 -6 -170 -30 -279 -92 -412 -180 -392 -600 -644 -1071
-644 -453 0 -844 235 -1034 623 -118 242 -145 485 -80 738 86 336 348 629 677
758 69 27 236 70 315 81 83 12 258 4 355 -16z"/>
<path d="M9645 26204 c-91 -19 -196 -69 -267 -128 -63 -51 -218 -239 -296
-359 -153 -234 -140 -418 49 -681 85 -118 235 -276 333 -348 93 -69 238 -143
315 -159 83 -18 273 -7 346 20 126 45 208 126 288 286 133 267 156 642 56 939
-42 125 -84 200 -156 276 -76 81 -134 114 -259 146 -114 28 -293 32 -409 8z
m100 -203 c121 -55 163 -190 115 -375 -55 -216 -208 -364 -388 -374 -63 -4
-79 -1 -127 23 -30 14 -70 44 -89 67 -121 141 -72 391 108 556 136 124 260
157 381 103z m335 0 c14 -10 34 -33 44 -52 36 -66 -6 -157 -83 -180 -54 -16
-126 16 -146 65 -36 86 -2 168 78 186 40 9 75 3 107 -19z"/>
<path d="M17276 25504 c-20 -19 -20 -76 -1 -140 8 -28 59 -142 113 -255 119
-245 236 -519 330 -769 176 -471 257 -752 308 -1068 22 -136 30 -469 14 -585
-57 -429 -401 -1238 -740 -1742 -318 -474 -741 -983 -1307 -1577 -555 -583
-1358 -1246 -1963 -1621 -74 -46 -175 -147 -147 -147 26 0 270 81 412 137 572
225 1114 590 1757 1180 678 623 1463 1636 1798 2318 82 169 141 314 250 619
181 510 232 774 210 1098 -26 383 -106 723 -280 1193 -113 303 -225 565 -354
829 -120 245 -193 368 -282 478 -58 72 -86 84 -118 52z"/>
<path d="M2402 23660 c-138 -14 -241 -76 -212 -129 16 -31 52 -35 112 -14 77
26 291 24 458 -5 224 -40 1345 -336 1680 -444 288 -93 623 -231 877 -362 70
-36 128 -64 130 -62 7 7 -123 105 -213 161 -248 156 -779 371 -1323 534 -951
287 -1239 348 -1509 321z"/>
<path d="M38930 23154 c-2 -190 -44 -449 -126 -777 -30 -121 -53 -221 -50
-224 2 -2 35 10 72 27 90 41 132 81 139 134 2 23 12 91 20 153 40 287 37 469
-11 612 -33 98 -43 116 -44 75z"/>
<path d="M38354 22660 c20 -97 28 -278 23 -504 -3 -138 -9 -262 -13 -275 -7
-22 -3 -21 53 17 33 23 72 55 87 72 24 29 26 39 26 123 0 222 -65 456 -156
562 -25 30 -25 30 -20 5z"/>
<path d="M34794 22605 c-9 -36 14 -58 50 -49 23 5 27 11 24 38 -3 27 -7 31
-35 34 -28 3 -33 -1 -39 -23z"/>
<path d="M38004 22085 c3 -27 12 -102 21 -165 8 -63 18 -173 22 -244 l6 -130
69 72 c80 85 83 98 42 238 -29 102 -67 173 -125 235 l-40 44 5 -50z"/>
<path d="M18252 20966 c-24 -126 -16 -148 140 -384 l95 -144 31 39 31 39 -54
115 c-61 131 -118 235 -183 332 -24 37 -46 67 -47 67 -1 0 -7 -29 -13 -64z"/>
<path d="M37705 20182 c4 -26 20 -96 36 -157 109 -412 113 -430 175 -804 12
-70 20 -98 25 -85 21 52 2 326 -37 544 -21 116 -94 430 -120 511 -2 9 -23 21
-45 27 l-41 10 7 -46z"/>
<path d="M30955 17383 c-107 -7 -108 -7 -200 -113 -47 -55 -90 -100 -94 -100
-5 0 -16 30 -25 68 -17 66 -47 112 -73 112 -7 0 -13 -1 -13 -2 0 -2 11 -61 25
-131 l25 -129 -22 -36 c-12 -21 -53 -84 -92 -141 l-70 -103 37 -34 c20 -19 41
-34 46 -34 10 0 138 146 276 315 49 61 129 158 177 217 48 59 88 110 88 113 0
3 -8 4 -17 3 -10 -1 -40 -3 -68 -5z"/>
<path d="M37175 15628 l-37 -43 51 -47 c48 -44 147 -108 169 -108 5 0 -14 35
-42 78 -28 43 -60 97 -70 120 -11 23 -23 42 -27 42 -4 0 -24 -19 -44 -42z"/>
<path d="M32855 15553 c-27 -42 -51 -79 -53 -83 -4 -11 74 -40 109 -40 l32 0
-7 48 c-4 26 -12 70 -19 99 l-12 52 -50 -76z"/>
<path d="M36945 15443 c-33 -19 -61 -36 -63 -37 -2 -2 89 -137 105 -156 4 -4
56 22 86 45 17 12 16 18 -25 98 l-43 86 -60 -36z"/>
<path d="M36638 15262 c-49 -20 -88 -41 -87 -46 0 -6 24 -57 52 -114 l52 -103
70 49 c62 42 70 51 68 77 -3 32 -54 175 -63 174 -3 0 -44 -17 -92 -37z"/>
<path d="M37086 15201 c-25 -26 -36 -44 -30 -53 38 -65 235 -272 285 -298 20
-11 20 -11 3 22 -9 18 -47 85 -84 148 -37 63 -79 139 -94 168 -14 28 -30 52
-34 52 -4 0 -25 -18 -46 -39z"/>
<path d="M36308 15153 c-43 -8 -78 -19 -78 -23 0 -8 90 -272 95 -278 1 -1 126
51 172 73 2 1 -16 56 -38 123 -31 93 -45 122 -57 121 -10 -1 -52 -8 -94 -16z"/>
<path d="M33931 15134 c-6 -14 -11 -44 -11 -67 0 -54 26 -92 104 -151 l59 -46
24 35 c54 80 11 165 -117 230 l-47 24 -12 -25z"/>
<path d="M36780 14963 c-41 -25 -76 -46 -78 -48 -2 -2 40 -83 94 -182 166
-306 276 -469 412 -614 69 -73 183 -169 240 -203 7 -4 -23 48 -67 117 -151
238 -312 530 -442 805 -43 90 -79 165 -81 167 -2 1 -37 -18 -78 -42z"/>
<path d="M34215 14918 c-5 -14 -24 -99 -25 -109 -1 -19 276 -179 310 -179 20
0 -53 91 -150 187 -104 104 -128 121 -135 101z"/>
<path d="M33720 14821 l-12 -81 40 -52 c61 -79 140 -154 151 -143 5 6 32 46
60 90 l51 80 -47 43 c-43 38 -173 121 -214 137 -14 5 -18 -7 -29 -74z"/>
<path d="M36457 14800 c-43 -15 -79 -29 -81 -31 -12 -13 138 -372 286 -683
267 -562 445 -899 593 -1121 92 -137 223 -310 231 -302 2 2 -137 314 -309 693
-316 693 -463 1029 -577 1314 -34 85 -63 156 -63 156 -1 1 -37 -11 -80 -26z"/>
<path d="M34035 14538 c-53 -80 -54 -83 -36 -98 10 -8 75 -61 144 -117 69 -57
128 -103 131 -103 5 0 86 154 86 163 0 6 -258 237 -264 237 -3 0 -30 -37 -61
-82z"/>
<path d="M33402 14592 c-7 -5 -15 -37 -18 -73 l-6 -64 130 -118 130 -119 29
-103 28 -104 47 46 46 46 30 -24 c16 -13 63 -51 103 -85 41 -33 91 -73 111
-88 l36 -27 42 61 c23 33 40 65 38 70 -4 14 -288 270 -299 270 -5 0 -21 -18
-35 -40 -35 -53 -62 -53 -92 1 -22 38 -22 42 -8 64 20 31 20 87 1 125 -18 35
-119 114 -186 146 -49 24 -103 31 -127 16z"/>
<path d="M34416 14222 c-14 -37 -26 -72 -26 -77 0 -25 470 -309 485 -294 1 2
-22 38 -54 79 -82 110 -222 251 -305 309 l-73 50 -27 -67z"/>
<path d="M33150 14202 c-21 -79 32 -179 149 -284 l53 -48 23 28 c45 54 75 105
75 128 0 31 -121 149 -191 187 -73 39 -96 36 -109 -11z"/>
<path d="M32760 14017 c0 -46 31 -127 73 -189 54 -81 178 -229 189 -226 17 6
137 103 135 110 -1 4 -78 80 -172 168 -134 126 -176 160 -197 160 -23 0 -28
-5 -28 -23z"/>
<path d="M33501 13861 c-34 -38 -61 -73 -61 -78 0 -8 128 -123 249 -223 l53
-45 59 65 c32 36 58 68 59 71 0 9 -234 234 -270 259 l-28 20 -61 -69z"/>
<path d="M34216 13849 c-33 -51 -37 -62 -25 -73 157 -146 325 -266 373 -266 9
0 17 15 21 40 6 37 4 43 -37 89 -37 42 -260 248 -285 264 -5 3 -26 -22 -47
-54z"/>
<path d="M32422 13723 c13 -47 41 -104 81 -163 43 -62 169 -220 177 -220 6 0
124 83 143 100 16 15 -198 197 -318 271 -43 27 -82 49 -86 49 -4 0 -3 -17 3
-37z"/>
<path d="M33180 13555 l-65 -65 35 -34 c19 -19 87 -82 150 -141 l115 -107 66
72 66 72 -61 56 c-34 31 -98 92 -142 134 -45 43 -86 78 -91 78 -5 0 -38 -29
-73 -65z"/>
<path d="M33959 13525 c-23 -13 -99 -96 -99 -109 0 -14 395 -336 412 -336 7 0
88 107 88 116 0 12 -293 284 -350 324 -22 16 -29 16 -51 5z"/>
<path d="M34652 13474 c-10 -44 -9 -47 21 -75 89 -83 316 -240 383 -266 39
-15 -13 43 -179 197 -95 88 -183 167 -194 175 -21 14 -22 13 -31 -31z"/>
<path d="M32170 13367 c0 -8 9 -40 20 -71 46 -135 112 -188 195 -156 l26 10
-18 31 c-28 50 -109 135 -160 168 -51 34 -63 37 -63 18z"/>
<path d="M32900 13333 c-8 -3 -40 -24 -70 -46 -30 -23 -57 -42 -59 -44 -7 -4
171 -199 225 -245 49 -43 57 -46 82 -37 70 27 122 76 122 117 0 11 -52 71
-121 140 -119 120 -136 131 -179 115z"/>
<path d="M31588 13289 c-26 -15 -23 -76 7 -136 21 -40 106 -144 200 -242 20
-21 73 -15 139 14 l58 26 -122 129 c-116 123 -228 220 -253 220 -7 0 -20 -5
-29 -11z"/>
<path d="M33593 13164 c-35 -25 -63 -48 -63 -52 0 -17 372 -362 390 -362 6 0
40 23 76 52 l65 52 -113 114 c-127 128 -259 242 -279 242 -8 0 -42 -21 -76
-46z"/>
<path d="M34402 13065 c-24 -30 -41 -59 -38 -64 10 -15 407 -325 531 -414 126
-91 303 -202 311 -195 8 8 -227 240 -471 464 -132 122 -249 231 -259 243 -11
11 -22 21 -25 21 -4 0 -26 -25 -49 -55z"/>
<path d="M32467 13051 c-26 -15 -52 -32 -58 -38 -11 -11 120 -155 219 -239 51
-44 70 -54 88 -50 29 8 115 59 112 67 -5 10 -301 289 -307 289 -3 0 -28 -13
-54 -29z"/>
<path d="M31168 13053 c-14 -3 -18 -15 -18 -54 0 -65 30 -123 114 -221 l66
-77 72 21 c40 11 83 23 96 25 12 3 22 8 22 12 0 12 -226 239 -269 270 -44 31
-50 33 -83 24z"/>
<path d="M30574 12957 c-7 -19 13 -102 36 -147 20 -39 113 -159 167 -217 36
-39 69 -42 168 -17 l65 16 -63 71 c-189 215 -290 307 -338 307 -16 0 -32 -6
-35 -13z"/>
<path d="M33261 12887 l-83 -62 63 -59 c35 -32 126 -112 201 -177 l137 -119
81 62 c44 34 79 64 78 68 -6 13 -377 350 -385 349 -4 0 -46 -28 -92 -62z"/>
<path d="M32002 12822 l-83 -36 93 -94 c51 -51 123 -121 161 -154 l67 -60 86
38 86 39 -138 133 c-200 190 -173 177 -272 134z"/>
<path d="M29564 12805 c-15 -23 -14 -27 9 -79 45 -98 146 -224 265 -332 l47
-41 65 8 c36 5 80 11 98 14 l33 6 -196 202 c-107 111 -210 212 -227 225 -42
29 -73 28 -94 -3z"/>
<path d="M30148 12819 c-55 -32 15 -186 155 -343 l43 -48 102 23 c56 12 102
26 102 30 0 17 -302 318 -334 333 -39 19 -45 19 -68 5z"/>
<path d="M34075 12719 l-60 -61 65 -60 c424 -390 724 -620 980 -751 l115 -60
-85 88 c-198 203 -933 905 -947 905 -5 0 -35 -27 -68 -61z"/>
<path d="M31525 12639 c-44 -16 -86 -32 -94 -34 -17 -7 270 -301 302 -311 18
-6 162 40 182 58 6 5 -50 68 -145 163 -85 85 -157 155 -160 155 -3 -1 -41 -14
-85 -31z"/>
<path d="M32889 12631 l-57 -38 115 -104 c63 -57 149 -131 191 -165 l75 -61
60 18 c32 10 62 20 65 24 12 12 -362 366 -385 364 -4 0 -33 -17 -64 -38z"/>
<path d="M30976 12482 l-69 -17 94 -102 c91 -98 188 -189 233 -218 18 -12 32
-11 104 7 l83 21 -28 31 c-177 196 -286 296 -323 295 -14 0 -56 -8 -94 -17z"/>
<path d="M33746 12448 c-42 -28 -73 -54 -69 -58 29 -26 584 -488 707 -589 341
-280 649 -492 893 -615 84 -42 85 -42 81 -18 -2 10 -84 86 -183 169 -99 83
-373 322 -609 533 -435 386 -719 630 -735 630 -5 0 -43 -23 -85 -52z"/>
<path d="M32458 12406 c-43 -18 -81 -35 -84 -39 -8 -7 68 -82 248 -243 l127
-115 81 41 c44 22 80 44 79 48 -1 7 -327 308 -357 329 -14 9 -32 5 -94 -21z"/>
<path d="M30518 12378 l-97 -20 51 -59 c28 -32 110 -115 183 -183 l132 -125
94 26 c52 14 96 27 99 29 6 7 -343 354 -355 353 -5 -1 -54 -10 -107 -21z"/>
<path d="M30050 12304 c-47 -7 -92 -13 -100 -13 -19 -1 35 -56 260 -264 480
-443 827 -729 1050 -864 159 -96 180 -106 180 -85 0 12 -24 38 -62 68 -105 82
-228 195 -515 475 l-275 268 -87 3 -86 3 53 18 c28 10 52 22 52 25 0 8 -290
295 -350 348 l-35 31 -85 -13z"/>
<path d="M31958 12214 c-48 -15 -78 -30 -78 -39 0 -7 12 -27 26 -44 23 -28
292 -269 348 -312 20 -16 26 -15 109 18 48 19 87 39 87 43 0 4 -78 77 -172
162 -95 86 -182 165 -192 177 -23 26 -31 26 -128 -5z"/>
<path d="M33387 12218 c-37 -22 -58 -62 -41 -77 428 -381 805 -680 1119 -891
140 -94 346 -220 359 -220 17 0 -84 98 -189 183 -217 177 -524 441 -1159 999
-38 33 -41 33 -89 6z"/>
<path d="M31443 12056 c-40 -11 -74 -24 -78 -27 -8 -8 211 -219 329 -316 90
-75 99 -80 129 -73 82 20 127 35 125 42 -5 11 -419 398 -426 397 -4 -1 -39
-11 -79 -23z"/>
<path d="M32911 11971 l-74 -38 134 -114 c542 -464 822 -680 1109 -852 131
-78 289 -161 296 -154 7 7 -78 87 -178 168 -57 46 -345 294 -641 553 -297 259
-546 472 -555 473 -10 1 -50 -15 -91 -36z"/>
<path d="M30950 11948 c-36 -6 -67 -12 -69 -14 -8 -8 112 -133 243 -253 279
-255 741 -648 876 -746 76 -54 248 -151 255 -143 10 9 -334 364 -556 573 -134
127 -329 312 -434 412 -210 202 -188 190 -315 171z"/>
<path d="M32443 11772 c-40 -15 -71 -31 -70 -37 10 -30 468 -410 762 -631 233
-176 448 -307 595 -364 65 -25 71 -33 -90 112 -451 405 -1086 948 -1107 947
-10 0 -51 -13 -90 -27z"/>
<path d="M31896 11601 l-59 -17 231 -206 c280 -249 403 -349 547 -444 130 -85
260 -157 276 -152 18 6 -814 798 -868 826 -28 16 -55 14 -127 -7z"/>
<path d="M21575 19659 c-168 -11 -489 -39 -492 -43 -2 -1 24 -42 58 -89 50
-73 64 -86 82 -82 130 30 1070 120 1572 151 194 12 183 19 -91 55 -102 14
-959 20 -1129 8z"/>
<path d="M20775 19580 c-66 -10 -176 -30 -245 -45 -69 -14 -140 -29 -157 -32
-18 -3 -33 -9 -33 -14 0 -5 32 -45 72 -89 57 -66 75 -80 92 -76 31 9 295 61
411 81 55 10 102 19 104 21 7 6 -103 174 -114 173 -5 0 -64 -9 -130 -19z"/>
<path d="M21408 19243 l-146 -4 5 -59 c5 -48 3 -60 -9 -60 -8 0 -55 20 -104
44 -50 24 -104 47 -121 50 -56 13 -401 -37 -455 -66 -41 -21 -14 -82 47 -109
l43 -19 189 34 c273 50 315 55 553 58 869 12 1775 -18 2305 -78 424 -47 865
-130 1222 -229 417 -115 1293 -410 1556 -524 59 -25 224 -81 240 -81 38 1
-446 258 -678 361 -720 318 -1577 541 -2425 629 -434 45 -614 52 -1360 54
-393 2 -781 1 -862 -1z"/>
<path d="M21316 18814 c8 -134 10 -141 45 -148 18 -3 79 -6 138 -6 212 0 827
-41 1131 -76 450 -50 909 -136 1423 -265 523 -132 1353 -384 1852 -563 l100
-36 -40 36 c-68 60 -243 173 -354 229 -418 209 -1351 526 -2001 679 -505 118
-965 172 -1765 206 -132 5 -306 13 -387 16 l-147 6 5 -78z"/>
<path d="M20786 18867 l-138 -10 7 -81 c11 -135 4 -126 104 -126 117 0 405 20
412 28 4 4 9 51 12 105 l6 97 -132 -2 c-72 -1 -194 -6 -271 -11z"/>
<path d="M20685 18503 c4 -49 10 -91 14 -95 3 -3 72 -10 152 -13 149 -8 283
-1 309 15 10 6 16 33 18 88 l4 79 -32 7 c-18 3 -131 6 -252 6 l-220 0 7 -87z"/>
<path d="M21320 18473 l0 -99 38 -2 c283 -15 868 -103 1252 -188 757 -167
1632 -458 2285 -759 230 -107 425 -189 431 -182 12 11 -179 130 -422 262 -98
54 -190 105 -204 115 -38 25 -324 159 -510 238 -687 290 -1383 494 -2102 617
-216 36 -534 79 -680 91 l-88 7 0 -100z"/>
<path d="M20710 18160 c0 -95 1 -100 23 -105 33 -7 375 -55 397 -55 12 0 21
10 25 30 4 17 18 44 31 60 22 25 23 32 13 52 -18 35 -41 58 -73 75 -26 13
-280 42 -378 43 l-38 0 0 -100z"/>
<path d="M21285 18164 c-22 -14 -31 -23 -21 -20 18 6 19 2 13 -82 l-5 -88 123
-23 c362 -66 958 -241 1350 -396 555 -219 1259 -574 1642 -826 118 -78 216
-139 219 -136 9 8 -224 238 -316 310 -172 137 -355 253 -735 467 -561 315
-1261 597 -1850 744 -104 26 -347 76 -368 76 -7 0 -30 -12 -52 -26z"/>
<path d="M20676 17917 c-3 -23 -8 -69 -12 -103 -6 -58 -5 -61 17 -67 13 -4 39
-7 56 -7 18 0 112 -14 209 -30 97 -17 179 -29 181 -27 5 6 22 201 18 206 -6 6
-142 29 -275 46 -63 8 -131 17 -151 20 -37 5 -37 5 -43 -38z"/>
<path d="M21217 17769 c-16 -56 -25 -105 -20 -109 4 -5 85 -31 178 -59 410
-123 573 -187 882 -346 180 -93 468 -261 613 -358 116 -78 172 -123 349 -280
91 -81 166 -145 168 -143 2 2 -10 32 -25 67 -61 134 -270 368 -482 538 -366
294 -963 602 -1423 735 -83 24 -166 47 -182 50 l-30 7 -28 -102z"/>
<path d="M20620 17693 c0 -27 -3 -58 -6 -71 -6 -20 8 -29 187 -116 107 -51
202 -96 212 -99 14 -5 24 7 50 59 l32 66 -38 33 c-59 51 -161 100 -290 139
-65 20 -125 36 -133 36 -10 0 -14 -13 -14 -47z"/>
<path d="M21141 17497 c-5 -12 -18 -45 -30 -74 l-20 -51 211 -112 c486 -257
755 -440 1016 -694 67 -66 122 -116 122 -112 0 25 -67 145 -121 216 -211 280
-570 555 -1018 779 -148 75 -150 75 -160 48z"/>
<path d="M18734 14834 c-67 -85 -155 -167 -266 -250 l-107 -81 132 -34 c161
-41 250 -44 314 -11 23 12 48 22 54 22 7 0 31 -21 54 -46 l42 -46 169 -29
c704 -122 2152 -256 2524 -235 135 8 196 19 165 29 -89 30 -695 127 -1320 212
-641 87 -990 138 -1224 179 l-195 34 -27 -29 c-33 -36 -86 -59 -134 -59 -19 0
-35 2 -35 4 0 2 11 29 25 59 l24 56 -27 5 c-15 3 -69 13 -119 22 -51 9 -93 18
-93 20 0 2 64 1 143 -3 l142 -6 47 79 c58 98 73 132 64 141 -4 4 -76 9 -160
11 l-153 4 -39 -48z"/>
<path d="M19193 14857 c-10 -17 -73 -211 -69 -215 9 -9 526 -21 907 -22 548 0
762 15 1008 71 109 25 271 79 271 90 0 5 -125 9 -277 9 -354 0 -1001 26 -1716
68 -65 4 -121 4 -124 -1z"/>
<path d="M18140 14385 c-62 -15 -168 -61 -249 -107 -53 -31 -53 -31 -30 -43
40 -21 350 -131 421 -150 100 -27 118 -20 236 91 56 53 102 99 102 103 0 4
-26 14 -57 23 -32 9 -112 31 -178 51 -156 45 -179 48 -245 32z"/>
<path d="M18630 14152 c-138 -117 -145 -134 -68 -157 430 -129 1261 -313 1894
-419 919 -155 1549 -227 1974 -226 139 1 143 1 110 16 -19 8 -82 29 -140 45
-106 30 -182 46 -1190 255 -753 156 -1078 228 -1521 339 -302 76 -857 219
-929 240 -9 2 -64 -37 -130 -93z"/>
<path d="M17515 14160 c-55 -10 -120 -23 -145 -30 l-45 -12 80 -41 c44 -22
185 -89 313 -148 258 -121 276 -125 371 -86 46 19 57 29 73 65 l18 43 -48 21
c-26 11 -138 63 -249 114 -134 63 -213 94 -235 93 -18 0 -78 -9 -133 -19z"/>
<path d="M18158 13842 c-48 -31 -88 -59 -88 -62 0 -3 66 -37 148 -75 1011
-471 1895 -819 2902 -1141 825 -264 1246 -357 1749 -384 182 -10 336 -4 310
11 -27 14 -145 41 -309 69 -286 50 -579 122 -970 240 -866 261 -2315 817
-3243 1244 -187 86 -364 156 -396 156 -9 0 -55 -26 -103 -58z"/>
</g>
</svg>
