<?xml version="1.0" standalone="no"?>
<!DOCTYPE svg PUBLIC "-//W3C//DTD SVG 20010904//EN"
 "http://www.w3.org/TR/2001/REC-SVG-20010904/DTD/svg10.dtd">
<svg version="1.0" xmlns="http://www.w3.org/2000/svg"
 width="360.000000pt" height="360.000000pt" viewBox="0 0 512.000000 512.000000"
 preserveAspectRatio="xMidYMid meet">

<g transform="translate(0.000000,512.000000) scale(0.100000,-0.100000)"
fill="#000000" stroke="none">
<path d="M2070 5061 c-74 -23 -127 -69 -159 -141 -18 -40 -21 -66 -21 -230 l0
-185 -106 -105 c-58 -58 -112 -118 -121 -134 -30 -57 11 -136 78 -150 l31 -6
-33 -27 c-44 -37 -79 -116 -79 -178 0 -115 104 -235 203 -235 21 0 24 -7 39
-87 26 -138 90 -257 195 -361 l83 -83 0 -69 0 -69 -47 -6 c-85 -12 -108 -21
-123 -47 -13 -24 -13 -29 5 -48 17 -19 26 -21 70 -15 27 3 59 7 69 8 15 2 21
-8 30 -53 6 -30 22 -76 34 -101 30 -61 118 -143 189 -177 50 -23 71 -27 153
-27 82 0 103 4 153 27 115 54 209 173 225 285 7 46 9 48 37 45 68 -7 614 -93
660 -103 172 -40 317 -190 354 -367 6 -29 11 -114 11 -187 l0 -135 -200 0
-200 0 0 68 c0 74 -10 92 -50 92 -47 0 -50 -12 -50 -188 l0 -164 -27 6 c-50 9
-176 25 -287 36 l-109 11 -68 63 c-118 109 -291 213 -476 287 -91 36 -125 33
-169 -12 -33 -34 -34 -49 -21 -239 l8 -115 -101 -18 c-150 -28 -276 -61 -458
-122 -89 -30 -164 -55 -167 -55 -3 0 -5 109 -5 243 0 260 -1 267 -50 267 -40
0 -50 -18 -50 -92 l0 -68 -200 0 -200 0 1 143 c0 219 41 332 154 434 84 76
162 108 330 133 99 16 132 53 85 95 -20 18 -25 18 -125 2 -186 -30 -285 -77
-388 -187 -35 -37 -76 -94 -94 -131 -56 -113 -63 -163 -63 -471 0 -153 -2
-278 -4 -278 -2 0 -28 16 -57 36 -103 70 -249 124 -336 124 -50 0 -102 -33
-125 -80 -17 -32 -18 -86 -18 -680 0 -626 1 -646 20 -678 58 -95 187 -94 385
5 l69 35 36 -19 c49 -25 417 -33 486 -9 l44 15 0 -253 c0 -232 1 -254 18 -269
24 -22 45 -21 65 1 15 16 17 53 17 305 0 282 0 287 23 320 22 32 24 33 57 22
l35 -12 5 -196 5 -197 28 -27 c40 -41 101 -37 257 16 150 50 279 110 386 179
76 49 83 51 131 46 l50 -6 -18 -72 c-24 -90 -26 -137 -5 -168 37 -56 95 -61
224 -19 161 53 263 113 374 219 l68 65 102 13 c57 7 115 15 131 18 l27 6 0
-249 c0 -227 2 -249 18 -264 24 -22 45 -21 65 1 15 16 17 50 17 270 l0 251 44
-15 c36 -12 86 -15 248 -12 230 4 257 11 339 90 42 41 89 127 89 164 0 15 18
32 62 59 88 55 189 158 224 230 25 51 29 72 29 140 0 69 -5 88 -30 139 -60
119 -192 225 -397 321 l-108 50 0 320 c0 251 -4 334 -15 384 -45 189 -188 348
-370 412 -44 15 -718 129 -766 129 -5 0 -9 32 -9 70 l0 70 83 83 c104 102 169
222 195 360 15 80 18 87 39 87 99 0 203 120 203 235 0 62 -35 141 -79 178
l-33 27 31 6 c67 14 108 93 78 150 -9 16 -63 76 -121 134 l-106 105 0 185 c0
203 -9 241 -68 303 -51 55 -97 71 -213 75 -65 3 -114 0 -126 -7 -27 -14 -34
-45 -16 -70 12 -19 25 -21 106 -21 117 0 167 -20 196 -79 19 -35 21 -58 21
-196 l0 -155 -570 0 -570 0 0 158 c0 185 9 213 80 250 41 20 57 22 221 22 158
0 178 2 192 18 22 24 21 38 -3 62 -19 19 -33 20 -202 19 -101 0 -194 -4 -208
-8z m1191 -728 l104 -108 -799 -3 c-440 -1 -802 0 -805 3 -3 3 42 53 99 110
l105 105 595 0 596 0 105 -107z m-1221 -305 c0 -65 -4 -90 -20 -115 -11 -18
-22 -33 -25 -33 -3 0 -5 52 -5 115 l0 115 25 0 c25 0 25 -1 25 -82z m940 -7
c0 -132 26 -190 106 -233 44 -23 44 -23 44 -78 -1 -256 -181 -491 -426 -555
-77 -20 -225 -19 -295 1 -181 53 -335 201 -390 374 -12 36 -23 103 -26 150
l-5 85 45 23 c80 42 107 100 107 233 l0 89 420 0 420 0 0 -89z m150 -28 l0
-117 -22 22 c-20 20 -23 35 -26 117 l-4 95 26 0 26 0 0 -117z m-1240 -88 c0
-122 -2 -135 -17 -135 -52 0 -113 74 -113 135 0 61 61 135 113 135 15 0 17
-13 17 -135z m1406 116 c34 -21 64 -75 64 -116 0 -42 -29 -93 -65 -115 -63
-39 -65 -36 -65 115 0 150 2 155 66 116z m-736 -984 c121 0 169 9 263 48 16 7
17 -2 17 -107 0 -77 -5 -129 -16 -160 -36 -107 -146 -183 -264 -183 -118 0
-228 76 -264 183 -11 31 -16 83 -16 158 l0 112 78 -26 c66 -22 95 -25 202 -25z
m-18 -843 c45 -19 112 -51 148 -71 76 -42 226 -147 213 -149 -4 -1 -106 -4
-225 -7 l-217 -5 -5 27 c-12 62 -18 241 -8 241 6 0 48 -16 94 -36z m-1022
-349 l0 -145 -134 -66 c-92 -45 -139 -63 -149 -57 -9 4 -38 43 -66 86 l-51 78
0 124 0 125 200 0 200 0 0 -145z m2480 46 l0 -100 -42 14 c-24 7 -114 30 -200
51 l-158 38 0 48 0 48 200 0 200 0 0 -99z m-3289 -7 c84 -25 202 -90 264 -147
31 -29 83 -90 114 -137 32 -47 72 -95 91 -107 54 -37 89 -30 248 48 315 155
602 247 912 294 341 51 849 32 1247 -46 l51 -10 -30 -49 c-29 -48 -30 -50 -14
-75 28 -43 59 -33 107 36 42 59 44 60 78 54 20 -3 103 -29 186 -56 271 -90
446 -194 524 -310 23 -34 41 -65 41 -70 0 -5 -19 -9 -43 -9 -51 0 -87 -22 -87
-55 0 -33 36 -55 87 -55 24 0 43 -2 43 -5 0 -12 -34 -71 -59 -103 -14 -18 -53
-53 -85 -78 l-59 -45 -24 48 c-32 69 -82 124 -144 158 l-54 30 -217 3 c-202 3
-220 2 -264 -17 -26 -12 -49 -19 -52 -16 -3 2 -6 39 -8 80 -2 80 -14 105 -47
105 -43 0 -57 -27 -56 -109 0 -42 4 -96 8 -121 6 -37 3 -54 -18 -95 -18 -37
-26 -71 -29 -132 -4 -75 -2 -87 26 -146 l30 -64 -62 -11 c-189 -35 -337 -46
-621 -46 -249 0 -310 3 -430 22 -216 34 -491 106 -618 162 l-44 20 -5 73 c-8
123 -76 220 -194 274 -53 24 -58 24 -271 21 l-218 -3 -54 -30 c-97 -53 -160
-151 -169 -262 -5 -67 15 -146 49 -194 10 -15 19 -32 19 -37 0 -14 -149 -71
-205 -79 -73 -10 -75 -5 -75 185 l0 165 81 -6 c76 -5 83 -4 105 18 16 16 22
30 18 42 -13 35 -36 43 -121 43 l-83 0 0 100 0 100 81 0 c95 0 119 10 119 48
0 45 -16 52 -112 52 l-88 0 0 105 0 105 88 0 c96 0 112 7 112 52 0 38 -24 48
-119 48 l-81 0 0 113 c0 75 4 117 12 125 16 16 54 15 119 -4z m381 -891 c3
-107 3 -108 30 -117 22 -8 32 -6 48 9 17 16 20 30 20 117 l0 98 55 0 55 0 0
-93 c0 -103 14 -137 55 -137 41 0 55 34 55 138 0 92 0 93 23 87 101 -30 172
-126 165 -227 -6 -80 -47 -143 -117 -180 -53 -28 -56 -28 -232 -28 -196 0
-228 7 -282 58 -94 89 -94 235 1 325 25 24 88 55 114 57 4 0 9 -48 10 -107z
m2618 14 c0 -103 14 -137 55 -137 41 0 55 34 55 137 l0 93 55 0 55 0 0 -97 c0
-102 12 -133 51 -133 39 0 49 26 49 131 l0 99 28 -6 c133 -32 206 -189 144
-310 -27 -52 -81 -100 -129 -113 -21 -6 -115 -11 -209 -11 -169 0 -173 1 -225
28 -77 40 -114 102 -114 192 0 90 37 152 114 192 29 15 57 28 62 28 5 0 9 -42
9 -93z m-1733 -381 c65 -18 171 -44 235 -57 65 -12 117 -23 115 -25 -22 -19
-234 -114 -323 -144 -178 -59 -164 -69 -164 110 0 85 4 150 9 150 5 0 63 -15
128 -34z m1087 -107 c-13 -21 -145 -101 -216 -130 -72 -30 -179 -61 -186 -55
-2 2 8 44 21 92 l24 89 149 5 c82 3 164 7 182 8 22 1 31 -2 26 -9z"/>
<path d="M2236 3924 c-36 -35 -10 -124 36 -124 45 0 69 108 29 130 -27 14 -47
13 -65 -6z"/>
<path d="M2818 3929 c-25 -14 -25 -90 0 -112 39 -35 82 -6 82 56 0 56 -38 82
-82 56z"/>
<path d="M2522 3888 c-8 -8 -12 -49 -12 -118 0 -114 6 -130 50 -130 44 0 50
16 50 130 0 114 -6 130 -50 130 -14 0 -31 -5 -38 -12z"/>
<path d="M2348 3529 c-27 -15 -22 -61 11 -106 40 -56 75 -81 139 -99 98 -29
191 6 259 94 39 51 44 96 12 112 -32 18 -63 4 -82 -35 -22 -46 -70 -75 -125
-75 -57 0 -95 21 -123 67 -33 55 -53 64 -91 42z"/>
<path d="M2262 1679 c-131 -65 -130 -250 2 -310 58 -26 92 -24 112 6 15 23 15
27 0 50 -9 14 -26 25 -37 25 -53 0 -89 52 -69 101 11 25 46 49 74 49 16 0 46
32 46 48 0 20 -39 52 -62 52 -13 0 -42 -10 -66 -21z"/>
<path d="M3516 1534 c-31 -30 -9 -84 34 -84 24 0 50 26 50 50 0 24 -26 50 -50
50 -10 0 -26 -7 -34 -16z"/>
<path d="M3832 1514 c-16 -11 -22 -25 -22 -53 0 -44 14 -61 50 -61 36 0 50 17
50 61 0 28 -6 42 -22 53 -12 9 -25 16 -28 16 -3 0 -16 -7 -28 -16z"/>
<path d="M2649 1497 c-61 -41 -69 -70 -69 -264 0 -183 5 -211 48 -256 51 -53
76 -53 329 4 125 28 236 59 246 67 20 17 22 53 5 70 -19 19 -55 15 -261 -33
-108 -25 -207 -45 -221 -45 -32 0 -48 35 -44 94 l3 41 119 3 c67 1 126 7 133
14 20 16 16 66 -6 78 -11 5 -72 10 -135 10 l-116 0 0 43 c0 61 10 87 34 93 12
3 120 -18 240 -45 202 -47 222 -50 243 -36 26 17 31 56 9 74 -20 16 -430 110
-482 111 -26 0 -53 -8 -75 -23z"/>
<path d="M1900 1478 c-136 -69 -127 -259 15 -313 51 -20 89 -14 105 16 16 29
-10 65 -53 73 -44 8 -61 29 -61 73 0 41 31 73 70 73 14 0 30 10 40 25 15 23
15 27 0 50 -21 32 -57 33 -116 3z"/>
<path d="M2264 1081 c-137 -62 -131 -262 10 -316 54 -21 92 -14 108 20 9 21 8
28 -7 45 -10 11 -24 20 -31 20 -7 0 -24 5 -38 11 -70 32 -44 139 35 139 10 0
26 11 35 25 15 23 15 27 0 50 -20 30 -54 32 -112 6z"/>
<path d="M2567 5029 c-30 -42 12 -92 58 -71 32 15 41 49 19 73 -22 25 -59 24
-77 -2z"/>
<path d="M1812 2934 c-30 -21 -29 -59 3 -80 23 -15 27 -15 50 0 30 20 32 49 5
76 -24 24 -29 24 -58 4z"/>
<path d="M583 2728 c-6 -7 -19 -40 -29 -73 -22 -73 -72 -130 -125 -146 -48
-15 -72 -40 -67 -71 2 -17 18 -30 58 -50 73 -36 115 -83 136 -155 20 -72 29
-83 64 -83 35 0 42 10 69 91 25 76 58 112 134 149 80 39 75 93 -12 119 -50 15
-94 64 -120 138 -12 32 -25 65 -30 73 -10 19 -65 25 -78 8z m103 -271 c13 -7
9 -16 -23 -51 l-38 -41 -40 39 -40 40 40 42 40 42 23 -31 c12 -17 29 -35 38
-40z"/>
<path d="M4466 2275 c-8 -8 -22 -39 -30 -68 -24 -83 -53 -118 -124 -152 -98
-46 -97 -87 3 -135 71 -34 103 -75 125 -160 15 -57 26 -70 60 -70 35 0 44 11
63 80 28 95 57 127 149 164 26 10 39 23 44 41 8 33 -3 45 -76 82 -61 31 -90
68 -116 146 -26 82 -62 108 -98 72z m71 -246 l38 -41 -36 -40 -37 -40 -40 40
-39 39 33 33 c19 18 34 37 34 41 0 16 9 10 47 -32z"/>
</g>
</svg>
