<?xml version="1.0" standalone="no"?>
<!DOCTYPE svg PUBLIC "-//W3C//DTD SVG 20010904//EN"
 "http://www.w3.org/TR/2001/REC-SVG-20010904/DTD/svg10.dtd">
<svg version="1.0" xmlns="http://www.w3.org/2000/svg"
 width="100em" height="100em" viewBox="0 0 512.000000 512.000000"
 preserveAspectRatio="xMidYMid meet">

<g transform="translate(0.000000,512.000000) scale(0.100000,-0.100000)"
fill="#016F3E" stroke="none">
<path d="M2925 4788 c-90 -17 -204 -80 -279 -154 -114 -114 -166 -249 -166
-429 0 -78 -1 -82 -26 -94 -24 -11 -29 -8 -66 30 -63 65 -136 94 -233 93 -95
0 -157 -25 -220 -89 -65 -65 -89 -125 -89 -225 0 -88 14 -130 67 -201 l19 -27
-44 -59 c-25 -32 -64 -87 -87 -122 l-41 -64 0 93 c0 117 -13 160 -67 220 -59
65 -105 80 -251 80 -147 0 -184 -11 -247 -75 -66 -65 -75 -99 -75 -269 l0
-136 -80 0 -80 0 0 296 c0 204 -4 310 -12 338 -16 55 -99 138 -154 154 -53 16
-255 16 -308 0 -55 -16 -138 -99 -154 -154 -8 -28 -12 -134 -12 -338 0 -267
-2 -296 -16 -296 -77 0 -189 -88 -212 -166 -17 -59 -17 -1209 0 -1268 23 -78
135 -166 212 -166 14 0 16 -35 16 -376 0 -267 4 -389 12 -418 16 -55 99 -138
154 -154 53 -16 255 -16 308 0 55 16 138 99 154 154 8 29 12 151 12 418 l0
376 80 0 80 0 0 -383 c0 -228 4 -407 11 -443 38 -212 231 -405 443 -443 38 -7
264 -11 612 -11 l552 0 12 -30 c17 -42 90 -104 138 -118 51 -16 253 -15 306 0
55 16 138 99 154 154 7 24 12 100 12 177 l0 136 43 5 c166 21 223 30 307 51
487 121 900 452 1134 905 101 196 160 393 186 615 14 125 14 1891 -1 1971 -17
97 -78 211 -154 287 -76 77 -190 138 -289 156 -75 14 -1589 13 -1661 -1z
m1695 -176 c112 -46 187 -122 234 -236 20 -49 21 -70 24 -561 l3 -510 -65 113
c-204 357 -512 628 -884 778 -372 150 -803 164 -1189 39 l-103 -33 0 37 c0 53
27 149 56 199 38 64 76 103 136 139 105 64 83 62 948 60 l785 -2 55 -23z
m-1175 -462 c554 -64 1018 -387 1267 -883 187 -373 217 -810 83 -1213 -132
-397 -425 -734 -804 -923 -380 -191 -816 -221 -1221 -84 -194 65 -395 181
-544 314 -549 490 -700 1266 -373 1915 94 186 214 341 373 483 327 291 790
440 1219 391z m-1220 -89 c71 -32 72 -42 7 -88 -31 -22 -85 -66 -119 -98 -35
-31 -68 -53 -74 -49 -16 10 -39 69 -39 101 1 69 85 153 155 153 17 0 48 -9 70
-19z m-1453 -89 c23 -22 23 -26 26 -317 l3 -295 -161 0 -160 0 0 283 c0 206 4
289 13 307 21 41 53 51 159 48 86 -3 100 -6 120 -26z m800 -320 c21 -21 23
-33 26 -157 l4 -135 -161 0 -161 0 0 123 c0 184 14 199 172 195 86 -3 100 -6
120 -26z m40 -532 l-26 -80 -542 -2 c-530 -3 -543 -3 -570 -24 -15 -11 -37
-33 -48 -48 -20 -27 -21 -39 -21 -406 0 -367 1 -379 21 -406 11 -15 33 -37 48
-48 27 -21 40 -21 570 -24 l542 -2 26 -80 26 -80 -663 0 c-465 0 -671 3 -688
11 -14 6 -30 22 -36 36 -16 34 -15 1152 0 1187 6 13 21 29 33 34 14 7 250 11
688 11 l666 1 -26 -80z m-66 -263 c-3 -13 -8 -49 -12 -80 l-7 -57 -83 0 -84 0
0 -80 0 -80 80 0 80 0 0 -47 c0 -52 17 -213 26 -250 l6 -23 -496 0 -496 0 0
320 0 320 496 0 496 0 -6 -23z m-748 -1472 l-3 -374 -23 -23 c-21 -21 -31 -23
-132 -23 -101 0 -111 2 -132 23 l-23 23 -3 374 -3 375 161 0 161 0 -3 -375z
m953 303 c76 -132 161 -241 284 -364 183 -185 353 -300 574 -390 l106 -44 3
-125 3 -126 -563 3 c-545 3 -565 4 -614 24 -114 47 -191 123 -236 234 -22 53
-23 66 -26 458 l-3 402 215 0 215 0 42 -72z m1219 -862 c41 -8 110 -17 153
-21 l77 -7 0 -130 0 -130 -29 -29 c-29 -28 -32 -29 -131 -29 -99 0 -102 1
-131 29 l-29 29 0 151 c0 83 3 151 8 151 4 0 41 -6 82 -14z"/>
<path d="M4465 4461 c-156 -70 -194 -271 -74 -390 151 -151 409 -44 409 169 0
133 -107 240 -240 240 -32 0 -72 -8 -95 -19z m129 -152 c58 -27 55 -115 -5
-139 -63 -26 -125 36 -100 99 19 44 60 60 105 40z"/>
<path d="M3130 3833 c-177 -28 -295 -65 -431 -134 -251 -129 -444 -327 -570
-584 -88 -182 -129 -356 -129 -555 0 -199 41 -373 129 -555 226 -464 691 -743
1201 -721 74 3 167 12 205 21 510 111 892 495 1002 1008 25 115 25 381 0 494
-69 321 -242 592 -502 786 -95 70 -291 168 -395 197 -123 34 -248 50 -370 49
-63 -1 -126 -4 -140 -6z m-12 -528 l-3 -127 -40 -14 c-23 -7 -42 -9 -45 -4 -3
5 -23 81 -45 169 l-39 160 -144 3 -145 3 89 47 c102 53 210 93 304 112 l65 13
3 -118 c1 -65 1 -175 0 -244z m507 318 c91 -29 193 -78 272 -131 l54 -36 -172
-172 -172 -172 -43 21 c-24 11 -41 23 -40 26 2 3 43 71 91 150 l86 144 -102
103 c-112 112 -112 111 26 67z m-194 -307 c-67 -111 -67 -111 -109 -114 l-42
-3 0 223 0 223 109 -109 109 -109 -67 -111z m-603 -18 c5 -18 20 -77 33 -131
l23 -97 -27 -28 -27 -27 -158 158 -157 157 152 0 152 0 9 -32z m1212 -278 c-5
-3 -64 -19 -130 -35 l-121 -29 -27 27 -27 27 155 155 155 155 3 -147 c2 -92
-1 -149 -8 -153z m-1333 -176 c-11 -24 -23 -41 -26 -40 -3 2 -71 43 -150 91
l-144 86 -103 -102 -103 -102 9 40 c24 107 92 260 158 360 l36 54 172 -172
172 -172 -21 -43z m1577 208 c37 -74 79 -199 94 -280 l9 -52 -244 2 -245 3
-14 40 c-7 21 -9 42 -4 45 4 3 81 23 169 44 l161 40 0 145 0 146 20 -33 c11
-18 35 -63 54 -100z m-918 -23 c250 -46 426 -293 385 -541 -43 -261 -288 -441
-543 -399 -207 34 -365 192 -399 399 -46 278 176 542 462 551 19 0 62 -4 95
-10z m-783 -351 c55 -32 57 -34 57 -75 l0 -43 -222 0 -223 0 109 109 109 109
56 -34 c31 -19 82 -48 114 -66z m1673 -227 l-109 -109 -111 67 c-111 67 -111
67 -114 109 l-3 42 223 0 223 0 -109 -109z m-1580 -96 c7 -23 9 -42 4 -45 -5
-3 -81 -23 -169 -45 l-160 -39 -3 -145 -3 -144 -52 99 c-52 101 -94 218 -111
312 l-9 52 244 -2 245 -3 14 -40z m1693 -54 c-23 -105 -91 -259 -157 -358
l-36 -54 -172 172 -172 172 21 43 c11 24 23 41 26 40 3 -2 71 -43 150 -91
l144 -86 101 100 c56 56 102 101 102 101 1 0 -2 -17 -7 -39z m-1569 -166 l24
-26 -157 -157 -157 -157 0 152 0 152 38 10 c228 60 221 59 252 26z m1090 -190
l155 -155 -152 0 -152 0 -9 33 c-5 17 -20 76 -32 129 l-24 98 24 25 c13 14 26
25 29 25 4 0 76 -70 161 -155z m-854 16 c-2 -3 -43 -71 -91 -150 l-86 -144
102 -103 102 -103 -40 9 c-107 24 -260 92 -360 158 l-54 36 172 172 172 172
43 -21 c24 -11 41 -23 40 -26z m502 -23 c5 -18 24 -95 42 -170 l34 -137 145
-3 144 -3 -99 -52 c-101 -52 -218 -94 -312 -111 l-52 -9 2 245 3 244 35 13
c50 18 48 18 58 -17z m-258 -240 l0 -223 -109 109 -109 109 55 91 c30 50 61
101 69 114 11 17 24 22 54 22 l40 0 0 -222z"/>
<path d="M3160 2858 c-74 -29 -150 -105 -178 -181 -80 -213 73 -437 298 -437
176 0 320 144 320 320 0 225 -227 379 -440 298z m183 -152 c103 -43 128 -177
48 -257 -65 -65 -157 -65 -222 0 -124 123 13 325 174 257z"/>
<path d="M720 2640 l0 -80 80 0 80 0 0 80 0 80 -80 0 -80 0 0 -80z"/>
<path d="M1040 2640 l0 -80 80 0 80 0 0 80 0 80 -80 0 -80 0 0 -80z"/>
<path d="M1585 1261 c-22 -10 -56 -33 -74 -52 -151 -151 -44 -409 169 -409
213 0 320 258 169 409 -47 47 -103 71 -169 71 -32 0 -72 -8 -95 -19z m129
-152 c58 -27 55 -115 -5 -139 -63 -26 -125 36 -100 99 19 44 60 60 105 40z"/>
</g>
</svg>
