<?xml version="1.0" standalone="no"?>
<!DOCTYPE svg PUBLIC "-//W3C//DTD SVG 20010904//EN"
 "http://www.w3.org/TR/2001/REC-SVG-20010904/DTD/svg10.dtd">
<svg version="1.0" xmlns="http://www.w3.org/2000/svg"
 width="100em" height="100em" viewBox="0 0 512.000000 512.000000"
 preserveAspectRatio="xMidYMid meet">

<g transform="translate(0.000000,512.000000) scale(0.100000,-0.100000)"
fill="#016F3E" stroke="none">
<path d="M3651 4494 c-27 -35 -26 -59 4 -89 21 -22 33 -25 100 -25 l75 0 0
-518 0 -518 -34 -17 c-42 -20 -81 -69 -95 -122 -6 -23 -11 -127 -11 -242 l0
-203 -150 0 -150 0 0 283 c0 161 -5 309 -11 343 -27 148 -129 248 -280 274
-45 8 -359 10 -1054 7 -1092 -4 -1040 -1 -1201 -68 -212 -88 -394 -273 -475
-483 -58 -150 -60 -184 -57 -728 4 -559 2 -541 92 -723 84 -169 218 -301 391
-385 142 -69 193 -81 383 -87 89 -3 162 -8 162 -11 0 -2 -56 -112 -125 -242
-68 -131 -127 -250 -131 -264 -4 -19 0 -31 20 -50 l25 -26 866 0 866 0 26 26
c19 19 24 32 20 52 -3 15 -61 130 -128 257 -67 126 -124 235 -126 242 -4 10
37 13 193 13 110 0 225 4 258 10 114 18 199 80 253 182 l28 53 3 333 3 332
155 0 154 0 0 -217 c0 -189 3 -223 19 -258 23 -51 79 -101 128 -114 52 -15
470 -14 514 0 52 18 97 56 121 102 21 39 23 58 26 270 l4 227 127 0 c187 0
171 -30 171 321 0 358 15 329 -170 329 l-130 0 0 198 c-1 108 -5 216 -9 239
-11 55 -46 106 -93 135 l-37 23 -1 511 0 512 86 3 c96 4 114 16 114 75 0 54
-25 64 -168 64 -117 0 -124 -1 -147 -25 l-25 -24 0 -556 0 -555 -130 0 -130 0
-2 561 -3 561 -24 19 c-20 16 -40 19 -146 19 -122 0 -124 0 -144 -26z m-2541
-2064 c0 -763 -3 -1100 -11 -1100 -5 0 -42 7 -82 16 -307 69 -530 319 -568
637 -7 59 -9 244 -7 512 5 475 7 487 90 650 60 117 192 246 310 305 77 38 201
77 251 79 16 1 17 -58 17 -1099z m2043 1071 c21 -13 50 -42 65 -64 l27 -41 3
-950 c3 -1062 7 -1002 -68 -1069 -26 -25 -54 -39 -92 -46 -37 -8 -325 -10
-948 -9 l-895 3 -3 1103 -2 1102 937 -2 938 -3 38 -24z m1197 -301 c20 -20 20
-33 20 -770 l0 -751 -25 -24 -24 -25 -216 0 c-212 0 -248 5 -267 34 -4 6 -8
350 -8 764 0 739 0 752 20 772 19 19 33 20 250 20 217 0 231 -1 250 -20z
m-660 -770 l0 -190 -150 0 -150 0 0 190 0 190 150 0 150 0 0 -190z m990 -5 l0
-185 -85 0 -85 0 0 185 0 185 85 0 85 0 0 -185z m-2081 -1457 l120 -223 -721
-3 c-397 -1 -723 0 -725 2 -3 2 48 104 113 225 l117 221 487 0 488 0 121 -222z"/>
<path d="M1530 3140 c-26 -26 -26 -72 1 -96 20 -18 47 -19 719 -19 672 0 699
1 719 19 28 25 27 67 -2 94 l-23 22 -697 0 c-684 0 -697 0 -717 -20z"/>
<path d="M1545 2708 c-11 -6 -23 -16 -27 -22 -14 -21 -8 -66 12 -86 20 -20 33
-20 720 -20 687 0 700 0 720 20 27 27 25 66 -5 95 l-24 25 -688 0 c-494 -1
-694 -4 -708 -12z"/>
<path d="M1527 2252 c-22 -25 -21 -75 1 -95 17 -16 82 -17 725 -17 l706 0 15
22 c22 31 20 64 -4 88 -20 20 -33 20 -723 20 -669 0 -705 -1 -720 -18z"/>
<path d="M1530 1810 c-20 -20 -26 -65 -12 -86 21 -33 49 -34 735 -34 677 0
685 0 711 21 33 26 34 68 3 97 l-23 22 -697 0 c-684 0 -697 0 -717 -20z"/>
</g>
</svg>
