<?xml version="1.0" standalone="no"?>
<!DOCTYPE svg PUBLIC "-//W3C//DTD SVG 20010904//EN"
 "http://www.w3.org/TR/2001/REC-SVG-20010904/DTD/svg10.dtd">
<svg version="1.0" xmlns="http://www.w3.org/2000/svg"
 width="100em" height="100em" viewBox="0 0 512.000000 512.000000"
 preserveAspectRatio="xMidYMid meet">

<g transform="translate(0.000000,512.000000) scale(0.100000,-0.100000)"
fill="#016F3E" stroke="none">
<path d="M3020 5080 c-260 -69 -469 -276 -535 -532 -30 -116 -30 -234 1 -380
6 -26 2 -29 -72 -63 -119 -54 -276 -151 -382 -237 l-97 -78 -227 0 -228 0 0
165 0 165 -410 0 -410 0 0 -165 0 -165 -205 0 -205 0 0 -285 0 -285 -125 0
-125 0 0 -410 0 -410 163 -2 162 -3 3 -835 2 -835 -165 -83 -165 -82 0 -270 0
-270 388 0 387 0 188 188 187 187 0 58 0 57 510 0 510 0 162 -245 163 -244
1173 -1 1172 0 0 379 0 380 -75 124 c-41 69 -75 127 -75 130 0 2 38 -5 85 -16
75 -19 91 -20 133 -9 90 24 151 87 172 174 13 58 13 205 -1 268 -13 62 -60
124 -114 153 -22 12 -42 23 -43 24 -2 1 12 42 32 91 170 431 168 942 -5 1378
l-42 104 53 52 c92 91 140 230 120 351 -10 64 -45 148 -78 187 l-21 25 69 70
70 70 -385 385 -385 385 -128 -128 -128 -127 -99 69 c-91 64 -101 75 -127 131
-84 185 -249 333 -443 397 -111 36 -295 42 -405 13z m295 -155 c213 -45 385
-209 440 -420 21 -83 17 -276 -7 -300 -1 -2 -38 6 -80 17 l-77 21 7 31 c14 61
6 179 -17 236 -43 113 -146 210 -259 246 -82 25 -219 16 -294 -20 -87 -41
-152 -105 -195 -193 -34 -69 -37 -82 -38 -162 0 -47 2 -99 5 -115 5 -29 4 -30
-65 -48 -38 -9 -73 -18 -77 -18 -28 -1 -38 218 -13 310 47 176 183 326 354
391 110 41 201 48 316 24z m-34 -329 c115 -41 182 -167 155 -292 l-7 -29 -230
0 -230 0 -7 25 c-4 14 -6 49 -6 78 4 159 173 273 325 218z m1342 -374 c266
-266 268 -268 247 -287 -19 -17 -22 -17 -71 -2 -64 21 -179 22 -246 2 -28 -8
-75 -31 -103 -50 l-51 -34 -65 51 c-85 66 -249 165 -348 208 -76 33 -77 35
-72 65 3 16 10 66 17 110 6 44 13 82 15 84 1 2 40 -23 84 -54 l82 -58 116 117
c65 64 119 116 122 116 3 0 126 -121 273 -268z m-1268 -112 c580 -55 1084
-388 1363 -900 222 -406 262 -924 107 -1370 -78 -222 -191 -410 -374 -621
l-40 -45 134 -225 135 -224 0 -272 0 -273 -1047 0 -1048 1 -163 244 -162 245
-555 0 -555 0 0 85 0 85 75 0 c177 0 333 72 445 205 75 90 130 226 130 324 l0
41 -78 0 -78 0 -11 -62 c-29 -174 -162 -307 -336 -339 -178 -33 -358 64 -440
239 -28 60 -32 77 -32 157 0 146 51 250 165 336 52 39 158 79 211 79 l29 0 0
84 0 83 -52 -5 c-76 -6 -194 -47 -258 -89 -247 -163 -333 -490 -197 -748 40
-74 139 -180 206 -220 l51 -30 0 -220 0 -220 -137 -137 -138 -138 -272 0 -273
0 0 138 0 137 165 83 165 82 0 583 0 582 165 165 165 165 0 917 0 918 245 0
245 0 0 -530 0 -530 85 0 85 0 0 370 0 370 260 0 261 0 92 77 c124 103 233
173 380 243 282 134 579 188 882 160z m1421 -344 c148 -69 191 -254 86 -377
l-35 -40 -40 63 c-52 82 -116 166 -194 254 -70 79 -70 83 4 110 58 20 122 17
179 -10z m-4118 -861 l2 -719 -77 -78 c-43 -43 -81 -78 -85 -78 -5 0 -8 119
-8 265 l0 265 -165 0 -165 0 0 245 0 245 125 0 125 0 0 290 0 291 123 -3 122
-3 3 -720z m4222 -1442 c38 -26 40 -31 40 -147 0 -157 -12 -166 -175 -125
l-85 21 35 47 c19 25 61 85 92 134 31 48 60 87 63 87 3 0 17 -8 30 -17z"/>
<path d="M4347 4202 l-57 -58 83 -82 83 -82 57 58 57 58 -83 82 -83 82 -57
-58z"/>
<path d="M2973 3939 c-342 -52 -649 -212 -895 -467 -632 -655 -570 -1702 137
-2282 193 -158 419 -266 679 -322 86 -19 132 -22 306 -22 174 0 220 3 306 22
153 33 247 66 389 137 443 221 754 639 841 1130 24 135 24 386 1 515 -115 635
-570 1117 -1197 1267 -90 21 -134 25 -305 28 -110 2 -228 -1 -262 -6z m512
-179 c260 -59 481 -174 665 -347 287 -270 440 -623 440 -1018 0 -330 -103
-620 -311 -878 -202 -252 -504 -431 -829 -493 -132 -25 -371 -25 -500 0 -509
99 -916 455 -1075 940 -90 275 -90 596 1 865 152 455 512 793 974 915 139 37
217 45 390 41 107 -3 183 -11 245 -25z"/>
<path d="M3100 3624 c-491 -46 -910 -374 -1064 -834 -151 -451 -37 -931 298
-1265 182 -181 407 -297 660 -341 125 -22 377 -14 493 15 703 177 1106 907
877 1589 -120 358 -414 652 -773 773 -46 16 -118 35 -160 43 -83 16 -260 26
-331 20z m180 -329 l0 -165 -80 0 -80 0 0 165 0 165 80 0 80 0 0 -165z m-328
-38 c3 -166 4 -175 28 -210 41 -61 88 -77 218 -77 117 0 153 8 190 43 50 46
56 71 60 249 l4 168 27 -6 c74 -18 271 -106 271 -121 0 -4 -51 -59 -114 -123
-118 -119 -136 -146 -136 -206 0 -53 30 -102 113 -181 80 -78 107 -93 167 -93
64 0 89 16 211 136 l116 115 26 -44 c32 -55 83 -182 92 -230 l7 -37 -166 0
c-191 0 -226 -10 -267 -77 -22 -35 -24 -49 -24 -169 0 -123 1 -133 25 -167 44
-66 83 -77 268 -77 137 0 162 -2 162 -15 0 -27 -42 -138 -82 -219 l-39 -78
-123 120 c-97 95 -131 123 -164 132 -72 19 -114 0 -209 -92 -89 -87 -113 -126
-113 -182 0 -57 31 -103 144 -216 58 -57 106 -107 106 -111 0 -12 -115 -67
-203 -98 -49 -17 -90 -31 -92 -31 -2 0 -5 75 -7 168 -4 195 -14 227 -83 267
-38 23 -52 25 -164 25 -142 0 -183 -14 -222 -77 -22 -35 -24 -50 -27 -210 -2
-95 -5 -173 -7 -173 -1 0 -37 11 -79 25 -68 22 -164 66 -206 94 -12 8 7 32 97
124 142 143 163 189 128 275 -16 37 -114 145 -168 184 -40 29 -94 39 -142 27
-31 -9 -67 -38 -161 -131 l-122 -120 -25 44 c-31 53 -70 146 -90 216 l-16 52
164 0 c92 0 176 5 192 11 36 13 71 46 90 84 21 39 29 186 14 255 -13 61 -32
89 -82 119 -31 19 -50 21 -206 21 l-172 0 16 53 c21 74 58 162 89 214 l26 45
117 -115 c122 -121 147 -137 213 -137 59 0 98 23 177 105 144 148 137 207 -43
385 -58 57 -106 108 -106 112 0 17 242 124 287 127 8 1 12 -48 15 -172z m-327
-167 l110 -110 -60 -60 -60 -60 -115 115 -114 114 56 56 c30 30 59 55 64 55 5
0 59 -50 119 -110z m1313 74 c78 -66 79 -62 -49 -190 l-114 -114 -52 52 c-29
29 -53 57 -53 62 0 11 210 226 221 226 3 0 24 -16 47 -36z m-1478 -769 l0 -85
-159 0 c-179 0 -171 -4 -171 85 0 89 -8 85 171 85 l159 0 0 -85z m1803 43 c3
-24 3 -62 0 -85 l-6 -43 -158 0 -159 0 0 85 0 85 159 0 158 0 6 -42z m-1583
-563 l55 -55 -116 -116 -116 -116 -58 57 -57 58 113 113 c63 63 116 114 119
114 3 0 30 -25 60 -55z m1218 -58 l112 -112 -60 -60 -60 -60 -110 110 c-61 60
-110 114 -110 120 0 10 100 115 110 115 3 0 56 -51 118 -113z m-618 -322 l0
-165 -80 0 -80 0 0 165 0 165 80 0 80 0 0 -165z"/>
<path d="M3130 2799 c-130 -22 -236 -103 -297 -227 -36 -73 -38 -80 -38 -176
0 -89 3 -108 28 -160 53 -115 128 -184 244 -226 91 -33 213 -26 303 17 120 57
193 145 226 273 71 280 -178 548 -466 499z m157 -174 c96 -40 154 -124 154
-224 1 -207 -222 -321 -392 -201 -36 26 -78 97 -91 152 -13 59 6 139 45 190
65 85 191 122 284 83z"/>
<path d="M3165 2468 c-31 -17 -45 -39 -45 -72 1 -80 98 -110 144 -44 30 42 17
91 -31 116 -27 15 -42 15 -68 0z"/>
<path d="M980 3710 l0 -80 85 0 85 0 0 80 0 80 -85 0 -85 0 0 -80z"/>
<path d="M980 3380 l0 -80 85 0 85 0 0 80 0 80 -85 0 -85 0 0 -80z"/>
<path d="M1663 3434 c-21 -21 -24 -32 -19 -62 10 -67 76 -93 130 -51 20 16 26
29 26 58 0 75 -83 109 -137 55z"/>
<path d="M980 3050 l0 -80 85 0 85 0 0 80 0 80 -85 0 -85 0 0 -80z"/>
<path d="M1175 1651 c-46 -12 -87 -36 -122 -73 -93 -97 -86 -260 14 -349 51
-44 92 -59 165 -59 140 0 241 102 241 245 0 67 -17 111 -67 163 -57 62 -156
93 -231 73z m112 -183 c32 -30 31 -81 -2 -113 -72 -73 -178 28 -114 109 27 34
82 36 116 4z"/>
<path d="M4192 825 c-172 -54 -228 -276 -101 -404 111 -111 301 -90 383 43 82
132 13 316 -135 360 -63 19 -90 19 -147 1z m113 -161 c17 -7 45 -54 45 -78 0
-27 -50 -76 -79 -76 -33 0 -69 25 -81 56 -11 28 3 73 27 92 18 13 61 16 88 6z"/>
<path d="M375 2878 c-75 -40 -49 -151 35 -151 82 0 111 111 39 148 -33 18 -47
18 -74 3z"/>
</g>
</svg>
