<?xml version="1.0" standalone="no"?>
<!DOCTYPE svg PUBLIC "-//W3C//DTD SVG 20010904//EN"
 "http://www.w3.org/TR/2001/REC-SVG-20010904/DTD/svg10.dtd">
<svg version="1.0" xmlns="http://www.w3.org/2000/svg"
 width="100em" height="100em" viewBox="0 0 512.000000 512.000000"
 preserveAspectRatio="xMidYMid meet">

<g transform="translate(0.000000,512.000000) scale(0.100000,-0.100000)"
fill="#016F3E" stroke="none">
<path d="M3020 5080 c-260 -69 -469 -276 -535 -532 -30 -116 -30 -234 1 -380
6 -26 2 -29 -72 -63 -119 -54 -276 -151 -382 -237 l-97 -78 -227 0 -228 0 0
165 0 165 -410 0 -410 0 0 -165 0 -165 -205 0 -205 0 0 -285 0 -285 -125 0
-125 0 0 -410 0 -410 163 -2 162 -3 3 -835 2 -835 -165 -83 -165 -82 0 -270 0
-270 388 0 387 0 188 188 187 187 0 58 0 57 510 0 510 0 162 -245 163 -244
1173 -1 1172 0 0 379 0 380 -75 124 c-41 69 -75 127 -75 130 0 2 38 -5 85 -16
75 -19 91 -20 133 -9 90 24 151 87 172 174 13 58 13 205 -1 268 -13 62 -60
124 -114 153 -22 12 -42 23 -43 24 -2 1 12 42 32 91 170 431 168 942 -5 1378
l-42 104 53 52 c92 91 140 230 120 351 -10 64 -45 148 -78 187 l-21 25 69 70
70 70 -385 385 -385 385 -128 -128 -128 -127 -99 69 c-91 64 -101 75 -127 131
-84 185 -249 333 -443 397 -111 36 -295 42 -405 13z m358 -176 c256 -84 417
-335 388 -606 -10 -93 -11 -94 -94 -73 l-71 17 6 87 c4 65 2 101 -11 146 -45
155 -171 267 -335 297 -168 31 -362 -74 -439 -239 -24 -52 -27 -69 -28 -178
l0 -119 -45 -11 c-108 -28 -96 -31 -108 26 -47 216 46 449 230 578 150 106
331 132 507 75z m-72 -322 c85 -44 134 -123 134 -214 0 -101 21 -93 -240 -93
-261 0 -240 -8 -240 93 0 108 68 200 171 231 48 14 129 6 175 -17z m1563 -648
c-15 -14 -21 -14 -60 -1 -132 44 -265 24 -375 -58 l-30 -23 -45 35 c-103 82
-278 183 -447 259 -2 1 4 37 12 80 9 44 17 94 18 112 l3 33 83 -58 83 -57 117
117 117 117 270 -270 c247 -247 268 -271 254 -286z m-1533 176 c828 -68 1483
-705 1573 -1532 52 -469 -107 -960 -428 -1322 -38 -44 -69 -82 -67 -85 2 -3
60 -101 129 -218 l127 -211 0 -281 0 -281 -1040 0 -1040 0 -162 245 -163 244
-557 1 -558 0 0 85 0 85 83 0 c45 0 109 7 141 15 229 60 401 263 430 508 l6
47 -83 0 -82 0 -13 -67 c-42 -221 -252 -372 -465 -334 -177 31 -306 160 -339
340 -23 123 26 265 123 357 65 61 128 92 214 107 l65 11 0 83 0 84 -53 -6
c-230 -27 -413 -173 -488 -388 -50 -142 -38 -310 31 -447 37 -73 140 -185 209
-225 l51 -30 0 -220 0 -220 -137 -137 -138 -138 -267 0 -268 0 0 140 0 140
160 80 160 80 0 583 0 582 165 165 165 165 0 917 0 918 245 0 245 0 0 -530 0
-530 85 0 85 0 0 370 0 370 261 0 262 0 81 69 c275 233 620 379 970 410 133
12 141 12 282 1z m1454 -353 c53 -27 105 -92 121 -150 13 -50 6 -124 -17 -169
-18 -36 -53 -78 -65 -78 -4 0 -22 24 -40 53 -46 75 -128 182 -198 258 l-61 67
24 15 c63 42 159 44 236 4z m-4140 -859 l0 -721 -72 -73 c-40 -41 -76 -74 -80
-74 -5 0 -8 119 -8 265 l0 265 -160 0 -160 0 0 245 0 245 120 0 120 0 0 285 0
285 120 0 120 0 0 -722z m4253 -1456 c14 -13 17 -33 17 -124 0 -95 -2 -110
-20 -128 -11 -11 -29 -20 -41 -20 -20 0 -181 39 -187 45 -2 2 26 45 63 97 37
51 76 110 86 131 18 34 22 36 42 26 12 -6 30 -18 40 -27z"/>
<path d="M4345 4200 l-60 -60 83 -83 82 -82 60 60 60 60 -83 83 -83 82 -59
-60z"/>
<path d="M3075 3949 c-698 -53 -1283 -583 -1411 -1279 -28 -146 -25 -421 4
-567 64 -318 201 -573 431 -803 230 -229 470 -361 788 -433 133 -29 469 -32
607 -4 501 102 928 444 1132 907 188 427 174 913 -39 1336 -94 187 -288 416
-457 540 -312 228 -675 332 -1055 303z m309 -174 c592 -79 1057 -517 1183
-1115 25 -120 25 -411 0 -530 -123 -576 -559 -1004 -1127 -1106 -127 -23 -353
-23 -480 0 -586 105 -1041 567 -1136 1155 -18 112 -18 322 1 436 89 551 494
994 1033 1130 179 45 342 55 526 30z"/>
<path d="M3053 3620 c-540 -68 -982 -490 -1068 -1020 -73 -456 108 -910 474
-1185 616 -464 1494 -257 1844 435 182 360 165 824 -42 1168 -184 307 -477
515 -823 586 -97 20 -290 28 -385 16z m227 -320 l0 -160 -80 0 -80 0 0 160 0
160 80 0 80 0 0 -160z m-308 -247 c10 -17 32 -42 50 -55 31 -22 42 -23 178
-23 136 0 147 1 178 23 59 43 66 68 72 259 l5 171 71 -22 c75 -24 224 -94 224
-105 0 -3 -50 -56 -111 -116 -61 -61 -117 -122 -125 -137 -18 -35 -18 -111 0
-146 8 -15 52 -64 98 -108 98 -96 141 -115 211 -95 33 10 69 40 163 132 l121
120 30 -58 c33 -62 77 -171 87 -214 l6 -27 -168 -4 c-187 -4 -210 -11 -259
-75 -27 -35 -28 -41 -31 -167 -2 -121 -1 -134 20 -170 45 -77 57 -81 259 -84
98 -2 179 -7 179 -11 0 -22 -46 -146 -82 -219 l-41 -83 -126 124 c-103 102
-133 127 -163 132 -75 14 -106 0 -201 -93 -49 -48 -95 -99 -103 -114 -18 -35
-18 -111 0 -146 8 -15 64 -76 125 -136 60 -60 108 -113 105 -118 -10 -15 -128
-70 -211 -99 l-83 -28 0 163 c0 148 -2 166 -22 206 -31 61 -74 87 -155 96 -81
8 -195 -2 -231 -20 -36 -19 -68 -54 -81 -89 -6 -16 -11 -99 -11 -188 0 -181 6
-171 -92 -138 -52 17 -193 83 -208 96 -2 2 48 56 112 121 120 120 138 147 138
208 0 58 -23 95 -118 186 -97 93 -126 107 -199 93 -31 -5 -61 -30 -164 -131
l-126 -125 -35 68 c-37 70 -88 203 -88 228 0 11 35 14 178 17 168 3 179 4 211
27 54 39 71 88 71 216 0 95 -3 117 -22 155 -44 85 -87 99 -295 100 -83 0 -143
4 -143 9 0 20 54 159 87 225 l35 68 121 -120 c95 -93 131 -123 165 -133 69
-20 112 -1 211 95 88 85 111 123 111 181 0 60 -24 96 -139 210 -61 60 -111
113 -111 116 0 11 149 81 224 105 l71 22 5 -171 c4 -138 8 -178 22 -204z
m-297 -133 l-55 -55 -110 110 c-60 60 -110 112 -110 116 0 3 23 29 52 57 l52
52 113 -112 113 -113 -55 -55z m1218 58 l-113 -113 -55 55 -55 55 112 112 113
113 55 -55 55 -55 -112 -112z m-1433 -578 l0 -80 -160 0 -160 0 0 80 0 80 160
0 160 0 0 -80z m1800 0 l0 -80 -160 0 -160 0 0 80 0 80 160 0 160 0 0 -80z
m-1582 -533 l52 -52 -113 -113 -112 -112 -55 55 -54 55 109 110 c60 61 112
110 115 110 3 0 29 -24 58 -53z m1217 -57 l109 -110 -54 -55 -55 -55 -112 112
-113 113 52 52 c29 29 55 53 58 53 3 0 55 -49 115 -110z m-617 -317 l-3 -158
-75 0 -75 0 -3 158 -3 157 81 0 81 0 -3 -157z"/>
<path d="M3100 2797 c-120 -34 -219 -116 -273 -227 -30 -61 -32 -71 -32 -175
0 -104 2 -114 32 -176 80 -161 266 -260 434 -230 160 28 278 129 329 282 28
81 24 195 -9 282 -32 83 -114 167 -206 213 -60 30 -86 36 -151 40 -47 2 -97
-1 -124 -9z m201 -181 c110 -53 163 -174 129 -297 -13 -47 -72 -115 -124 -141
-56 -30 -155 -30 -211 -1 -88 46 -135 123 -135 221 0 103 60 190 158 227 47
18 136 14 183 -9z"/>
<path d="M3145 2455 c-46 -45 -26 -127 34 -140 33 -7 85 15 95 40 22 60 -16
125 -74 125 -19 0 -40 -9 -55 -25z"/>
<path d="M980 3710 l0 -80 85 0 85 0 0 80 0 80 -85 0 -85 0 0 -80z"/>
<path d="M980 3380 l0 -80 85 0 85 0 0 80 0 80 -85 0 -85 0 0 -80z"/>
<path d="M1665 3435 c-16 -15 -25 -36 -25 -55 0 -71 91 -107 140 -55 72 77
-41 185 -115 110z"/>
<path d="M987 3134 c-4 -4 -7 -43 -7 -86 l0 -78 85 0 86 0 -3 83 -3 82 -75 3
c-42 1 -79 0 -83 -4z"/>
<path d="M1170 1651 c-67 -21 -132 -75 -163 -136 -58 -116 -3 -266 119 -325
54 -27 143 -29 199 -5 134 55 190 217 120 343 -54 99 -175 153 -275 123z m115
-186 c40 -39 27 -104 -27 -126 -55 -23 -116 31 -103 91 13 60 86 80 130 35z"/>
<path d="M4190 825 c-129 -42 -202 -189 -156 -318 49 -137 212 -201 343 -134
182 93 176 347 -9 443 -43 22 -125 26 -178 9z m124 -176 c20 -16 26 -29 26
-58 0 -48 -28 -75 -77 -75 -44 0 -73 32 -73 79 0 38 37 75 75 75 12 0 34 -9
49 -21z"/>
<path d="M355 2865 c-44 -43 -31 -112 25 -135 35 -15 84 0 100 31 30 55 -10
129 -70 129 -19 0 -40 -9 -55 -25z"/>
</g>
</svg>
