<?xml version="1.0" standalone="no"?>
<!DOCTYPE svg PUBLIC "-//W3C//DTD SVG 20010904//EN"
 "http://www.w3.org/TR/2001/REC-SVG-20010904/DTD/svg10.dtd">
<svg version="1.0" xmlns="http://www.w3.org/2000/svg"
 width="100em" height="100em" viewBox="0 0 512.000000 512.000000"
 preserveAspectRatio="xMidYMid meet">

<g transform="translate(0.000000,512.000000) scale(0.100000,-0.100000)"
fill="#016F3E" stroke="none">
<path d="M1565 5108 c-40 -23 -44 -39 -45 -169 l0 -126 -64 -5 c-125 -10 -232
-84 -285 -197 -22 -48 -26 -69 -26 -146 0 -108 5 -117 141 -317 l94 -138 0
-620 0 -620 -109 -163 c-120 -181 -137 -226 -129 -331 10 -117 90 -231 194
-277 l44 -20 0 -205 c0 -204 0 -205 25 -229 33 -34 77 -33 104 1 20 25 21 40
21 224 l0 198 48 16 c26 10 55 20 65 23 16 5 17 -23 17 -496 0 -488 1 -502 20
-521 20 -20 33 -20 880 -20 847 0 860 0 880 20 19 19 20 33 20 521 0 467 1
501 17 495 9 -4 39 -14 65 -23 l48 -15 0 -634 0 -634 -1030 0 -1030 0 0 285 0
286 -25 24 c-31 32 -69 32 -100 0 l-25 -24 0 -330 c0 -329 0 -330 23 -356 17
-20 35 -28 70 -32 l47 -6 0 -247 0 -248 31 -26 31 -26 195 0 195 0 30 30 c25
26 29 36 24 63 -20 106 -20 112 12 148 34 38 82 44 126 15 40 -26 50 -61 36
-122 -16 -66 -7 -100 30 -119 43 -22 617 -22 660 0 37 19 46 53 30 119 -14 61
-4 96 36 122 42 28 93 22 127 -16 30 -34 30 -33 11 -142 -5 -33 -2 -41 24 -68
l30 -30 197 0 197 0 29 29 29 29 0 245 0 244 47 6 c35 4 53 12 70 32 l23 26 0
683 0 684 55 26 c100 49 173 159 183 272 8 105 -10 150 -129 331 l-109 163 0
620 0 619 103 153 c119 175 141 229 135 326 -10 172 -142 306 -314 320 l-64 5
0 126 c-1 184 3 181 -260 181 l-192 0 -30 -30 c-25 -26 -29 -36 -24 -63 20
-105 20 -113 -11 -146 -34 -39 -85 -45 -127 -17 -40 26 -50 61 -36 122 7 29
10 64 6 78 -13 52 -37 56 -366 56 -329 0 -353 -4 -366 -56 -4 -14 -1 -49 6
-78 14 -61 4 -96 -36 -122 -42 -28 -93 -22 -127 17 -31 33 -31 41 -11 146 5
27 1 37 -24 63 l-30 30 -194 0 c-126 -1 -200 -5 -213 -12z m295 -175 c3 -207
268 -314 418 -170 44 42 72 97 79 158 l6 49 197 0 197 0 6 -49 c20 -169 195
-272 347 -204 86 38 138 108 147 199 l6 54 93 0 94 0 0 -110 0 -109 -132 -90
-133 -90 -271 -1 -271 0 -5 116 c-4 107 -6 118 -27 135 -13 11 -36 19 -51 19
-15 0 -38 -8 -51 -19 -21 -16 -23 -28 -27 -133 l-4 -115 -33 -12 c-30 -10 -55
-45 -55 -75 0 -8 9 -24 19 -37 19 -24 21 -24 283 -29 l263 -5 -55 -33 c-30
-18 -91 -44 -135 -59 -69 -23 -96 -26 -205 -26 -143 0 -225 21 -345 88 l-67
37 21 22 c28 30 27 71 -4 101 -22 23 -31 25 -127 25 l-103 1 -132 90 -133 90
0 109 0 110 95 0 95 0 0 -37z m-315 -287 c18 -8 145 -90 281 -183 368 -249
424 -279 589 -308 111 -19 179 -19 290 0 168 30 218 56 624 332 255 173 282
185 359 164 102 -27 158 -118 138 -224 -4 -20 -81 -143 -196 -313 -276 -405
-312 -488 -313 -724 0 -232 35 -317 296 -703 101 -149 192 -286 201 -304 29
-58 14 -155 -32 -206 -44 -49 -143 -71 -208 -47 -15 6 -146 92 -293 192 -146
99 -293 196 -326 214 -187 103 -444 126 -652 58 -108 -35 -160 -66 -464 -272
-147 -100 -278 -186 -293 -192 -65 -24 -164 -2 -208 47 -46 51 -61 148 -32
206 9 18 100 155 201 304 260 386 296 470 296 703 0 234 -38 322 -312 724
-116 170 -193 293 -197 313 -17 90 21 168 100 208 56 28 101 31 151 11z m33
-941 c101 -202 105 -410 12 -609 -61 -134 -59 -144 -60 294 0 237 4 390 9 385
5 -6 23 -37 39 -70z m2012 -317 c-1 -436 1 -426 -60 -292 -82 175 -87 400 -12
560 29 64 62 124 67 124 3 0 5 -177 5 -392z m-865 -924 c88 -21 165 -61 310
-158 l130 -86 -605 0 -605 0 120 81 c187 125 274 164 403 178 81 10 166 4 247
-15z m585 -869 l0 -475 -750 0 -750 0 0 475 0 475 750 0 750 0 0 -475z m-828
-1161 c4 -107 6 -118 27 -135 30 -24 72 -24 102 0 21 17 23 28 27 135 l5 116
403 0 404 0 0 -200 0 -200 -95 0 -95 0 0 38 c-3 206 -268 313 -418 169 -44
-42 -72 -97 -79 -158 l-6 -49 -197 0 -197 0 -6 49 c-16 133 -119 224 -253 224
-131 -1 -244 -109 -244 -233 l0 -40 -95 0 -95 0 0 200 0 200 404 0 403 0 5
-116z"/>
<path d="M1492 4464 c-29 -20 -31 -83 -2 -109 46 -42 120 -10 120 52 0 62 -65
94 -118 57z"/>
<path d="M3532 4464 c-29 -20 -31 -83 -2 -109 48 -44 120 -10 120 56 0 43 -27
69 -70 69 -14 0 -36 -7 -48 -16z"/>
<path d="M1703 4280 c-70 -29 -45 -140 32 -140 38 0 75 37 75 75 0 49 -59 85
-107 65z"/>
<path d="M3353 4280 c-70 -29 -45 -140 32 -140 38 0 75 37 75 75 0 49 -59 85
-107 65z"/>
<path d="M1880 4070 c-30 -30 -27 -83 6 -109 36 -29 60 -26 96 9 24 25 29 36
24 58 -14 58 -86 82 -126 42z"/>
<path d="M3142 4073 c-12 -10 -24 -30 -28 -45 -5 -22 0 -33 24 -58 36 -35 60
-38 96 -9 52 41 23 129 -43 129 -16 0 -38 -8 -49 -17z"/>
<path d="M2482 4009 c-208 -27 -390 -156 -479 -339 -67 -139 -84 -251 -59
-390 66 -367 445 -600 798 -490 72 22 98 46 98 90 0 29 -37 70 -62 70 -8 0
-50 -9 -93 -20 -94 -24 -158 -25 -246 -2 -232 61 -389 298 -349 530 26 158
121 287 262 357 233 114 522 16 632 -215 65 -135 69 -265 11 -401 -38 -90 -42
-122 -16 -148 26 -26 82 -28 104 -3 32 35 79 153 93 234 25 135 7 250 -57 384
-92 190 -271 315 -489 344 -41 5 -77 9 -80 8 -3 0 -34 -4 -68 -9z"/>
<path d="M2469 3727 c-103 -29 -181 -96 -228 -197 -22 -46 -26 -69 -26 -145 0
-80 4 -97 29 -148 35 -68 108 -140 174 -170 67 -31 217 -31 284 0 66 30 139
102 174 170 25 51 29 68 29 148 0 76 -4 98 -26 146 -57 122 -164 196 -295 204
-40 3 -88 0 -115 -8z m187 -164 c109 -56 137 -209 56 -305 -52 -62 -152 -85
-230 -53 -168 71 -159 310 13 373 42 16 115 9 161 -15z"/>
<path d="M2512 3444 c-29 -20 -31 -83 -2 -109 48 -44 120 -10 120 56 0 43 -27
69 -70 69 -14 0 -36 -7 -48 -16z"/>
<path d="M1880 2810 c-24 -24 -26 -67 -4 -98 20 -29 83 -31 109 -2 42 46 10
120 -52 120 -20 0 -41 -8 -53 -20z"/>
<path d="M3135 2810 c-44 -48 -10 -120 56 -120 44 0 69 27 69 72 0 60 -85 93
-125 48z"/>
<path d="M1685 2615 c-14 -13 -25 -36 -25 -50 0 -14 11 -37 25 -50 13 -14 36
-25 50 -25 14 0 37 11 50 25 14 13 25 36 25 50 0 33 -42 75 -75 75 -14 0 -37
-11 -50 -25z"/>
<path d="M3335 2615 c-14 -13 -25 -36 -25 -50 0 -33 42 -75 75 -75 33 0 75 42
75 75 0 14 -11 37 -25 50 -13 14 -36 25 -50 25 -14 0 -37 -11 -50 -25z"/>
<path d="M1492 2424 c-33 -23 -31 -86 4 -113 15 -12 34 -21 44 -21 34 0 70 39
70 76 0 63 -65 95 -118 58z"/>
<path d="M3530 2420 c-30 -30 -27 -83 6 -109 15 -12 34 -21 44 -21 10 0 29 9
44 21 35 27 37 90 4 113 -31 22 -74 20 -98 -4z"/>
<path d="M1951 1914 c-27 -35 -26 -57 3 -91 l24 -28 582 0 582 0 24 28 c29 34
30 56 3 91 l-20 26 -589 0 -589 0 -20 -26z"/>
<path d="M1974 1658 c-37 -17 -44 -51 -44 -203 0 -154 7 -186 47 -204 34 -15
1132 -15 1166 0 40 18 47 50 47 204 0 154 -7 186 -47 204 -32 15 -1139 14
-1169 -1z m1066 -203 l0 -65 -480 0 -480 0 0 65 0 65 480 0 480 0 0 -65z"/>
</g>
</svg>
