<?xml version="1.0" standalone="no"?>
<!DOCTYPE svg PUBLIC "-//W3C//DTD SVG 20010904//EN"
 "http://www.w3.org/TR/2001/REC-SVG-20010904/DTD/svg10.dtd">
<svg version="1.0" xmlns="http://www.w3.org/2000/svg"
 width="100em" height="100em" viewBox="0 0 512.000000 512.000000"
 preserveAspectRatio="xMidYMid meet">

<g transform="translate(0.000000,512.000000) scale(0.100000,-0.100000)"
fill="#016F3E" stroke="none">
<path d="M1565 5108 c-40 -23 -44 -39 -45 -169 l0 -126 -64 -5 c-125 -10 -232
-84 -285 -197 -22 -48 -26 -69 -26 -146 0 -108 5 -117 141 -317 l94 -138 0
-620 0 -620 -109 -163 c-120 -181 -137 -226 -129 -331 10 -117 90 -231 194
-277 l44 -20 0 -205 c0 -204 0 -205 25 -229 13 -14 31 -25 40 -25 12 0 15 -16
15 -100 0 -84 -3 -100 -15 -100 -9 0 -27 -11 -40 -25 l-25 -24 0 -330 c0 -329
0 -330 23 -356 17 -20 35 -28 70 -32 l47 -6 0 -247 0 -248 31 -26 31 -26 195
0 195 0 30 30 c25 26 29 36 24 63 -20 106 -20 112 12 148 34 38 82 44 126 15
40 -26 50 -61 36 -122 -16 -66 -7 -100 30 -119 43 -22 617 -22 660 0 37 19 46
53 30 119 -14 61 -4 96 36 122 42 28 93 22 127 -16 30 -34 30 -33 11 -142 -5
-33 -2 -41 24 -68 l30 -30 197 0 197 0 29 29 29 29 0 245 0 244 47 6 c35 4 53
12 70 32 l23 26 0 683 0 684 55 26 c100 49 173 159 183 272 8 105 -10 150
-129 331 l-109 163 0 620 0 619 103 153 c119 175 141 229 135 326 -10 172
-142 306 -314 320 l-64 5 0 126 c-1 184 3 181 -260 181 l-192 0 -30 -30 c-25
-26 -29 -36 -24 -63 20 -105 20 -113 -11 -146 -34 -39 -85 -45 -127 -17 -40
26 -50 61 -36 122 7 29 10 64 6 78 -13 52 -37 56 -366 56 -329 0 -353 -4 -366
-56 -4 -14 -1 -49 6 -78 14 -61 4 -96 -36 -122 -42 -28 -93 -22 -127 17 -31
33 -31 41 -11 146 5 27 1 37 -24 63 l-30 30 -194 0 c-126 -1 -200 -5 -213 -12z
m-40 -459 c22 -6 157 -91 305 -191 146 -99 288 -194 316 -210 139 -78 286
-113 449 -106 218 10 309 51 695 315 161 110 281 185 307 192 138 37 267 -100
221 -235 -8 -22 -97 -161 -198 -310 -102 -148 -201 -302 -221 -342 -117 -231
-116 -524 4 -757 14 -27 113 -180 221 -339 154 -227 197 -298 202 -332 20
-137 -125 -252 -252 -199 -19 8 -146 90 -282 182 -373 254 -420 279 -593 309
-223 39 -433 -13 -649 -158 -41 -28 -164 -111 -272 -185 -108 -73 -213 -140
-232 -148 -127 -53 -272 62 -252 199 5 34 48 105 202 332 108 159 207 312 221
339 116 226 121 503 14 738 -15 34 -66 118 -113 187 -293 431 -316 467 -322
507 -15 87 38 179 119 208 49 17 60 18 110 4z m1785 -3054 l0 -475 -750 0
-750 0 0 475 0 475 750 0 750 0 0 -475z"/>
<path d="M1489 4461 c-16 -16 -29 -37 -29 -46 0 -21 19 -57 39 -72 45 -35 121
11 121 73 0 23 -55 74 -80 74 -12 0 -35 -13 -51 -29z"/>
<path d="M3529 4461 c-16 -16 -29 -36 -29 -45 0 -62 76 -108 121 -73 20 15 39
51 39 72 0 24 -55 75 -80 75 -12 0 -35 -13 -51 -29z"/>
<path d="M1686 4269 c-44 -34 -34 -102 17 -124 58 -24 107 10 107 74 0 34 -39
71 -75 71 -12 0 -34 -9 -49 -21z"/>
<path d="M3336 4269 c-44 -34 -34 -102 17 -124 58 -24 107 10 107 74 0 34 -39
71 -75 71 -12 0 -34 -9 -49 -21z"/>
<path d="M1878 4073 c-26 -29 -30 -60 -14 -91 25 -49 82 -57 121 -17 30 30 32
64 4 99 -25 32 -87 37 -111 9z"/>
<path d="M3131 4064 c-28 -35 -26 -69 4 -99 39 -40 96 -32 121 17 28 53 -6
108 -67 108 -29 0 -42 -6 -58 -26z"/>
<path d="M2430 4005 c-35 -8 -103 -33 -149 -55 -114 -55 -228 -169 -284 -281
-120 -245 -73 -531 119 -723 157 -157 383 -221 594 -167 98 24 130 49 130 98
0 61 -56 89 -124 63 -57 -21 -149 -29 -220 -20 -159 23 -289 118 -361 264 -36
72 -40 87 -43 176 -7 157 35 266 137 363 101 96 200 137 331 137 131 0 230
-41 331 -137 102 -97 144 -207 137 -362 -4 -85 -8 -106 -42 -178 -34 -75 -36
-86 -24 -110 7 -15 25 -34 39 -42 22 -12 31 -12 58 -2 24 10 39 30 66 85 49
98 68 198 61 311 -10 168 -62 282 -186 405 -89 89 -156 130 -270 164 -78 24
-220 29 -300 11z"/>
<path d="M2443 3721 c-66 -24 -101 -49 -152 -107 -60 -68 -84 -140 -79 -239 4
-98 35 -170 98 -233 174 -173 466 -123 569 98 36 78 41 193 11 272 -28 76
-101 156 -177 193 -77 38 -192 45 -270 16z m223 -166 c61 -36 99 -115 91 -188
-12 -100 -97 -177 -197 -177 -131 0 -230 133 -190 256 42 127 179 178 296 109z"/>
<path d="M2505 3440 c-28 -31 -24 -79 9 -107 34 -29 58 -29 92 0 55 47 26 127
-46 127 -24 0 -43 -7 -55 -20z"/>
<path d="M1879 2811 c-16 -16 -29 -39 -29 -51 0 -25 51 -80 75 -80 21 0 57 19
72 39 35 45 -11 121 -73 121 -9 0 -29 -13 -45 -29z"/>
<path d="M3154 2828 c-23 -11 -44 -48 -44 -76 1 -32 47 -72 85 -72 24 0 75 55
75 80 0 27 -52 80 -77 79 -10 0 -28 -5 -39 -11z"/>
<path d="M1682 2617 c-46 -49 -12 -127 56 -127 42 0 72 31 72 73 0 68 -83 103
-128 54z"/>
<path d="M3332 2617 c-47 -50 -15 -127 51 -127 68 0 103 83 54 128 -31 29 -77
29 -105 -1z"/>
<path d="M1513 2440 c-32 -13 -56 -55 -49 -85 19 -77 107 -88 144 -18 17 32
15 49 -10 77 -27 29 -55 38 -85 26z"/>
<path d="M3553 2440 c-32 -13 -56 -55 -49 -85 18 -73 108 -89 141 -24 20 38
19 54 -7 83 -27 29 -55 38 -85 26z"/>
<path d="M1974 1938 c-23 -11 -44 -48 -44 -76 1 -22 19 -46 47 -60 30 -17
1131 -17 1167 -1 35 16 52 61 37 98 -7 15 -24 33 -37 40 -33 15 -1139 14
-1170 -1z"/>
<path d="M1955 1645 c-25 -24 -25 -27 -25 -190 0 -163 0 -166 25 -190 l24 -25
581 0 581 0 24 25 c25 24 25 27 25 190 0 163 0 166 -25 190 l-24 25 -581 0
-581 0 -24 -25z m1085 -190 l0 -65 -480 0 -480 0 0 65 0 65 480 0 480 0 0 -65z"/>
</g>
</svg>
