<?xml version="1.0" standalone="no"?>
<!DOCTYPE svg PUBLIC "-//W3C//DTD SVG 20010904//EN"
 "http://www.w3.org/TR/2001/REC-SVG-20010904/DTD/svg10.dtd">
<svg version="1.0" xmlns="http://www.w3.org/2000/svg"
 width="512.000000pt" height="512.000000pt" viewBox="0 0 512.000000 512.000000"
 preserveAspectRatio="xMidYMid meet">

<g transform="translate(0.000000,512.000000) scale(0.100000,-0.100000)"
fill="#000000" stroke="none">
<path d="M1000 4545 c-106 -24 -186 -70 -270 -154 -116 -117 -163 -230 -163
-391 0 -147 44 -264 140 -369 66 -74 137 -121 233 -156 63 -23 92 -27 175 -28
108 0 163 12 261 60 82 39 201 159 242 243 128 260 44 561 -202 722 -114 74
-282 103 -416 73z"/>
<path d="M3600 2866 l0 -894 -57 -28 c-177 -86 -288 -301 -255 -497 35 -208
192 -364 400 -398 113 -19 186 -3 270 59 37 27 88 59 114 70 109 48 188 257
158 422 -26 144 -129 284 -252 344 l-58 28 0 894 0 894 -160 0 -160 0 0 -894z"/>
</g>
</svg>
