<?xml version="1.0" standalone="no"?>
<!DOCTYPE svg PUBLIC "-//W3C//DTD SVG 20010904//EN"
 "http://www.w3.org/TR/2001/REC-SVG-20010904/DTD/svg10.dtd">
<svg version="1.0" xmlns="http://www.w3.org/2000/svg"
 width="512.000000pt" height="512.000000pt" viewBox="0 0 512.000000 512.000000"
 preserveAspectRatio="xMidYMid meet">

<g transform="translate(0.000000,512.000000) scale(0.100000,-0.100000)"
fill="#016F3E" stroke="none">
<path d="M420 4991 c-14 -4 -45 -18 -69 -30 -110 -57 -208 -221 -131 -221 13
0 27 12 38 32 28 53 91 116 138 138 24 12 74 25 111 28 64 7 68 8 68 32 0 24
-3 25 -65 27 -36 1 -76 -2 -90 -6z"/>
<path d="M436 4769 c-14 -11 -32 -30 -39 -42 -9 -17 -13 -338 -17 -1455 l-5
-1432 -55 45 c-72 59 -140 92 -219 104 -112 18 -101 112 -101 -838 0 -926 -3
-884 72 -959 78 -79 -144 -73 2399 -70 l2276 3 49 30 c30 19 60 49 79 79 l30
49 3 848 c3 973 14 876 -98 858 -89 -14 -152 -47 -250 -130 -121 -103 -171
-124 -290 -124 -119 0 -150 14 -280 120 -52 43 -119 89 -148 102 -107 50 -252
49 -357 -2 -27 -13 -88 -56 -135 -96 -123 -103 -172 -124 -290 -124 -84 0
-102 3 -150 27 -30 16 -93 60 -140 100 -47 39 -109 82 -137 95 -107 49 -249
49 -356 0 -28 -13 -90 -56 -137 -95 -47 -40 -110 -84 -140 -100 -48 -24 -66
-27 -150 -27 -118 0 -167 21 -290 124 -46 40 -107 83 -135 96 -59 29 -156 46
-214 38 l-41 -6 0 1363 0 1362 -39 39 -39 39 -314 0 c-304 0 -316 -1 -342 -21z
m621 -50 c15 -5 31 -16 35 -22 4 -7 8 -621 8 -1364 l0 -1353 -47 -24 c-27 -13
-84 -54 -128 -91 -102 -85 -146 -110 -218 -125 -69 -14 -143 -6 -209 22 l-48
20 0 149 0 149 93 0 c96 0 117 8 117 42 0 28 -33 38 -124 38 l-86 0 0 45 0 45
176 0 c179 0 214 6 214 38 0 38 -18 42 -207 42 l-183 0 0 50 0 49 103 3 102 3
0 30 0 30 -102 3 -103 3 0 49 0 50 186 2 c159 3 188 5 197 19 6 9 7 24 4 33
-6 14 -30 16 -197 16 l-190 0 0 50 0 49 96 3 c79 2 99 6 108 20 8 13 8 23 0
35 -9 15 -29 19 -108 21 l-96 3 0 49 0 50 190 0 c167 0 191 2 197 16 3 9 2 24
-4 33 -9 14 -38 16 -197 19 l-186 2 0 50 0 49 103 3 102 3 0 30 0 30 -102 3
-103 3 0 49 0 50 183 0 c189 0 207 4 207 42 0 32 -35 38 -214 38 l-176 0 0 45
0 45 86 0 c91 0 124 10 124 38 0 34 -21 42 -117 42 l-93 0 0 50 0 50 189 0
c182 0 190 1 196 20 14 45 -5 50 -201 50 l-184 0 0 50 0 49 96 3 c101 3 125
14 111 52 -5 13 -23 16 -107 16 l-100 0 0 50 0 50 176 0 c179 0 214 6 214 38
0 38 -18 42 -207 42 l-183 0 0 50 0 49 103 3 c99 3 102 4 105 27 5 34 -12 41
-115 41 l-93 0 0 50 0 50 184 0 c196 0 215 5 201 50 -6 19 -14 20 -196 20
l-189 0 0 50 0 50 93 0 c96 0 117 8 117 42 0 28 -33 38 -124 38 l-86 0 0 53
c0 54 12 76 50 90 29 10 528 7 557 -4z m-862 -2830 c22 -10 79 -52 128 -93 48
-40 114 -85 146 -100 80 -35 184 -44 271 -22 80 21 125 47 226 132 115 96 167
119 279 119 112 0 162 -22 285 -126 47 -40 112 -85 145 -100 109 -51 258 -49
365 6 25 13 83 56 130 95 121 102 172 125 285 125 113 0 164 -23 285 -125 47
-39 105 -82 130 -95 107 -55 256 -57 365 -6 33 15 98 60 145 100 125 104 173
126 285 126 113 0 166 -23 279 -119 100 -84 145 -111 226 -132 150 -38 280 2
440 137 87 74 118 92 189 108 l41 9 0 -810 c0 -887 3 -838 -60 -891 -17 -15
-47 -31 -68 -37 -48 -13 -4449 -14 -4506 0 -45 10 -81 34 -110 74 -21 27 -21
37 -24 846 l-2 818 42 -10 c24 -5 61 -18 83 -29z"/>
<path d="M624 1336 c-11 -28 4 -45 43 -51 80 -12 110 -27 183 -86 103 -85 157
-109 246 -109 97 0 146 19 247 99 98 78 136 94 218 93 74 -1 109 -17 194 -87
112 -91 133 -100 250 -100 116 0 132 6 242 97 89 72 128 89 208 89 80 0 119
-17 208 -89 110 -91 126 -97 242 -97 117 0 138 9 250 100 86 72 121 86 200 87
78 0 131 -22 210 -91 95 -81 133 -96 245 -96 109 0 147 15 237 91 67 57 131
94 165 94 48 0 80 18 76 43 -3 20 -8 22 -63 22 -74 0 -126 -25 -210 -96 -80
-69 -125 -89 -205 -89 -81 0 -122 19 -219 98 -89 73 -139 92 -240 92 -95 0
-139 -20 -238 -101 -89 -74 -125 -89 -206 -89 -82 0 -117 15 -203 86 -100 83
-151 104 -249 104 -98 0 -149 -21 -250 -105 -87 -72 -117 -85 -202 -85 -81 0
-123 19 -208 91 -89 77 -143 99 -240 99 -97 0 -159 -25 -245 -100 -77 -67
-130 -90 -208 -90 -80 0 -116 15 -209 90 -97 78 -124 92 -200 98 -52 4 -64 2
-69 -12z"/>
<path d="M632 752 c-8 -5 -12 -20 -10 -33 2 -20 10 -25 52 -31 71 -10 100 -24
180 -90 105 -87 144 -103 246 -103 103 0 144 17 245 99 100 83 118 91 205 91
89 0 121 -14 206 -86 97 -83 144 -103 244 -103 105 -1 149 17 255 104 146 122
258 120 407 -4 97 -81 148 -101 253 -100 97 1 129 14 227 92 107 86 130 97
218 97 87 0 107 -9 206 -91 85 -70 139 -95 219 -102 95 -7 160 16 255 93 97
79 124 93 192 103 48 6 53 10 56 34 4 33 -21 43 -81 33 -62 -11 -114 -38 -194
-104 -82 -67 -134 -91 -200 -91 -74 0 -116 19 -207 91 -107 84 -157 104 -256
103 -93 0 -139 -20 -234 -98 -88 -73 -116 -87 -185 -93 -85 -8 -131 10 -222
83 -110 90 -154 109 -254 109 -96 0 -156 -25 -249 -105 -88 -76 -109 -85 -201
-85 -93 0 -108 7 -210 91 -97 80 -142 98 -240 99 -97 0 -158 -25 -249 -103
-85 -74 -117 -87 -206 -87 -87 1 -112 11 -209 91 -36 30 -83 63 -106 74 -47
22 -134 35 -153 22z"/>
<path d="M182 4548 c-12 -12 -17 -143 -6 -172 3 -9 16 -16 29 -16 30 0 35 16
35 104 0 69 -10 96 -35 96 -6 0 -16 -5 -23 -12z"/>
<path d="M2463 4028 c-40 -45 -283 -396 -283 -410 0 -35 30 -57 83 -60 l52 -3
3 -287 2 -287 27 -20 c23 -19 40 -21 159 -21 126 0 134 1 161 24 l28 24 3 286
3 286 49 0 c39 0 52 4 64 22 9 12 16 29 16 36 0 14 -243 365 -283 410 -11 12
-30 22 -42 22 -12 0 -31 -10 -42 -22z m171 -233 c64 -90 116 -166 116 -169 0
-3 -26 -6 -57 -8 l-58 -3 -3 -300 c-2 -224 -5 -301 -15 -307 -16 -10 -208 -10
-224 0 -10 6 -13 83 -15 307 l-3 300 -57 3 c-32 2 -58 5 -58 8 0 5 161 236
217 312 13 18 28 30 33 27 4 -3 60 -79 124 -170z"/>
<path d="M3264 4038 c-40 -19 -44 -47 -44 -333 l0 -275 -49 0 c-56 0 -81 -17
-81 -56 0 -31 273 -420 301 -429 10 -4 28 -4 38 0 28 8 301 399 301 429 0 39
-25 56 -81 56 l-49 0 0 275 c0 290 -3 314 -47 334 -30 14 -260 13 -289 -1z
m266 -347 c0 -159 3 -296 6 -305 5 -12 20 -16 60 -16 30 0 54 -4 54 -10 0 -12
-231 -340 -240 -340 -9 0 -240 327 -240 340 0 5 24 10 54 10 40 0 55 4 60 16
3 9 6 146 6 305 l0 289 120 0 120 0 0 -289z"/>
<path d="M1351 2656 c-8 -9 -11 -63 -9 -167 3 -143 4 -154 22 -157 28 -6 46
25 46 80 l0 48 1550 0 1549 0 3 -62 c3 -60 4 -63 28 -63 l25 0 3 163 c2 139 0
163 -13 168 -29 12 -45 -15 -45 -77 l0 -59 -1550 0 -1550 0 0 51 c0 76 -28
112 -59 75z"/>
<path d="M5061 1351 c-15 -27 -14 -93 2 -115 7 -10 22 -16 33 -14 17 3 19 12
19 73 0 64 -2 70 -22 73 -14 2 -26 -4 -32 -17z"/>
<path d="M5060 1091 c-6 -12 -10 -115 -10 -263 0 -258 4 -284 46 -276 18 3 19
15 22 267 2 266 -1 291 -34 291 -7 0 -18 -9 -24 -19z"/>
</g>
</svg>
